<?xml version="1.0" encoding="utf-8" standalone="no"?>
<!DOCTYPE svg PUBLIC "-//W3C//DTD SVG 1.1//EN"
  "http://www.w3.org/Graphics/SVG/1.1/DTD/svg11.dtd">
<svg xmlns:xlink="http://www.w3.org/1999/xlink" width="498.600703pt" height="304.367016pt" viewBox="0 0 498.600703 304.367016" xmlns="http://www.w3.org/2000/svg" version="1.1">
 <metadata>
  <rdf:RDF xmlns:dc="http://purl.org/dc/elements/1.1/" xmlns:cc="http://creativecommons.org/ns#" xmlns:rdf="http://www.w3.org/1999/02/22-rdf-syntax-ns#">
   <cc:Work>
    <dc:type rdf:resource="http://purl.org/dc/dcmitype/StillImage"/>
    <dc:date>2026-07-22T16:07:52.099989</dc:date>
    <dc:format>image/svg+xml</dc:format>
    <dc:creator>
     <cc:Agent>
      <dc:title>Matplotlib v3.11.1, https://matplotlib.org/</dc:title>
     </cc:Agent>
    </dc:creator>
   </cc:Work>
  </rdf:RDF>
 </metadata>
 <defs>
  <style type="text/css">*{stroke-linejoin: round; stroke-linecap: butt}</style>
 </defs>
 <g id="figure_1">
  <g id="patch_1">
   <path d="M 0 304.367016 
L 498.600703 304.367016 
L 498.600703 0 
L 0 0 
z
" style="fill: #ffffff"/>
  </g>
  <g id="axes_1">
   <g id="patch_2">
    <path d="M 43.040703 268.166312 
L 491.400703 268.166312 
L 491.400703 21.406312 
L 43.040703 21.406312 
z
" style="fill: #ffffff"/>
   </g>
   <g id="matplotlib.axis_1">
    <g id="xtick_1">
     <g id="line2d_1">
      <path d="M 88.895703 268.166312 
L 88.895703 21.406312 
" clip-path="url(#p4747e88168)" style="fill: none; stroke: #b0b0b0; stroke-opacity: 0.3; stroke-width: 0.8; stroke-linecap: square"/>
     </g>
     <g id="line2d_2">
      <defs>
       <path id="m06efcc3b30" d="M 0 0 
L 0 3.5 
" style="stroke: #000000; stroke-width: 0.8"/>
      </defs>
      <g>
       <use xlink:href="#m06efcc3b30" x="88.895703" y="268.166312" style="stroke: #000000; stroke-width: 0.8"/>
      </g>
     </g>
     <g id="text_1">
      <!-- 4 -->
      <g transform="translate(86.032578 282.004203) scale(0.09 -0.09)">
       <defs>
        <path id="DejaVuSans-17" d="M 2419 4116 
L 825 1625 
L 2419 1625 
L 2419 4116 
z
M 2253 4666 
L 3047 4666 
L 3047 1625 
L 3713 1625 
L 3713 1100 
L 3047 1100 
L 3047 0 
L 2419 0 
L 2419 1100 
L 313 1100 
L 313 1709 
L 2253 4666 
z
" transform="scale(0.015625)"/>
       </defs>
       <use xlink:href="#DejaVuSans-17"/>
      </g>
     </g>
    </g>
    <g id="xtick_2">
     <g id="line2d_3">
      <path d="M 139.845703 268.166312 
L 139.845703 21.406312 
" clip-path="url(#p4747e88168)" style="fill: none; stroke: #b0b0b0; stroke-opacity: 0.3; stroke-width: 0.8; stroke-linecap: square"/>
     </g>
     <g id="line2d_4">
      <g>
       <use xlink:href="#m06efcc3b30" x="139.845703" y="268.166312" style="stroke: #000000; stroke-width: 0.8"/>
      </g>
     </g>
     <g id="text_2">
      <!-- 6 -->
      <g transform="translate(136.982578 282.004203) scale(0.09 -0.09)">
       <defs>
        <path id="DejaVuSans-19" d="M 2113 2584 
Q 1688 2584 1439 2293 
Q 1191 2003 1191 1497 
Q 1191 994 1439 701 
Q 1688 409 2113 409 
Q 2538 409 2786 701 
Q 3034 994 3034 1497 
Q 3034 2003 2786 2293 
Q 2538 2584 2113 2584 
z
M 3366 4563 
L 3366 3988 
Q 3128 4100 2886 4159 
Q 2644 4219 2406 4219 
Q 1781 4219 1451 3797 
Q 1122 3375 1075 2522 
Q 1259 2794 1537 2939 
Q 1816 3084 2150 3084 
Q 2853 3084 3261 2657 
Q 3669 2231 3669 1497 
Q 3669 778 3244 343 
Q 2819 -91 2113 -91 
Q 1303 -91 875 529 
Q 447 1150 447 2328 
Q 447 3434 972 4092 
Q 1497 4750 2381 4750 
Q 2619 4750 2861 4703 
Q 3103 4656 3366 4563 
z
" transform="scale(0.015625)"/>
       </defs>
       <use xlink:href="#DejaVuSans-19"/>
      </g>
     </g>
    </g>
    <g id="xtick_3">
     <g id="line2d_5">
      <path d="M 190.795703 268.166312 
L 190.795703 21.406312 
" clip-path="url(#p4747e88168)" style="fill: none; stroke: #b0b0b0; stroke-opacity: 0.3; stroke-width: 0.8; stroke-linecap: square"/>
     </g>
     <g id="line2d_6">
      <g>
       <use xlink:href="#m06efcc3b30" x="190.795703" y="268.166312" style="stroke: #000000; stroke-width: 0.8"/>
      </g>
     </g>
     <g id="text_3">
      <!-- 8 -->
      <g transform="translate(187.932578 282.004203) scale(0.09 -0.09)">
       <defs>
        <path id="DejaVuSans-1b" d="M 2034 2216 
Q 1584 2216 1326 1975 
Q 1069 1734 1069 1313 
Q 1069 891 1326 650 
Q 1584 409 2034 409 
Q 2484 409 2743 651 
Q 3003 894 3003 1313 
Q 3003 1734 2745 1975 
Q 2488 2216 2034 2216 
z
M 1403 2484 
Q 997 2584 770 2862 
Q 544 3141 544 3541 
Q 544 4100 942 4425 
Q 1341 4750 2034 4750 
Q 2731 4750 3128 4425 
Q 3525 4100 3525 3541 
Q 3525 3141 3298 2862 
Q 3072 2584 2669 2484 
Q 3125 2378 3379 2068 
Q 3634 1759 3634 1313 
Q 3634 634 3220 271 
Q 2806 -91 2034 -91 
Q 1263 -91 848 271 
Q 434 634 434 1313 
Q 434 1759 690 2068 
Q 947 2378 1403 2484 
z
M 1172 3481 
Q 1172 3119 1398 2916 
Q 1625 2713 2034 2713 
Q 2441 2713 2670 2916 
Q 2900 3119 2900 3481 
Q 2900 3844 2670 4047 
Q 2441 4250 2034 4250 
Q 1625 4250 1398 4047 
Q 1172 3844 1172 3481 
z
" transform="scale(0.015625)"/>
       </defs>
       <use xlink:href="#DejaVuSans-1b"/>
      </g>
     </g>
    </g>
    <g id="xtick_4">
     <g id="line2d_7">
      <path d="M 241.745703 268.166312 
L 241.745703 21.406312 
" clip-path="url(#p4747e88168)" style="fill: none; stroke: #b0b0b0; stroke-opacity: 0.3; stroke-width: 0.8; stroke-linecap: square"/>
     </g>
     <g id="line2d_8">
      <g>
       <use xlink:href="#m06efcc3b30" x="241.745703" y="268.166312" style="stroke: #000000; stroke-width: 0.8"/>
      </g>
     </g>
     <g id="text_4">
      <!-- 10 -->
      <g transform="translate(236.019453 282.004203) scale(0.09 -0.09)">
       <defs>
        <path id="DejaVuSans-14" d="M 794 531 
L 1825 531 
L 1825 4091 
L 703 3866 
L 703 4441 
L 1819 4666 
L 2450 4666 
L 2450 531 
L 3481 531 
L 3481 0 
L 794 0 
L 794 531 
z
" transform="scale(0.015625)"/>
        <path id="DejaVuSans-13" d="M 2034 4250 
Q 1547 4250 1301 3770 
Q 1056 3291 1056 2328 
Q 1056 1369 1301 889 
Q 1547 409 2034 409 
Q 2525 409 2770 889 
Q 3016 1369 3016 2328 
Q 3016 3291 2770 3770 
Q 2525 4250 2034 4250 
z
M 2034 4750 
Q 2819 4750 3233 4129 
Q 3647 3509 3647 2328 
Q 3647 1150 3233 529 
Q 2819 -91 2034 -91 
Q 1250 -91 836 529 
Q 422 1150 422 2328 
Q 422 3509 836 4129 
Q 1250 4750 2034 4750 
z
" transform="scale(0.015625)"/>
       </defs>
       <use xlink:href="#DejaVuSans-14"/>
       <use xlink:href="#DejaVuSans-13" transform="translate(63.625 0)"/>
      </g>
     </g>
    </g>
    <g id="xtick_5">
     <g id="line2d_9">
      <path d="M 292.695703 268.166312 
L 292.695703 21.406312 
" clip-path="url(#p4747e88168)" style="fill: none; stroke: #b0b0b0; stroke-opacity: 0.3; stroke-width: 0.8; stroke-linecap: square"/>
     </g>
     <g id="line2d_10">
      <g>
       <use xlink:href="#m06efcc3b30" x="292.695703" y="268.166312" style="stroke: #000000; stroke-width: 0.8"/>
      </g>
     </g>
     <g id="text_5">
      <!-- 12 -->
      <g transform="translate(286.969453 282.004203) scale(0.09 -0.09)">
       <defs>
        <path id="DejaVuSans-15" d="M 1228 531 
L 3431 531 
L 3431 0 
L 469 0 
L 469 531 
Q 828 903 1448 1529 
Q 2069 2156 2228 2338 
Q 2531 2678 2651 2914 
Q 2772 3150 2772 3378 
Q 2772 3750 2511 3984 
Q 2250 4219 1831 4219 
Q 1534 4219 1204 4116 
Q 875 4013 500 3803 
L 500 4441 
Q 881 4594 1212 4672 
Q 1544 4750 1819 4750 
Q 2544 4750 2975 4387 
Q 3406 4025 3406 3419 
Q 3406 3131 3298 2873 
Q 3191 2616 2906 2266 
Q 2828 2175 2409 1742 
Q 1991 1309 1228 531 
z
" transform="scale(0.015625)"/>
       </defs>
       <use xlink:href="#DejaVuSans-14"/>
       <use xlink:href="#DejaVuSans-15" transform="translate(63.625 0)"/>
      </g>
     </g>
    </g>
    <g id="xtick_6">
     <g id="line2d_11">
      <path d="M 343.645703 268.166312 
L 343.645703 21.406312 
" clip-path="url(#p4747e88168)" style="fill: none; stroke: #b0b0b0; stroke-opacity: 0.3; stroke-width: 0.8; stroke-linecap: square"/>
     </g>
     <g id="line2d_12">
      <g>
       <use xlink:href="#m06efcc3b30" x="343.645703" y="268.166312" style="stroke: #000000; stroke-width: 0.8"/>
      </g>
     </g>
     <g id="text_6">
      <!-- 14 -->
      <g transform="translate(337.919453 282.004203) scale(0.09 -0.09)">
       <use xlink:href="#DejaVuSans-14"/>
       <use xlink:href="#DejaVuSans-17" transform="translate(63.625 0)"/>
      </g>
     </g>
    </g>
    <g id="xtick_7">
     <g id="line2d_13">
      <path d="M 394.595703 268.166312 
L 394.595703 21.406312 
" clip-path="url(#p4747e88168)" style="fill: none; stroke: #b0b0b0; stroke-opacity: 0.3; stroke-width: 0.8; stroke-linecap: square"/>
     </g>
     <g id="line2d_14">
      <g>
       <use xlink:href="#m06efcc3b30" x="394.595703" y="268.166312" style="stroke: #000000; stroke-width: 0.8"/>
      </g>
     </g>
     <g id="text_7">
      <!-- 16 -->
      <g transform="translate(388.869453 282.004203) scale(0.09 -0.09)">
       <use xlink:href="#DejaVuSans-14"/>
       <use xlink:href="#DejaVuSans-19" transform="translate(63.625 0)"/>
      </g>
     </g>
    </g>
    <g id="xtick_8">
     <g id="line2d_15">
      <path d="M 445.545703 268.166312 
L 445.545703 21.406312 
" clip-path="url(#p4747e88168)" style="fill: none; stroke: #b0b0b0; stroke-opacity: 0.3; stroke-width: 0.8; stroke-linecap: square"/>
     </g>
     <g id="line2d_16">
      <g>
       <use xlink:href="#m06efcc3b30" x="445.545703" y="268.166312" style="stroke: #000000; stroke-width: 0.8"/>
      </g>
     </g>
     <g id="text_8">
      <!-- 18 -->
      <g transform="translate(439.819453 282.004203) scale(0.09 -0.09)">
       <use xlink:href="#DejaVuSans-14"/>
       <use xlink:href="#DejaVuSans-1b" transform="translate(63.625 0)"/>
      </g>
     </g>
    </g>
    <g id="text_9">
     <!-- code distance d -->
     <g transform="translate(231.582109 295.004906) scale(0.09 -0.09)">
      <defs>
       <path id="DejaVuSans-46" d="M 3122 3366 
L 3122 2828 
Q 2878 2963 2633 3030 
Q 2388 3097 2138 3097 
Q 1578 3097 1268 2742 
Q 959 2388 959 1747 
Q 959 1106 1268 751 
Q 1578 397 2138 397 
Q 2388 397 2633 464 
Q 2878 531 3122 666 
L 3122 134 
Q 2881 22 2623 -34 
Q 2366 -91 2075 -91 
Q 1284 -91 818 406 
Q 353 903 353 1747 
Q 353 2603 823 3093 
Q 1294 3584 2113 3584 
Q 2378 3584 2631 3529 
Q 2884 3475 3122 3366 
z
" transform="scale(0.015625)"/>
       <path id="DejaVuSans-52" d="M 1959 3097 
Q 1497 3097 1228 2736 
Q 959 2375 959 1747 
Q 959 1119 1226 758 
Q 1494 397 1959 397 
Q 2419 397 2687 759 
Q 2956 1122 2956 1747 
Q 2956 2369 2687 2733 
Q 2419 3097 1959 3097 
z
M 1959 3584 
Q 2709 3584 3137 3096 
Q 3566 2609 3566 1747 
Q 3566 888 3137 398 
Q 2709 -91 1959 -91 
Q 1206 -91 779 398 
Q 353 888 353 1747 
Q 353 2609 779 3096 
Q 1206 3584 1959 3584 
z
" transform="scale(0.015625)"/>
       <path id="DejaVuSans-47" d="M 2906 2969 
L 2906 4863 
L 3481 4863 
L 3481 0 
L 2906 0 
L 2906 525 
Q 2725 213 2448 61 
Q 2172 -91 1784 -91 
Q 1150 -91 751 415 
Q 353 922 353 1747 
Q 353 2572 751 3078 
Q 1150 3584 1784 3584 
Q 2172 3584 2448 3432 
Q 2725 3281 2906 2969 
z
M 947 1747 
Q 947 1113 1208 752 
Q 1469 391 1925 391 
Q 2381 391 2643 752 
Q 2906 1113 2906 1747 
Q 2906 2381 2643 2742 
Q 2381 3103 1925 3103 
Q 1469 3103 1208 2742 
Q 947 2381 947 1747 
z
" transform="scale(0.015625)"/>
       <path id="DejaVuSans-48" d="M 3597 1894 
L 3597 1613 
L 953 1613 
Q 991 1019 1311 708 
Q 1631 397 2203 397 
Q 2534 397 2845 478 
Q 3156 559 3463 722 
L 3463 178 
Q 3153 47 2828 -22 
Q 2503 -91 2169 -91 
Q 1331 -91 842 396 
Q 353 884 353 1716 
Q 353 2575 817 3079 
Q 1281 3584 2069 3584 
Q 2775 3584 3186 3129 
Q 3597 2675 3597 1894 
z
M 3022 2063 
Q 3016 2534 2758 2815 
Q 2500 3097 2075 3097 
Q 1594 3097 1305 2825 
Q 1016 2553 972 2059 
L 3022 2063 
z
" transform="scale(0.015625)"/>
       <path id="DejaVuSans-3" transform="scale(0.015625)"/>
       <path id="DejaVuSans-4c" d="M 603 3500 
L 1178 3500 
L 1178 0 
L 603 0 
L 603 3500 
z
M 603 4863 
L 1178 4863 
L 1178 4134 
L 603 4134 
L 603 4863 
z
" transform="scale(0.015625)"/>
       <path id="DejaVuSans-56" d="M 2834 3397 
L 2834 2853 
Q 2591 2978 2328 3040 
Q 2066 3103 1784 3103 
Q 1356 3103 1142 2972 
Q 928 2841 928 2578 
Q 928 2378 1081 2264 
Q 1234 2150 1697 2047 
L 1894 2003 
Q 2506 1872 2764 1633 
Q 3022 1394 3022 966 
Q 3022 478 2636 193 
Q 2250 -91 1575 -91 
Q 1294 -91 989 -36 
Q 684 19 347 128 
L 347 722 
Q 666 556 975 473 
Q 1284 391 1588 391 
Q 1994 391 2212 530 
Q 2431 669 2431 922 
Q 2431 1156 2273 1281 
Q 2116 1406 1581 1522 
L 1381 1569 
Q 847 1681 609 1914 
Q 372 2147 372 2553 
Q 372 3047 722 3315 
Q 1072 3584 1716 3584 
Q 2034 3584 2315 3537 
Q 2597 3491 2834 3397 
z
" transform="scale(0.015625)"/>
       <path id="DejaVuSans-57" d="M 1172 4494 
L 1172 3500 
L 2356 3500 
L 2356 3053 
L 1172 3053 
L 1172 1153 
Q 1172 725 1289 603 
Q 1406 481 1766 481 
L 2356 481 
L 2356 0 
L 1766 0 
Q 1100 0 847 248 
Q 594 497 594 1153 
L 594 3053 
L 172 3053 
L 172 3500 
L 594 3500 
L 594 4494 
L 1172 4494 
z
" transform="scale(0.015625)"/>
       <path id="DejaVuSans-44" d="M 2194 1759 
Q 1497 1759 1228 1600 
Q 959 1441 959 1056 
Q 959 750 1161 570 
Q 1363 391 1709 391 
Q 2188 391 2477 730 
Q 2766 1069 2766 1631 
L 2766 1759 
L 2194 1759 
z
M 3341 1997 
L 3341 0 
L 2766 0 
L 2766 531 
Q 2569 213 2275 61 
Q 1981 -91 1556 -91 
Q 1019 -91 701 211 
Q 384 513 384 1019 
Q 384 1609 779 1909 
Q 1175 2209 1959 2209 
L 2766 2209 
L 2766 2266 
Q 2766 2663 2505 2880 
Q 2244 3097 1772 3097 
Q 1472 3097 1187 3025 
Q 903 2953 641 2809 
L 641 3341 
Q 956 3463 1253 3523 
Q 1550 3584 1831 3584 
Q 2591 3584 2966 3190 
Q 3341 2797 3341 1997 
z
" transform="scale(0.015625)"/>
       <path id="DejaVuSans-51" d="M 3513 2113 
L 3513 0 
L 2938 0 
L 2938 2094 
Q 2938 2591 2744 2837 
Q 2550 3084 2163 3084 
Q 1697 3084 1428 2787 
Q 1159 2491 1159 1978 
L 1159 0 
L 581 0 
L 581 3500 
L 1159 3500 
L 1159 2956 
Q 1366 3272 1645 3428 
Q 1925 3584 2291 3584 
Q 2894 3584 3203 3211 
Q 3513 2838 3513 2113 
z
" transform="scale(0.015625)"/>
      </defs>
      <use xlink:href="#DejaVuSans-46"/>
      <use xlink:href="#DejaVuSans-52" transform="translate(54.984375 0)"/>
      <use xlink:href="#DejaVuSans-47" transform="translate(116.171875 0)"/>
      <use xlink:href="#DejaVuSans-48" transform="translate(179.65625 0)"/>
      <use xlink:href="#DejaVuSans-3" transform="translate(241.1875 0)"/>
      <use xlink:href="#DejaVuSans-47" transform="translate(272.96875 0)"/>
      <use xlink:href="#DejaVuSans-4c" transform="translate(336.453125 0)"/>
      <use xlink:href="#DejaVuSans-56" transform="translate(364.234375 0)"/>
      <use xlink:href="#DejaVuSans-57" transform="translate(416.328125 0)"/>
      <use xlink:href="#DejaVuSans-44" transform="translate(455.53125 0)"/>
      <use xlink:href="#DejaVuSans-51" transform="translate(516.8125 0)"/>
      <use xlink:href="#DejaVuSans-46" transform="translate(580.1875 0)"/>
      <use xlink:href="#DejaVuSans-48" transform="translate(635.171875 0)"/>
      <use xlink:href="#DejaVuSans-3" transform="translate(696.703125 0)"/>
      <use xlink:href="#DejaVuSans-47" transform="translate(728.484375 0)"/>
     </g>
    </g>
   </g>
   <g id="matplotlib.axis_2">
    <g id="ytick_1">
     <g id="line2d_17">
      <path d="M 43.040703 240.613952 
L 491.400703 240.613952 
" clip-path="url(#p4747e88168)" style="fill: none; stroke: #b0b0b0; stroke-opacity: 0.3; stroke-width: 0.8; stroke-linecap: square"/>
     </g>
     <g id="line2d_18">
      <defs>
       <path id="m0717bd137d" d="M 0 0 
L -3.5 0 
" style="stroke: #000000; stroke-width: 0.8"/>
      </defs>
      <g>
       <use xlink:href="#m0717bd137d" x="43.040703" y="240.613952" style="stroke: #000000; stroke-width: 0.8"/>
      </g>
     </g>
     <g id="text_10">
      <!-- $\mathdefault{10^{4}}$ -->
      <g transform="translate(20.200703 244.798952) scale(0.09 -0.09)">
       <use xlink:href="#DejaVuSans-14" transform="translate(0 0.665625)"/>
       <use xlink:href="#DejaVuSans-13" transform="translate(63.623047 0.665625)"/>
       <use xlink:href="#DejaVuSans-17" transform="translate(128.203125 41.965625) scale(0.7)"/>
      </g>
     </g>
    </g>
    <g id="ytick_2">
     <g id="line2d_19">
      <path d="M 43.040703 170.516897 
L 491.400703 170.516897 
" clip-path="url(#p4747e88168)" style="fill: none; stroke: #b0b0b0; stroke-opacity: 0.3; stroke-width: 0.8; stroke-linecap: square"/>
     </g>
     <g id="line2d_20">
      <g>
       <use xlink:href="#m0717bd137d" x="43.040703" y="170.516897" style="stroke: #000000; stroke-width: 0.8"/>
      </g>
     </g>
     <g id="text_11">
      <!-- $\mathdefault{10^{5}}$ -->
      <g transform="translate(20.200703 174.701897) scale(0.09 -0.09)">
       <defs>
        <path id="DejaVuSans-18" d="M 691 4666 
L 3169 4666 
L 3169 4134 
L 1269 4134 
L 1269 2991 
Q 1406 3038 1543 3061 
Q 1681 3084 1819 3084 
Q 2600 3084 3056 2656 
Q 3513 2228 3513 1497 
Q 3513 744 3044 326 
Q 2575 -91 1722 -91 
Q 1428 -91 1123 -41 
Q 819 9 494 109 
L 494 744 
Q 775 591 1075 516 
Q 1375 441 1709 441 
Q 2250 441 2565 725 
Q 2881 1009 2881 1497 
Q 2881 1984 2565 2268 
Q 2250 2553 1709 2553 
Q 1456 2553 1204 2497 
Q 953 2441 691 2322 
L 691 4666 
z
" transform="scale(0.015625)"/>
       </defs>
       <use xlink:href="#DejaVuSans-14" transform="translate(0 0.665625)"/>
       <use xlink:href="#DejaVuSans-13" transform="translate(63.623047 0.665625)"/>
       <use xlink:href="#DejaVuSans-18" transform="translate(128.203125 41.965625) scale(0.7)"/>
      </g>
     </g>
    </g>
    <g id="ytick_3">
     <g id="line2d_21">
      <path d="M 43.040703 100.419841 
L 491.400703 100.419841 
" clip-path="url(#p4747e88168)" style="fill: none; stroke: #b0b0b0; stroke-opacity: 0.3; stroke-width: 0.8; stroke-linecap: square"/>
     </g>
     <g id="line2d_22">
      <g>
       <use xlink:href="#m0717bd137d" x="43.040703" y="100.419841" style="stroke: #000000; stroke-width: 0.8"/>
      </g>
     </g>
     <g id="text_12">
      <!-- $\mathdefault{10^{6}}$ -->
      <g transform="translate(20.200703 104.649841) scale(0.09 -0.09)">
       <use xlink:href="#DejaVuSans-14" transform="translate(0 0.746875)"/>
       <use xlink:href="#DejaVuSans-13" transform="translate(63.623047 0.746875)"/>
       <use xlink:href="#DejaVuSans-19" transform="translate(128.203125 42.046875) scale(0.7)"/>
      </g>
     </g>
    </g>
    <g id="ytick_4">
     <g id="line2d_23">
      <path d="M 43.040703 30.322786 
L 491.400703 30.322786 
" clip-path="url(#p4747e88168)" style="fill: none; stroke: #b0b0b0; stroke-opacity: 0.3; stroke-width: 0.8; stroke-linecap: square"/>
     </g>
     <g id="line2d_24">
      <g>
       <use xlink:href="#m0717bd137d" x="43.040703" y="30.322786" style="stroke: #000000; stroke-width: 0.8"/>
      </g>
     </g>
     <g id="text_13">
      <!-- $\mathdefault{10^{7}}$ -->
      <g transform="translate(20.200703 34.507786) scale(0.09 -0.09)">
       <defs>
        <path id="DejaVuSans-1a" d="M 525 4666 
L 3525 4666 
L 3525 4397 
L 1831 0 
L 1172 0 
L 2766 4134 
L 525 4134 
L 525 4666 
z
" transform="scale(0.015625)"/>
       </defs>
       <use xlink:href="#DejaVuSans-14" transform="translate(0 0.665625)"/>
       <use xlink:href="#DejaVuSans-13" transform="translate(63.623047 0.665625)"/>
       <use xlink:href="#DejaVuSans-1a" transform="translate(128.203125 41.965625) scale(0.7)"/>
      </g>
     </g>
    </g>
    <g id="ytick_5">
     <g id="line2d_25">
      <defs>
       <path id="m33020c66eb" d="M 0 0 
L -2 0 
" style="stroke: #000000; stroke-width: 0.6"/>
      </defs>
      <g>
       <use xlink:href="#m33020c66eb" x="43.040703" y="261.715268" style="stroke: #000000; stroke-width: 0.6"/>
      </g>
     </g>
    </g>
    <g id="ytick_6">
     <g id="line2d_26">
      <g>
       <use xlink:href="#m33020c66eb" x="43.040703" y="256.164896" style="stroke: #000000; stroke-width: 0.6"/>
      </g>
     </g>
    </g>
    <g id="ytick_7">
     <g id="line2d_27">
      <g>
       <use xlink:href="#m33020c66eb" x="43.040703" y="251.472123" style="stroke: #000000; stroke-width: 0.6"/>
      </g>
     </g>
    </g>
    <g id="ytick_8">
     <g id="line2d_28">
      <g>
       <use xlink:href="#m33020c66eb" x="43.040703" y="247.407058" style="stroke: #000000; stroke-width: 0.6"/>
      </g>
     </g>
    </g>
    <g id="ytick_9">
     <g id="line2d_29">
      <g>
       <use xlink:href="#m33020c66eb" x="43.040703" y="243.821417" style="stroke: #000000; stroke-width: 0.6"/>
      </g>
     </g>
    </g>
    <g id="ytick_10">
     <g id="line2d_30">
      <g>
       <use xlink:href="#m33020c66eb" x="43.040703" y="219.512636" style="stroke: #000000; stroke-width: 0.6"/>
      </g>
     </g>
    </g>
    <g id="ytick_11">
     <g id="line2d_31">
      <g>
       <use xlink:href="#m33020c66eb" x="43.040703" y="207.169157" style="stroke: #000000; stroke-width: 0.6"/>
      </g>
     </g>
    </g>
    <g id="ytick_12">
     <g id="line2d_32">
      <g>
       <use xlink:href="#m33020c66eb" x="43.040703" y="198.411319" style="stroke: #000000; stroke-width: 0.6"/>
      </g>
     </g>
    </g>
    <g id="ytick_13">
     <g id="line2d_33">
      <g>
       <use xlink:href="#m33020c66eb" x="43.040703" y="191.618213" style="stroke: #000000; stroke-width: 0.6"/>
      </g>
     </g>
    </g>
    <g id="ytick_14">
     <g id="line2d_34">
      <g>
       <use xlink:href="#m33020c66eb" x="43.040703" y="186.067841" style="stroke: #000000; stroke-width: 0.6"/>
      </g>
     </g>
    </g>
    <g id="ytick_15">
     <g id="line2d_35">
      <g>
       <use xlink:href="#m33020c66eb" x="43.040703" y="181.375068" style="stroke: #000000; stroke-width: 0.6"/>
      </g>
     </g>
    </g>
    <g id="ytick_16">
     <g id="line2d_36">
      <g>
       <use xlink:href="#m33020c66eb" x="43.040703" y="177.310003" style="stroke: #000000; stroke-width: 0.6"/>
      </g>
     </g>
    </g>
    <g id="ytick_17">
     <g id="line2d_37">
      <g>
       <use xlink:href="#m33020c66eb" x="43.040703" y="173.724362" style="stroke: #000000; stroke-width: 0.6"/>
      </g>
     </g>
    </g>
    <g id="ytick_18">
     <g id="line2d_38">
      <g>
       <use xlink:href="#m33020c66eb" x="43.040703" y="149.41558" style="stroke: #000000; stroke-width: 0.6"/>
      </g>
     </g>
    </g>
    <g id="ytick_19">
     <g id="line2d_39">
      <g>
       <use xlink:href="#m33020c66eb" x="43.040703" y="137.072102" style="stroke: #000000; stroke-width: 0.6"/>
      </g>
     </g>
    </g>
    <g id="ytick_20">
     <g id="line2d_40">
      <g>
       <use xlink:href="#m33020c66eb" x="43.040703" y="128.314264" style="stroke: #000000; stroke-width: 0.6"/>
      </g>
     </g>
    </g>
    <g id="ytick_21">
     <g id="line2d_41">
      <g>
       <use xlink:href="#m33020c66eb" x="43.040703" y="121.521158" style="stroke: #000000; stroke-width: 0.6"/>
      </g>
     </g>
    </g>
    <g id="ytick_22">
     <g id="line2d_42">
      <g>
       <use xlink:href="#m33020c66eb" x="43.040703" y="115.970785" style="stroke: #000000; stroke-width: 0.6"/>
      </g>
     </g>
    </g>
    <g id="ytick_23">
     <g id="line2d_43">
      <g>
       <use xlink:href="#m33020c66eb" x="43.040703" y="111.278013" style="stroke: #000000; stroke-width: 0.6"/>
      </g>
     </g>
    </g>
    <g id="ytick_24">
     <g id="line2d_44">
      <g>
       <use xlink:href="#m33020c66eb" x="43.040703" y="107.212948" style="stroke: #000000; stroke-width: 0.6"/>
      </g>
     </g>
    </g>
    <g id="ytick_25">
     <g id="line2d_45">
      <g>
       <use xlink:href="#m33020c66eb" x="43.040703" y="103.627307" style="stroke: #000000; stroke-width: 0.6"/>
      </g>
     </g>
    </g>
    <g id="ytick_26">
     <g id="line2d_46">
      <g>
       <use xlink:href="#m33020c66eb" x="43.040703" y="79.318525" style="stroke: #000000; stroke-width: 0.6"/>
      </g>
     </g>
    </g>
    <g id="ytick_27">
     <g id="line2d_47">
      <g>
       <use xlink:href="#m33020c66eb" x="43.040703" y="66.975046" style="stroke: #000000; stroke-width: 0.6"/>
      </g>
     </g>
    </g>
    <g id="ytick_28">
     <g id="line2d_48">
      <g>
       <use xlink:href="#m33020c66eb" x="43.040703" y="58.217209" style="stroke: #000000; stroke-width: 0.6"/>
      </g>
     </g>
    </g>
    <g id="ytick_29">
     <g id="line2d_49">
      <g>
       <use xlink:href="#m33020c66eb" x="43.040703" y="51.424102" style="stroke: #000000; stroke-width: 0.6"/>
      </g>
     </g>
    </g>
    <g id="ytick_30">
     <g id="line2d_50">
      <g>
       <use xlink:href="#m33020c66eb" x="43.040703" y="45.87373" style="stroke: #000000; stroke-width: 0.6"/>
      </g>
     </g>
    </g>
    <g id="ytick_31">
     <g id="line2d_51">
      <g>
       <use xlink:href="#m33020c66eb" x="43.040703" y="41.180957" style="stroke: #000000; stroke-width: 0.6"/>
      </g>
     </g>
    </g>
    <g id="ytick_32">
     <g id="line2d_52">
      <g>
       <use xlink:href="#m33020c66eb" x="43.040703" y="37.115893" style="stroke: #000000; stroke-width: 0.6"/>
      </g>
     </g>
    </g>
    <g id="ytick_33">
     <g id="line2d_53">
      <g>
       <use xlink:href="#m33020c66eb" x="43.040703" y="33.530251" style="stroke: #000000; stroke-width: 0.6"/>
      </g>
     </g>
    </g>
    <g id="text_14">
     <!-- throughput (shots / s) -->
     <g transform="translate(14.038594 193.659828) rotate(-90) scale(0.09 -0.09)">
      <defs>
       <path id="DejaVuSans-4b" d="M 3513 2113 
L 3513 0 
L 2938 0 
L 2938 2094 
Q 2938 2591 2744 2837 
Q 2550 3084 2163 3084 
Q 1697 3084 1428 2787 
Q 1159 2491 1159 1978 
L 1159 0 
L 581 0 
L 581 4863 
L 1159 4863 
L 1159 2956 
Q 1366 3272 1645 3428 
Q 1925 3584 2291 3584 
Q 2894 3584 3203 3211 
Q 3513 2838 3513 2113 
z
" transform="scale(0.015625)"/>
       <path id="DejaVuSans-55" d="M 2631 2963 
Q 2534 3019 2420 3045 
Q 2306 3072 2169 3072 
Q 1681 3072 1420 2755 
Q 1159 2438 1159 1844 
L 1159 0 
L 581 0 
L 581 3500 
L 1159 3500 
L 1159 2956 
Q 1341 3275 1631 3429 
Q 1922 3584 2338 3584 
Q 2397 3584 2469 3576 
Q 2541 3569 2628 3553 
L 2631 2963 
z
" transform="scale(0.015625)"/>
       <path id="DejaVuSans-58" d="M 544 1381 
L 544 3500 
L 1119 3500 
L 1119 1403 
Q 1119 906 1312 657 
Q 1506 409 1894 409 
Q 2359 409 2629 706 
Q 2900 1003 2900 1516 
L 2900 3500 
L 3475 3500 
L 3475 0 
L 2900 0 
L 2900 538 
Q 2691 219 2414 64 
Q 2138 -91 1772 -91 
Q 1169 -91 856 284 
Q 544 659 544 1381 
z
M 1991 3584 
L 1991 3584 
z
" transform="scale(0.015625)"/>
       <path id="DejaVuSans-4a" d="M 2906 1791 
Q 2906 2416 2648 2759 
Q 2391 3103 1925 3103 
Q 1463 3103 1205 2759 
Q 947 2416 947 1791 
Q 947 1169 1205 825 
Q 1463 481 1925 481 
Q 2391 481 2648 825 
Q 2906 1169 2906 1791 
z
M 3481 434 
Q 3481 -459 3084 -895 
Q 2688 -1331 1869 -1331 
Q 1566 -1331 1297 -1286 
Q 1028 -1241 775 -1147 
L 775 -588 
Q 1028 -725 1275 -790 
Q 1522 -856 1778 -856 
Q 2344 -856 2625 -561 
Q 2906 -266 2906 331 
L 2906 616 
Q 2728 306 2450 153 
Q 2172 0 1784 0 
Q 1141 0 747 490 
Q 353 981 353 1791 
Q 353 2603 747 3093 
Q 1141 3584 1784 3584 
Q 2172 3584 2450 3431 
Q 2728 3278 2906 2969 
L 2906 3500 
L 3481 3500 
L 3481 434 
z
" transform="scale(0.015625)"/>
       <path id="DejaVuSans-53" d="M 1159 525 
L 1159 -1331 
L 581 -1331 
L 581 3500 
L 1159 3500 
L 1159 2969 
Q 1341 3281 1617 3432 
Q 1894 3584 2278 3584 
Q 2916 3584 3314 3078 
Q 3713 2572 3713 1747 
Q 3713 922 3314 415 
Q 2916 -91 2278 -91 
Q 1894 -91 1617 61 
Q 1341 213 1159 525 
z
M 3116 1747 
Q 3116 2381 2855 2742 
Q 2594 3103 2138 3103 
Q 1681 3103 1420 2742 
Q 1159 2381 1159 1747 
Q 1159 1113 1420 752 
Q 1681 391 2138 391 
Q 2594 391 2855 752 
Q 3116 1113 3116 1747 
z
" transform="scale(0.015625)"/>
       <path id="DejaVuSans-b" d="M 1984 4856 
Q 1566 4138 1362 3434 
Q 1159 2731 1159 2009 
Q 1159 1288 1364 580 
Q 1569 -128 1984 -844 
L 1484 -844 
Q 1016 -109 783 600 
Q 550 1309 550 2009 
Q 550 2706 781 3412 
Q 1013 4119 1484 4856 
L 1984 4856 
z
" transform="scale(0.015625)"/>
       <path id="DejaVuSans-12" d="M 1625 4666 
L 2156 4666 
L 531 -594 
L 0 -594 
L 1625 4666 
z
" transform="scale(0.015625)"/>
       <path id="DejaVuSans-c" d="M 513 4856 
L 1013 4856 
Q 1481 4119 1714 3412 
Q 1947 2706 1947 2009 
Q 1947 1309 1714 600 
Q 1481 -109 1013 -844 
L 513 -844 
Q 928 -128 1133 580 
Q 1338 1288 1338 2009 
Q 1338 2731 1133 3434 
Q 928 4138 513 4856 
z
" transform="scale(0.015625)"/>
      </defs>
      <use xlink:href="#DejaVuSans-57"/>
      <use xlink:href="#DejaVuSans-4b" transform="translate(39.203125 0)"/>
      <use xlink:href="#DejaVuSans-55" transform="translate(102.578125 0)"/>
      <use xlink:href="#DejaVuSans-52" transform="translate(141.484375 0)"/>
      <use xlink:href="#DejaVuSans-58" transform="translate(202.671875 0)"/>
      <use xlink:href="#DejaVuSans-4a" transform="translate(266.046875 0)"/>
      <use xlink:href="#DejaVuSans-4b" transform="translate(329.53125 0)"/>
      <use xlink:href="#DejaVuSans-53" transform="translate(392.90625 0)"/>
      <use xlink:href="#DejaVuSans-58" transform="translate(456.390625 0)"/>
      <use xlink:href="#DejaVuSans-57" transform="translate(519.765625 0)"/>
      <use xlink:href="#DejaVuSans-3" transform="translate(558.96875 0)"/>
      <use xlink:href="#DejaVuSans-b" transform="translate(590.75 0)"/>
      <use xlink:href="#DejaVuSans-56" transform="translate(629.765625 0)"/>
      <use xlink:href="#DejaVuSans-4b" transform="translate(681.859375 0)"/>
      <use xlink:href="#DejaVuSans-52" transform="translate(745.234375 0)"/>
      <use xlink:href="#DejaVuSans-57" transform="translate(806.421875 0)"/>
      <use xlink:href="#DejaVuSans-56" transform="translate(845.625 0)"/>
      <use xlink:href="#DejaVuSans-3" transform="translate(897.71875 0)"/>
      <use xlink:href="#DejaVuSans-12" transform="translate(929.5 0)"/>
      <use xlink:href="#DejaVuSans-3" transform="translate(963.1875 0)"/>
      <use xlink:href="#DejaVuSans-56" transform="translate(994.96875 0)"/>
      <use xlink:href="#DejaVuSans-c" transform="translate(1047.0625 0)"/>
     </g>
    </g>
   </g>
   <g id="line2d_54">
    <path d="M 63.420703 78.767145 
L 114.370703 86.347777 
L 165.320703 87.138263 
L 216.270703 96.648959 
L 267.220703 106.050502 
L 318.170703 123.976396 
L 369.120703 134.549617 
L 420.070703 129.863417 
L 471.020703 136.453542 
" clip-path="url(#p4747e88168)" style="fill: none; stroke: #9467bd; stroke-width: 1.5; stroke-linecap: square"/>
    <defs>
     <path id="m470978adc2" d="M -1.5 1.5 
L 1.5 1.5 
L 1.5 -1.5 
L -1.5 -1.5 
z
" style="stroke: #9467bd; stroke-linejoin: miter"/>
    </defs>
    <g clip-path="url(#p4747e88168)">
     <use xlink:href="#m470978adc2" x="63.420703" y="78.767145" style="fill: #9467bd; stroke: #9467bd; stroke-linejoin: miter"/>
     <use xlink:href="#m470978adc2" x="114.370703" y="86.347777" style="fill: #9467bd; stroke: #9467bd; stroke-linejoin: miter"/>
     <use xlink:href="#m470978adc2" x="165.320703" y="87.138263" style="fill: #9467bd; stroke: #9467bd; stroke-linejoin: miter"/>
     <use xlink:href="#m470978adc2" x="216.270703" y="96.648959" style="fill: #9467bd; stroke: #9467bd; stroke-linejoin: miter"/>
     <use xlink:href="#m470978adc2" x="267.220703" y="106.050502" style="fill: #9467bd; stroke: #9467bd; stroke-linejoin: miter"/>
     <use xlink:href="#m470978adc2" x="318.170703" y="123.976396" style="fill: #9467bd; stroke: #9467bd; stroke-linejoin: miter"/>
     <use xlink:href="#m470978adc2" x="369.120703" y="134.549617" style="fill: #9467bd; stroke: #9467bd; stroke-linejoin: miter"/>
     <use xlink:href="#m470978adc2" x="420.070703" y="129.863417" style="fill: #9467bd; stroke: #9467bd; stroke-linejoin: miter"/>
     <use xlink:href="#m470978adc2" x="471.020703" y="136.453542" style="fill: #9467bd; stroke: #9467bd; stroke-linejoin: miter"/>
    </g>
   </g>
   <g id="line2d_55">
    <path d="M 63.420703 50.156068 
L 114.370703 84.964692 
L 165.320703 110.136486 
L 216.270703 132.645401 
L 267.220703 155.363503 
L 318.170703 173.583417 
L 369.120703 183.685571 
L 420.070703 192.414057 
L 471.020703 201.585327 
" clip-path="url(#p4747e88168)" style="fill: none; stroke: #ff7f0e; stroke-width: 1.5; stroke-linecap: square"/>
    <defs>
     <path id="md0e5ea7206" d="M -1.5 1.5 
L 1.5 1.5 
L 1.5 -1.5 
L -1.5 -1.5 
z
" style="stroke: #ff7f0e; stroke-linejoin: miter"/>
    </defs>
    <g clip-path="url(#p4747e88168)">
     <use xlink:href="#md0e5ea7206" x="63.420703" y="50.156068" style="fill: #ff7f0e; stroke: #ff7f0e; stroke-linejoin: miter"/>
     <use xlink:href="#md0e5ea7206" x="114.370703" y="84.964692" style="fill: #ff7f0e; stroke: #ff7f0e; stroke-linejoin: miter"/>
     <use xlink:href="#md0e5ea7206" x="165.320703" y="110.136486" style="fill: #ff7f0e; stroke: #ff7f0e; stroke-linejoin: miter"/>
     <use xlink:href="#md0e5ea7206" x="216.270703" y="132.645401" style="fill: #ff7f0e; stroke: #ff7f0e; stroke-linejoin: miter"/>
     <use xlink:href="#md0e5ea7206" x="267.220703" y="155.363503" style="fill: #ff7f0e; stroke: #ff7f0e; stroke-linejoin: miter"/>
     <use xlink:href="#md0e5ea7206" x="318.170703" y="173.583417" style="fill: #ff7f0e; stroke: #ff7f0e; stroke-linejoin: miter"/>
     <use xlink:href="#md0e5ea7206" x="369.120703" y="183.685571" style="fill: #ff7f0e; stroke: #ff7f0e; stroke-linejoin: miter"/>
     <use xlink:href="#md0e5ea7206" x="420.070703" y="192.414057" style="fill: #ff7f0e; stroke: #ff7f0e; stroke-linejoin: miter"/>
     <use xlink:href="#md0e5ea7206" x="471.020703" y="201.585327" style="fill: #ff7f0e; stroke: #ff7f0e; stroke-linejoin: miter"/>
    </g>
   </g>
   <g id="line2d_56">
    <path d="M 63.420703 120.475976 
L 114.370703 130.278816 
L 165.320703 124.074259 
L 216.270703 132.373272 
L 267.220703 140.479628 
L 318.170703 154.202857 
L 369.120703 164.209434 
L 420.070703 175.109111 
L 471.020703 187.481763 
" clip-path="url(#p4747e88168)" style="fill: none; stroke: #8c564b; stroke-width: 1.5; stroke-linecap: square"/>
    <defs>
     <path id="mdde6874c20" d="M -1.5 1.5 
L 1.5 1.5 
L 1.5 -1.5 
L -1.5 -1.5 
z
" style="stroke: #8c564b; stroke-linejoin: miter"/>
    </defs>
    <g clip-path="url(#p4747e88168)">
     <use xlink:href="#mdde6874c20" x="63.420703" y="120.475976" style="fill: #8c564b; stroke: #8c564b; stroke-linejoin: miter"/>
     <use xlink:href="#mdde6874c20" x="114.370703" y="130.278816" style="fill: #8c564b; stroke: #8c564b; stroke-linejoin: miter"/>
     <use xlink:href="#mdde6874c20" x="165.320703" y="124.074259" style="fill: #8c564b; stroke: #8c564b; stroke-linejoin: miter"/>
     <use xlink:href="#mdde6874c20" x="216.270703" y="132.373272" style="fill: #8c564b; stroke: #8c564b; stroke-linejoin: miter"/>
     <use xlink:href="#mdde6874c20" x="267.220703" y="140.479628" style="fill: #8c564b; stroke: #8c564b; stroke-linejoin: miter"/>
     <use xlink:href="#mdde6874c20" x="318.170703" y="154.202857" style="fill: #8c564b; stroke: #8c564b; stroke-linejoin: miter"/>
     <use xlink:href="#mdde6874c20" x="369.120703" y="164.209434" style="fill: #8c564b; stroke: #8c564b; stroke-linejoin: miter"/>
     <use xlink:href="#mdde6874c20" x="420.070703" y="175.109111" style="fill: #8c564b; stroke: #8c564b; stroke-linejoin: miter"/>
     <use xlink:href="#mdde6874c20" x="471.020703" y="187.481763" style="fill: #8c564b; stroke: #8c564b; stroke-linejoin: miter"/>
    </g>
   </g>
   <g id="line2d_57">
    <path d="M 63.420703 32.622676 
L 114.370703 69.143168 
L 165.320703 81.818146 
L 216.270703 101.073086 
L 267.220703 116.016093 
L 318.170703 139.691024 
L 369.120703 148.557088 
L 420.070703 145.630153 
L 471.020703 156.262754 
" clip-path="url(#p4747e88168)" style="fill: none; stroke: #2ca02c; stroke-width: 1.5; stroke-linecap: square"/>
    <defs>
     <path id="m1f3ef77abb" d="M -1.5 1.5 
L 1.5 1.5 
L 1.5 -1.5 
L -1.5 -1.5 
z
" style="stroke: #2ca02c; stroke-linejoin: miter"/>
    </defs>
    <g clip-path="url(#p4747e88168)">
     <use xlink:href="#m1f3ef77abb" x="63.420703" y="32.622676" style="fill: #2ca02c; stroke: #2ca02c; stroke-linejoin: miter"/>
     <use xlink:href="#m1f3ef77abb" x="114.370703" y="69.143168" style="fill: #2ca02c; stroke: #2ca02c; stroke-linejoin: miter"/>
     <use xlink:href="#m1f3ef77abb" x="165.320703" y="81.818146" style="fill: #2ca02c; stroke: #2ca02c; stroke-linejoin: miter"/>
     <use xlink:href="#m1f3ef77abb" x="216.270703" y="101.073086" style="fill: #2ca02c; stroke: #2ca02c; stroke-linejoin: miter"/>
     <use xlink:href="#m1f3ef77abb" x="267.220703" y="116.016093" style="fill: #2ca02c; stroke: #2ca02c; stroke-linejoin: miter"/>
     <use xlink:href="#m1f3ef77abb" x="318.170703" y="139.691024" style="fill: #2ca02c; stroke: #2ca02c; stroke-linejoin: miter"/>
     <use xlink:href="#m1f3ef77abb" x="369.120703" y="148.557088" style="fill: #2ca02c; stroke: #2ca02c; stroke-linejoin: miter"/>
     <use xlink:href="#m1f3ef77abb" x="420.070703" y="145.630153" style="fill: #2ca02c; stroke: #2ca02c; stroke-linejoin: miter"/>
     <use xlink:href="#m1f3ef77abb" x="471.020703" y="156.262754" style="fill: #2ca02c; stroke: #2ca02c; stroke-linejoin: miter"/>
    </g>
   </g>
   <g id="line2d_58">
    <path d="M 63.420703 75.430521 
L 114.370703 77.158726 
L 165.320703 88.749572 
L 216.270703 92.482226 
L 267.220703 102.166168 
L 318.170703 111.845168 
L 369.120703 122.35836 
L 420.070703 133.682399 
L 471.020703 132.453122 
" clip-path="url(#p4747e88168)" style="fill: none; stroke: #1f77b4; stroke-width: 1.5; stroke-linecap: square"/>
    <defs>
     <path id="m6d6b098ba4" d="M -1.5 1.5 
L 1.5 1.5 
L 1.5 -1.5 
L -1.5 -1.5 
z
" style="stroke: #1f77b4; stroke-linejoin: miter"/>
    </defs>
    <g clip-path="url(#p4747e88168)">
     <use xlink:href="#m6d6b098ba4" x="63.420703" y="75.430521" style="fill: #1f77b4; stroke: #1f77b4; stroke-linejoin: miter"/>
     <use xlink:href="#m6d6b098ba4" x="114.370703" y="77.158726" style="fill: #1f77b4; stroke: #1f77b4; stroke-linejoin: miter"/>
     <use xlink:href="#m6d6b098ba4" x="165.320703" y="88.749572" style="fill: #1f77b4; stroke: #1f77b4; stroke-linejoin: miter"/>
     <use xlink:href="#m6d6b098ba4" x="216.270703" y="92.482226" style="fill: #1f77b4; stroke: #1f77b4; stroke-linejoin: miter"/>
     <use xlink:href="#m6d6b098ba4" x="267.220703" y="102.166168" style="fill: #1f77b4; stroke: #1f77b4; stroke-linejoin: miter"/>
     <use xlink:href="#m6d6b098ba4" x="318.170703" y="111.845168" style="fill: #1f77b4; stroke: #1f77b4; stroke-linejoin: miter"/>
     <use xlink:href="#m6d6b098ba4" x="369.120703" y="122.35836" style="fill: #1f77b4; stroke: #1f77b4; stroke-linejoin: miter"/>
     <use xlink:href="#m6d6b098ba4" x="420.070703" y="133.682399" style="fill: #1f77b4; stroke: #1f77b4; stroke-linejoin: miter"/>
     <use xlink:href="#m6d6b098ba4" x="471.020703" y="132.453122" style="fill: #1f77b4; stroke: #1f77b4; stroke-linejoin: miter"/>
    </g>
   </g>
   <g id="line2d_59">
    <path d="M 63.420703 63.699364 
L 114.370703 105.295486 
L 165.320703 122.582951 
L 216.270703 152.179665 
L 267.220703 159.595988 
L 318.170703 178.053965 
L 369.120703 180.249612 
L 420.070703 188.88997 
L 471.020703 194.543865 
" clip-path="url(#p4747e88168)" style="fill: none; stroke: #7f7f7f; stroke-width: 1.5; stroke-linecap: square"/>
    <defs>
     <path id="m3eb0afd123" d="M -1.5 1.5 
L 1.5 1.5 
L 1.5 -1.5 
L -1.5 -1.5 
z
" style="stroke: #7f7f7f; stroke-linejoin: miter"/>
    </defs>
    <g clip-path="url(#p4747e88168)">
     <use xlink:href="#m3eb0afd123" x="63.420703" y="63.699364" style="fill: #7f7f7f; stroke: #7f7f7f; stroke-linejoin: miter"/>
     <use xlink:href="#m3eb0afd123" x="114.370703" y="105.295486" style="fill: #7f7f7f; stroke: #7f7f7f; stroke-linejoin: miter"/>
     <use xlink:href="#m3eb0afd123" x="165.320703" y="122.582951" style="fill: #7f7f7f; stroke: #7f7f7f; stroke-linejoin: miter"/>
     <use xlink:href="#m3eb0afd123" x="216.270703" y="152.179665" style="fill: #7f7f7f; stroke: #7f7f7f; stroke-linejoin: miter"/>
     <use xlink:href="#m3eb0afd123" x="267.220703" y="159.595988" style="fill: #7f7f7f; stroke: #7f7f7f; stroke-linejoin: miter"/>
     <use xlink:href="#m3eb0afd123" x="318.170703" y="178.053965" style="fill: #7f7f7f; stroke: #7f7f7f; stroke-linejoin: miter"/>
     <use xlink:href="#m3eb0afd123" x="369.120703" y="180.249612" style="fill: #7f7f7f; stroke: #7f7f7f; stroke-linejoin: miter"/>
     <use xlink:href="#m3eb0afd123" x="420.070703" y="188.88997" style="fill: #7f7f7f; stroke: #7f7f7f; stroke-linejoin: miter"/>
     <use xlink:href="#m3eb0afd123" x="471.020703" y="194.543865" style="fill: #7f7f7f; stroke: #7f7f7f; stroke-linejoin: miter"/>
    </g>
   </g>
   <g id="line2d_60">
    <path d="M 63.420703 71.050867 
L 114.370703 114.052662 
L 165.320703 134.26991 
L 216.270703 166.562638 
L 267.220703 197.58378 
L 318.170703 226.273857 
L 369.120703 256.949949 
" clip-path="url(#p4747e88168)" style="fill: none; stroke: #d62728; stroke-width: 1.5; stroke-linecap: square"/>
    <defs>
     <path id="m639b7e4b24" d="M -1.5 1.5 
L 1.5 1.5 
L 1.5 -1.5 
L -1.5 -1.5 
z
" style="stroke: #d62728; stroke-linejoin: miter"/>
    </defs>
    <g clip-path="url(#p4747e88168)">
     <use xlink:href="#m639b7e4b24" x="63.420703" y="71.050867" style="fill: #d62728; stroke: #d62728; stroke-linejoin: miter"/>
     <use xlink:href="#m639b7e4b24" x="114.370703" y="114.052662" style="fill: #d62728; stroke: #d62728; stroke-linejoin: miter"/>
     <use xlink:href="#m639b7e4b24" x="165.320703" y="134.26991" style="fill: #d62728; stroke: #d62728; stroke-linejoin: miter"/>
     <use xlink:href="#m639b7e4b24" x="216.270703" y="166.562638" style="fill: #d62728; stroke: #d62728; stroke-linejoin: miter"/>
     <use xlink:href="#m639b7e4b24" x="267.220703" y="197.58378" style="fill: #d62728; stroke: #d62728; stroke-linejoin: miter"/>
     <use xlink:href="#m639b7e4b24" x="318.170703" y="226.273857" style="fill: #d62728; stroke: #d62728; stroke-linejoin: miter"/>
     <use xlink:href="#m639b7e4b24" x="369.120703" y="256.949949" style="fill: #d62728; stroke: #d62728; stroke-linejoin: miter"/>
    </g>
   </g>
   <g id="line2d_61">
    <path d="M 63.420703 73.340511 
L 114.370703 78.761719 
L 165.320703 87.418982 
L 216.270703 94.340387 
L 267.220703 101.424937 
L 318.170703 110.857469 
L 369.120703 120.984049 
L 420.070703 134.597621 
L 471.020703 132.824028 
" clip-path="url(#p4747e88168)" style="fill: none; stroke: #17becf; stroke-width: 1.5; stroke-linecap: square"/>
    <defs>
     <path id="me86355a97a" d="M -1.5 1.5 
L 1.5 1.5 
L 1.5 -1.5 
L -1.5 -1.5 
z
" style="stroke: #17becf; stroke-linejoin: miter"/>
    </defs>
    <g clip-path="url(#p4747e88168)">
     <use xlink:href="#me86355a97a" x="63.420703" y="73.340511" style="fill: #17becf; stroke: #17becf; stroke-linejoin: miter"/>
     <use xlink:href="#me86355a97a" x="114.370703" y="78.761719" style="fill: #17becf; stroke: #17becf; stroke-linejoin: miter"/>
     <use xlink:href="#me86355a97a" x="165.320703" y="87.418982" style="fill: #17becf; stroke: #17becf; stroke-linejoin: miter"/>
     <use xlink:href="#me86355a97a" x="216.270703" y="94.340387" style="fill: #17becf; stroke: #17becf; stroke-linejoin: miter"/>
     <use xlink:href="#me86355a97a" x="267.220703" y="101.424937" style="fill: #17becf; stroke: #17becf; stroke-linejoin: miter"/>
     <use xlink:href="#me86355a97a" x="318.170703" y="110.857469" style="fill: #17becf; stroke: #17becf; stroke-linejoin: miter"/>
     <use xlink:href="#me86355a97a" x="369.120703" y="120.984049" style="fill: #17becf; stroke: #17becf; stroke-linejoin: miter"/>
     <use xlink:href="#me86355a97a" x="420.070703" y="134.597621" style="fill: #17becf; stroke: #17becf; stroke-linejoin: miter"/>
     <use xlink:href="#me86355a97a" x="471.020703" y="132.824028" style="fill: #17becf; stroke: #17becf; stroke-linejoin: miter"/>
    </g>
   </g>
   <g id="patch_3">
    <path d="M 43.040703 268.166313 
L 43.040703 21.406313 
" style="fill: none; stroke: #000000; stroke-width: 0.8; stroke-linejoin: miter; stroke-linecap: square"/>
   </g>
   <g id="patch_4">
    <path d="M 491.400703 268.166313 
L 491.400703 21.406313 
" style="fill: none; stroke: #000000; stroke-width: 0.8; stroke-linejoin: miter; stroke-linecap: square"/>
   </g>
   <g id="patch_5">
    <path d="M 43.040703 268.166312 
L 491.400703 268.166312 
" style="fill: none; stroke: #000000; stroke-width: 0.8; stroke-linejoin: miter; stroke-linecap: square"/>
   </g>
   <g id="patch_6">
    <path d="M 43.040703 21.406312 
L 491.400703 21.406312 
" style="fill: none; stroke: #000000; stroke-width: 0.8; stroke-linejoin: miter; stroke-linecap: square"/>
   </g>
   <g id="text_15">
    <!-- Decoder throughput vs distance — 200,000 shots (code-capacity) -->
    <g transform="translate(89.223203 15.406313) scale(0.108 -0.108)">
     <defs>
      <path id="DejaVuSans-27" d="M 1259 4147 
L 1259 519 
L 2022 519 
Q 2988 519 3436 956 
Q 3884 1394 3884 2338 
Q 3884 3275 3436 3711 
Q 2988 4147 2022 4147 
L 1259 4147 
z
M 628 4666 
L 1925 4666 
Q 3281 4666 3915 4102 
Q 4550 3538 4550 2338 
Q 4550 1131 3912 565 
Q 3275 0 1925 0 
L 628 0 
L 628 4666 
z
" transform="scale(0.015625)"/>
      <path id="DejaVuSans-59" d="M 191 3500 
L 800 3500 
L 1894 563 
L 2988 3500 
L 3597 3500 
L 2284 0 
L 1503 0 
L 191 3500 
z
" transform="scale(0.015625)"/>
      <path id="DejaVuSans-af6" d="M 313 1978 
L 6088 1978 
L 6088 1528 
L 313 1528 
L 313 1978 
z
" transform="scale(0.015625)"/>
      <path id="DejaVuSans-f" d="M 750 794 
L 1409 794 
L 1409 256 
L 897 -744 
L 494 -744 
L 750 256 
L 750 794 
z
" transform="scale(0.015625)"/>
      <path id="DejaVuSans-10" d="M 313 2009 
L 1997 2009 
L 1997 1497 
L 313 1497 
L 313 2009 
z
" transform="scale(0.015625)"/>
      <path id="DejaVuSans-5c" d="M 2059 -325 
Q 1816 -950 1584 -1140 
Q 1353 -1331 966 -1331 
L 506 -1331 
L 506 -850 
L 844 -850 
Q 1081 -850 1212 -737 
Q 1344 -625 1503 -206 
L 1606 56 
L 191 3500 
L 800 3500 
L 1894 763 
L 2988 3500 
L 3597 3500 
L 2059 -325 
z
" transform="scale(0.015625)"/>
     </defs>
     <use xlink:href="#DejaVuSans-27"/>
     <use xlink:href="#DejaVuSans-48" transform="translate(77 0)"/>
     <use xlink:href="#DejaVuSans-46" transform="translate(138.53125 0)"/>
     <use xlink:href="#DejaVuSans-52" transform="translate(193.515625 0)"/>
     <use xlink:href="#DejaVuSans-47" transform="translate(254.703125 0)"/>
     <use xlink:href="#DejaVuSans-48" transform="translate(318.1875 0)"/>
     <use xlink:href="#DejaVuSans-55" transform="translate(379.71875 0)"/>
     <use xlink:href="#DejaVuSans-3" transform="translate(420.828125 0)"/>
     <use xlink:href="#DejaVuSans-57" transform="translate(452.609375 0)"/>
     <use xlink:href="#DejaVuSans-4b" transform="translate(491.8125 0)"/>
     <use xlink:href="#DejaVuSans-55" transform="translate(555.1875 0)"/>
     <use xlink:href="#DejaVuSans-52" transform="translate(594.09375 0)"/>
     <use xlink:href="#DejaVuSans-58" transform="translate(655.28125 0)"/>
     <use xlink:href="#DejaVuSans-4a" transform="translate(718.65625 0)"/>
     <use xlink:href="#DejaVuSans-4b" transform="translate(782.140625 0)"/>
     <use xlink:href="#DejaVuSans-53" transform="translate(845.515625 0)"/>
     <use xlink:href="#DejaVuSans-58" transform="translate(909 0)"/>
     <use xlink:href="#DejaVuSans-57" transform="translate(972.375 0)"/>
     <use xlink:href="#DejaVuSans-3" transform="translate(1011.578125 0)"/>
     <use xlink:href="#DejaVuSans-59" transform="translate(1043.359375 0)"/>
     <use xlink:href="#DejaVuSans-56" transform="translate(1102.546875 0)"/>
     <use xlink:href="#DejaVuSans-3" transform="translate(1154.640625 0)"/>
     <use xlink:href="#DejaVuSans-47" transform="translate(1186.421875 0)"/>
     <use xlink:href="#DejaVuSans-4c" transform="translate(1249.90625 0)"/>
     <use xlink:href="#DejaVuSans-56" transform="translate(1277.6875 0)"/>
     <use xlink:href="#DejaVuSans-57" transform="translate(1329.78125 0)"/>
     <use xlink:href="#DejaVuSans-44" transform="translate(1368.984375 0)"/>
     <use xlink:href="#DejaVuSans-51" transform="translate(1430.265625 0)"/>
     <use xlink:href="#DejaVuSans-46" transform="translate(1493.640625 0)"/>
     <use xlink:href="#DejaVuSans-48" transform="translate(1548.625 0)"/>
     <use xlink:href="#DejaVuSans-3" transform="translate(1610.15625 0)"/>
     <use xlink:href="#DejaVuSans-af6" transform="translate(1641.9375 0)"/>
     <use xlink:href="#DejaVuSans-3" transform="translate(1741.9375 0)"/>
     <use xlink:href="#DejaVuSans-15" transform="translate(1773.71875 0)"/>
     <use xlink:href="#DejaVuSans-13" transform="translate(1837.34375 0)"/>
     <use xlink:href="#DejaVuSans-13" transform="translate(1900.96875 0)"/>
     <use xlink:href="#DejaVuSans-f" transform="translate(1964.59375 0)"/>
     <use xlink:href="#DejaVuSans-13" transform="translate(1996.375 0)"/>
     <use xlink:href="#DejaVuSans-13" transform="translate(2060 0)"/>
     <use xlink:href="#DejaVuSans-13" transform="translate(2123.625 0)"/>
     <use xlink:href="#DejaVuSans-3" transform="translate(2187.25 0)"/>
     <use xlink:href="#DejaVuSans-56" transform="translate(2219.03125 0)"/>
     <use xlink:href="#DejaVuSans-4b" transform="translate(2271.125 0)"/>
     <use xlink:href="#DejaVuSans-52" transform="translate(2334.5 0)"/>
     <use xlink:href="#DejaVuSans-57" transform="translate(2395.6875 0)"/>
     <use xlink:href="#DejaVuSans-56" transform="translate(2434.890625 0)"/>
     <use xlink:href="#DejaVuSans-3" transform="translate(2486.984375 0)"/>
     <use xlink:href="#DejaVuSans-b" transform="translate(2518.765625 0)"/>
     <use xlink:href="#DejaVuSans-46" transform="translate(2557.78125 0)"/>
     <use xlink:href="#DejaVuSans-52" transform="translate(2612.765625 0)"/>
     <use xlink:href="#DejaVuSans-47" transform="translate(2673.953125 0)"/>
     <use xlink:href="#DejaVuSans-48" transform="translate(2737.4375 0)"/>
     <use xlink:href="#DejaVuSans-10" transform="translate(2798.96875 0)"/>
     <use xlink:href="#DejaVuSans-46" transform="translate(2835.046875 0)"/>
     <use xlink:href="#DejaVuSans-44" transform="translate(2890.03125 0)"/>
     <use xlink:href="#DejaVuSans-53" transform="translate(2951.3125 0)"/>
     <use xlink:href="#DejaVuSans-44" transform="translate(3014.796875 0)"/>
     <use xlink:href="#DejaVuSans-46" transform="translate(3076.078125 0)"/>
     <use xlink:href="#DejaVuSans-4c" transform="translate(3131.0625 0)"/>
     <use xlink:href="#DejaVuSans-57" transform="translate(3158.84375 0)"/>
     <use xlink:href="#DejaVuSans-5c" transform="translate(3198.046875 0)"/>
     <use xlink:href="#DejaVuSans-c" transform="translate(3257.234375 0)"/>
    </g>
   </g>
   <g id="legend_1">
    <g id="patch_7">
     <path d="M 311.184609 69.0085 
L 486.500703 69.0085 
Q 487.900703 69.0085 487.900703 67.6085 
L 487.900703 26.306312 
Q 487.900703 24.906312 486.500703 24.906312 
L 311.184609 24.906312 
Q 309.784609 24.906312 309.784609 26.306312 
L 309.784609 67.6085 
Q 309.784609 69.0085 311.184609 69.0085 
z
" style="fill: #ffffff; opacity: 0.8; stroke: #cccccc; stroke-linejoin: miter"/>
    </g>
    <g id="line2d_62">
     <path d="M 312.584609 30.575219 
L 319.584609 30.575219 
L 326.584609 30.575219 
" style="fill: none; stroke: #9467bd; stroke-width: 1.5; stroke-linecap: square"/>
     <g>
      <use xlink:href="#m470978adc2" x="319.584609" y="30.575219" style="fill: #9467bd; stroke: #9467bd; stroke-linejoin: miter"/>
     </g>
    </g>
    <g id="text_16">
     <!-- BatchDecoder -->
     <g transform="translate(332.184609 33.025219) scale(0.07 -0.07)">
      <defs>
       <path id="DejaVuSans-25" d="M 1259 2228 
L 1259 519 
L 2272 519 
Q 2781 519 3026 730 
Q 3272 941 3272 1375 
Q 3272 1813 3026 2020 
Q 2781 2228 2272 2228 
L 1259 2228 
z
M 1259 4147 
L 1259 2741 
L 2194 2741 
Q 2656 2741 2882 2914 
Q 3109 3088 3109 3444 
Q 3109 3797 2882 3972 
Q 2656 4147 2194 4147 
L 1259 4147 
z
M 628 4666 
L 2241 4666 
Q 2963 4666 3353 4366 
Q 3744 4066 3744 3513 
Q 3744 3084 3544 2831 
Q 3344 2578 2956 2516 
Q 3422 2416 3680 2098 
Q 3938 1781 3938 1306 
Q 3938 681 3513 340 
Q 3088 0 2303 0 
L 628 0 
L 628 4666 
z
" transform="scale(0.015625)"/>
      </defs>
      <use xlink:href="#DejaVuSans-25"/>
      <use xlink:href="#DejaVuSans-44" transform="translate(68.609375 0)"/>
      <use xlink:href="#DejaVuSans-57" transform="translate(129.890625 0)"/>
      <use xlink:href="#DejaVuSans-46" transform="translate(169.09375 0)"/>
      <use xlink:href="#DejaVuSans-4b" transform="translate(224.078125 0)"/>
      <use xlink:href="#DejaVuSans-27" transform="translate(287.453125 0)"/>
      <use xlink:href="#DejaVuSans-48" transform="translate(364.453125 0)"/>
      <use xlink:href="#DejaVuSans-46" transform="translate(425.984375 0)"/>
      <use xlink:href="#DejaVuSans-52" transform="translate(480.96875 0)"/>
      <use xlink:href="#DejaVuSans-47" transform="translate(542.15625 0)"/>
      <use xlink:href="#DejaVuSans-48" transform="translate(605.640625 0)"/>
      <use xlink:href="#DejaVuSans-55" transform="translate(667.171875 0)"/>
     </g>
    </g>
    <g id="line2d_63">
     <path d="M 312.584609 41.075766 
L 319.584609 41.075766 
L 326.584609 41.075766 
" style="fill: none; stroke: #ff7f0e; stroke-width: 1.5; stroke-linecap: square"/>
     <g>
      <use xlink:href="#md0e5ea7206" x="319.584609" y="41.075766" style="fill: #ff7f0e; stroke: #ff7f0e; stroke-linejoin: miter"/>
     </g>
    </g>
    <g id="text_17">
     <!-- Blossom -->
     <g transform="translate(332.184609 43.525766) scale(0.07 -0.07)">
      <defs>
       <path id="DejaVuSans-4f" d="M 603 4863 
L 1178 4863 
L 1178 0 
L 603 0 
L 603 4863 
z
" transform="scale(0.015625)"/>
       <path id="DejaVuSans-50" d="M 3328 2828 
Q 3544 3216 3844 3400 
Q 4144 3584 4550 3584 
Q 5097 3584 5394 3201 
Q 5691 2819 5691 2113 
L 5691 0 
L 5113 0 
L 5113 2094 
Q 5113 2597 4934 2840 
Q 4756 3084 4391 3084 
Q 3944 3084 3684 2787 
Q 3425 2491 3425 1978 
L 3425 0 
L 2847 0 
L 2847 2094 
Q 2847 2600 2669 2842 
Q 2491 3084 2119 3084 
Q 1678 3084 1418 2786 
Q 1159 2488 1159 1978 
L 1159 0 
L 581 0 
L 581 3500 
L 1159 3500 
L 1159 2956 
Q 1356 3278 1631 3431 
Q 1906 3584 2284 3584 
Q 2666 3584 2933 3390 
Q 3200 3197 3328 2828 
z
" transform="scale(0.015625)"/>
      </defs>
      <use xlink:href="#DejaVuSans-25"/>
      <use xlink:href="#DejaVuSans-4f" transform="translate(68.609375 0)"/>
      <use xlink:href="#DejaVuSans-52" transform="translate(96.390625 0)"/>
      <use xlink:href="#DejaVuSans-56" transform="translate(157.578125 0)"/>
      <use xlink:href="#DejaVuSans-56" transform="translate(209.671875 0)"/>
      <use xlink:href="#DejaVuSans-52" transform="translate(261.765625 0)"/>
      <use xlink:href="#DejaVuSans-50" transform="translate(322.953125 0)"/>
     </g>
    </g>
    <g id="line2d_64">
     <path d="M 312.584609 51.576312 
L 319.584609 51.576312 
L 326.584609 51.576312 
" style="fill: none; stroke: #8c564b; stroke-width: 1.5; stroke-linecap: square"/>
     <g>
      <use xlink:href="#mdde6874c20" x="319.584609" y="51.576312" style="fill: #8c564b; stroke: #8c564b; stroke-linejoin: miter"/>
     </g>
    </g>
    <g id="text_18">
     <!-- CPUBatchDecoder -->
     <g transform="translate(332.184609 54.026312) scale(0.07 -0.07)">
      <defs>
       <path id="DejaVuSans-26" d="M 4122 4306 
L 4122 3641 
Q 3803 3938 3442 4084 
Q 3081 4231 2675 4231 
Q 1875 4231 1450 3742 
Q 1025 3253 1025 2328 
Q 1025 1406 1450 917 
Q 1875 428 2675 428 
Q 3081 428 3442 575 
Q 3803 722 4122 1019 
L 4122 359 
Q 3791 134 3420 21 
Q 3050 -91 2638 -91 
Q 1578 -91 968 557 
Q 359 1206 359 2328 
Q 359 3453 968 4101 
Q 1578 4750 2638 4750 
Q 3056 4750 3426 4639 
Q 3797 4528 4122 4306 
z
" transform="scale(0.015625)"/>
       <path id="DejaVuSans-33" d="M 1259 4147 
L 1259 2394 
L 2053 2394 
Q 2494 2394 2734 2622 
Q 2975 2850 2975 3272 
Q 2975 3691 2734 3919 
Q 2494 4147 2053 4147 
L 1259 4147 
z
M 628 4666 
L 2053 4666 
Q 2838 4666 3239 4311 
Q 3641 3956 3641 3272 
Q 3641 2581 3239 2228 
Q 2838 1875 2053 1875 
L 1259 1875 
L 1259 0 
L 628 0 
L 628 4666 
z
" transform="scale(0.015625)"/>
       <path id="DejaVuSans-38" d="M 556 4666 
L 1191 4666 
L 1191 1831 
Q 1191 1081 1462 751 
Q 1734 422 2344 422 
Q 2950 422 3222 751 
Q 3494 1081 3494 1831 
L 3494 4666 
L 4128 4666 
L 4128 1753 
Q 4128 841 3676 375 
Q 3225 -91 2344 -91 
Q 1459 -91 1007 375 
Q 556 841 556 1753 
L 556 4666 
z
" transform="scale(0.015625)"/>
      </defs>
      <use xlink:href="#DejaVuSans-26"/>
      <use xlink:href="#DejaVuSans-33" transform="translate(69.828125 0)"/>
      <use xlink:href="#DejaVuSans-38" transform="translate(130.125 0)"/>
      <use xlink:href="#DejaVuSans-25" transform="translate(203.3125 0)"/>
      <use xlink:href="#DejaVuSans-44" transform="translate(271.921875 0)"/>
      <use xlink:href="#DejaVuSans-57" transform="translate(333.203125 0)"/>
      <use xlink:href="#DejaVuSans-46" transform="translate(372.40625 0)"/>
      <use xlink:href="#DejaVuSans-4b" transform="translate(427.390625 0)"/>
      <use xlink:href="#DejaVuSans-27" transform="translate(490.765625 0)"/>
      <use xlink:href="#DejaVuSans-48" transform="translate(567.765625 0)"/>
      <use xlink:href="#DejaVuSans-46" transform="translate(629.296875 0)"/>
      <use xlink:href="#DejaVuSans-52" transform="translate(684.28125 0)"/>
      <use xlink:href="#DejaVuSans-47" transform="translate(745.46875 0)"/>
      <use xlink:href="#DejaVuSans-48" transform="translate(808.953125 0)"/>
      <use xlink:href="#DejaVuSans-55" transform="translate(870.484375 0)"/>
     </g>
    </g>
    <g id="line2d_65">
     <path d="M 312.584609 62.076859 
L 319.584609 62.076859 
L 326.584609 62.076859 
" style="fill: none; stroke: #2ca02c; stroke-width: 1.5; stroke-linecap: square"/>
     <g>
      <use xlink:href="#m1f3ef77abb" x="319.584609" y="62.076859" style="fill: #2ca02c; stroke: #2ca02c; stroke-linejoin: miter"/>
     </g>
    </g>
    <g id="text_19">
     <!-- CUDABatch(GPU) -->
     <g transform="translate(332.184609 64.526859) scale(0.07 -0.07)">
      <defs>
       <path id="DejaVuSans-24" d="M 2188 4044 
L 1331 1722 
L 3047 1722 
L 2188 4044 
z
M 1831 4666 
L 2547 4666 
L 4325 0 
L 3669 0 
L 3244 1197 
L 1141 1197 
L 716 0 
L 50 0 
L 1831 4666 
z
" transform="scale(0.015625)"/>
       <path id="DejaVuSans-2a" d="M 3809 666 
L 3809 1919 
L 2778 1919 
L 2778 2438 
L 4434 2438 
L 4434 434 
Q 4069 175 3628 42 
Q 3188 -91 2688 -91 
Q 1594 -91 976 548 
Q 359 1188 359 2328 
Q 359 3472 976 4111 
Q 1594 4750 2688 4750 
Q 3144 4750 3555 4637 
Q 3966 4525 4313 4306 
L 4313 3634 
Q 3963 3931 3569 4081 
Q 3175 4231 2741 4231 
Q 1884 4231 1454 3753 
Q 1025 3275 1025 2328 
Q 1025 1384 1454 906 
Q 1884 428 2741 428 
Q 3075 428 3337 486 
Q 3600 544 3809 666 
z
" transform="scale(0.015625)"/>
      </defs>
      <use xlink:href="#DejaVuSans-26"/>
      <use xlink:href="#DejaVuSans-38" transform="translate(69.828125 0)"/>
      <use xlink:href="#DejaVuSans-27" transform="translate(143.015625 0)"/>
      <use xlink:href="#DejaVuSans-24" transform="translate(218.265625 0)"/>
      <use xlink:href="#DejaVuSans-25" transform="translate(286.671875 0)"/>
      <use xlink:href="#DejaVuSans-44" transform="translate(355.28125 0)"/>
      <use xlink:href="#DejaVuSans-57" transform="translate(416.5625 0)"/>
      <use xlink:href="#DejaVuSans-46" transform="translate(455.765625 0)"/>
      <use xlink:href="#DejaVuSans-4b" transform="translate(510.75 0)"/>
      <use xlink:href="#DejaVuSans-b" transform="translate(574.125 0)"/>
      <use xlink:href="#DejaVuSans-2a" transform="translate(613.140625 0)"/>
      <use xlink:href="#DejaVuSans-33" transform="translate(690.625 0)"/>
      <use xlink:href="#DejaVuSans-38" transform="translate(750.921875 0)"/>
      <use xlink:href="#DejaVuSans-c" transform="translate(824.109375 0)"/>
     </g>
    </g>
    <g id="line2d_66">
     <path d="M 409.996172 30.575219 
L 416.996172 30.575219 
L 423.996172 30.575219 
" style="fill: none; stroke: #1f77b4; stroke-width: 1.5; stroke-linecap: square"/>
     <g>
      <use xlink:href="#m6d6b098ba4" x="416.996172" y="30.575219" style="fill: #1f77b4; stroke: #1f77b4; stroke-linejoin: miter"/>
     </g>
    </g>
    <g id="text_20">
     <!-- FastUnionFind -->
     <g transform="translate(429.596172 33.025219) scale(0.07 -0.07)">
      <defs>
       <path id="DejaVuSans-29" d="M 628 4666 
L 3309 4666 
L 3309 4134 
L 1259 4134 
L 1259 2759 
L 3109 2759 
L 3109 2228 
L 1259 2228 
L 1259 0 
L 628 0 
L 628 4666 
z
" transform="scale(0.015625)"/>
      </defs>
      <use xlink:href="#DejaVuSans-29"/>
      <use xlink:href="#DejaVuSans-44" transform="translate(48.34375 0)"/>
      <use xlink:href="#DejaVuSans-56" transform="translate(109.625 0)"/>
      <use xlink:href="#DejaVuSans-57" transform="translate(161.71875 0)"/>
      <use xlink:href="#DejaVuSans-38" transform="translate(200.921875 0)"/>
      <use xlink:href="#DejaVuSans-51" transform="translate(274.109375 0)"/>
      <use xlink:href="#DejaVuSans-4c" transform="translate(337.484375 0)"/>
      <use xlink:href="#DejaVuSans-52" transform="translate(365.265625 0)"/>
      <use xlink:href="#DejaVuSans-51" transform="translate(426.453125 0)"/>
      <use xlink:href="#DejaVuSans-29" transform="translate(489.828125 0)"/>
      <use xlink:href="#DejaVuSans-4c" transform="translate(540.0625 0)"/>
      <use xlink:href="#DejaVuSans-51" transform="translate(567.84375 0)"/>
      <use xlink:href="#DejaVuSans-47" transform="translate(631.21875 0)"/>
     </g>
    </g>
    <g id="line2d_67">
     <path d="M 409.996172 41.075766 
L 416.996172 41.075766 
L 423.996172 41.075766 
" style="fill: none; stroke: #7f7f7f; stroke-width: 1.5; stroke-linecap: square"/>
     <g>
      <use xlink:href="#m3eb0afd123" x="416.996172" y="41.075766" style="fill: #7f7f7f; stroke: #7f7f7f; stroke-linejoin: miter"/>
     </g>
    </g>
    <g id="text_21">
     <!-- PyMatching(ref) -->
     <g transform="translate(429.596172 43.525766) scale(0.07 -0.07)">
      <defs>
       <path id="DejaVuSans-30" d="M 628 4666 
L 1569 4666 
L 2759 1491 
L 3956 4666 
L 4897 4666 
L 4897 0 
L 4281 0 
L 4281 4097 
L 3078 897 
L 2444 897 
L 1241 4097 
L 1241 0 
L 628 0 
L 628 4666 
z
" transform="scale(0.015625)"/>
       <path id="DejaVuSans-49" d="M 2375 4863 
L 2375 4384 
L 1825 4384 
Q 1516 4384 1395 4259 
Q 1275 4134 1275 3809 
L 1275 3500 
L 2222 3500 
L 2222 3053 
L 1275 3053 
L 1275 0 
L 697 0 
L 697 3053 
L 147 3053 
L 147 3500 
L 697 3500 
L 697 3744 
Q 697 4328 969 4595 
Q 1241 4863 1831 4863 
L 2375 4863 
z
" transform="scale(0.015625)"/>
      </defs>
      <use xlink:href="#DejaVuSans-33"/>
      <use xlink:href="#DejaVuSans-5c" transform="translate(60.296875 0)"/>
      <use xlink:href="#DejaVuSans-30" transform="translate(119.484375 0)"/>
      <use xlink:href="#DejaVuSans-44" transform="translate(205.765625 0)"/>
      <use xlink:href="#DejaVuSans-57" transform="translate(267.046875 0)"/>
      <use xlink:href="#DejaVuSans-46" transform="translate(306.25 0)"/>
      <use xlink:href="#DejaVuSans-4b" transform="translate(361.234375 0)"/>
      <use xlink:href="#DejaVuSans-4c" transform="translate(424.609375 0)"/>
      <use xlink:href="#DejaVuSans-51" transform="translate(452.390625 0)"/>
      <use xlink:href="#DejaVuSans-4a" transform="translate(515.765625 0)"/>
      <use xlink:href="#DejaVuSans-b" transform="translate(579.25 0)"/>
      <use xlink:href="#DejaVuSans-55" transform="translate(618.265625 0)"/>
      <use xlink:href="#DejaVuSans-48" transform="translate(657.171875 0)"/>
      <use xlink:href="#DejaVuSans-49" transform="translate(718.703125 0)"/>
      <use xlink:href="#DejaVuSans-c" transform="translate(753.90625 0)"/>
     </g>
    </g>
    <g id="line2d_68">
     <path d="M 409.996172 51.576312 
L 416.996172 51.576312 
L 423.996172 51.576312 
" style="fill: none; stroke: #d62728; stroke-width: 1.5; stroke-linecap: square"/>
     <g>
      <use xlink:href="#m639b7e4b24" x="416.996172" y="51.576312" style="fill: #d62728; stroke: #d62728; stroke-linejoin: miter"/>
     </g>
    </g>
    <g id="text_22">
     <!-- SparseBlossom -->
     <g transform="translate(429.596172 54.026312) scale(0.07 -0.07)">
      <defs>
       <path id="DejaVuSans-36" d="M 3425 4513 
L 3425 3897 
Q 3066 4069 2747 4153 
Q 2428 4238 2131 4238 
Q 1616 4238 1336 4038 
Q 1056 3838 1056 3469 
Q 1056 3159 1242 3001 
Q 1428 2844 1947 2747 
L 2328 2669 
Q 3034 2534 3370 2195 
Q 3706 1856 3706 1288 
Q 3706 609 3251 259 
Q 2797 -91 1919 -91 
Q 1588 -91 1214 -16 
Q 841 59 441 206 
L 441 856 
Q 825 641 1194 531 
Q 1563 422 1919 422 
Q 2459 422 2753 634 
Q 3047 847 3047 1241 
Q 3047 1584 2836 1778 
Q 2625 1972 2144 2069 
L 1759 2144 
Q 1053 2284 737 2584 
Q 422 2884 422 3419 
Q 422 4038 858 4394 
Q 1294 4750 2059 4750 
Q 2388 4750 2728 4690 
Q 3069 4631 3425 4513 
z
" transform="scale(0.015625)"/>
      </defs>
      <use xlink:href="#DejaVuSans-36"/>
      <use xlink:href="#DejaVuSans-53" transform="translate(63.484375 0)"/>
      <use xlink:href="#DejaVuSans-44" transform="translate(126.96875 0)"/>
      <use xlink:href="#DejaVuSans-55" transform="translate(188.25 0)"/>
      <use xlink:href="#DejaVuSans-56" transform="translate(229.359375 0)"/>
      <use xlink:href="#DejaVuSans-48" transform="translate(281.453125 0)"/>
      <use xlink:href="#DejaVuSans-25" transform="translate(342.984375 0)"/>
      <use xlink:href="#DejaVuSans-4f" transform="translate(411.59375 0)"/>
      <use xlink:href="#DejaVuSans-52" transform="translate(439.375 0)"/>
      <use xlink:href="#DejaVuSans-56" transform="translate(500.5625 0)"/>
      <use xlink:href="#DejaVuSans-56" transform="translate(552.65625 0)"/>
      <use xlink:href="#DejaVuSans-52" transform="translate(604.75 0)"/>
      <use xlink:href="#DejaVuSans-50" transform="translate(665.9375 0)"/>
     </g>
    </g>
    <g id="line2d_69">
     <path d="M 409.996172 62.076859 
L 416.996172 62.076859 
L 423.996172 62.076859 
" style="fill: none; stroke: #17becf; stroke-width: 1.5; stroke-linecap: square"/>
     <g>
      <use xlink:href="#me86355a97a" x="416.996172" y="62.076859" style="fill: #17becf; stroke: #17becf; stroke-linejoin: miter"/>
     </g>
    </g>
    <g id="text_23">
     <!-- UnionFind -->
     <g transform="translate(429.596172 64.526859) scale(0.07 -0.07)">
      <use xlink:href="#DejaVuSans-38"/>
      <use xlink:href="#DejaVuSans-51" transform="translate(73.1875 0)"/>
      <use xlink:href="#DejaVuSans-4c" transform="translate(136.5625 0)"/>
      <use xlink:href="#DejaVuSans-52" transform="translate(164.34375 0)"/>
      <use xlink:href="#DejaVuSans-51" transform="translate(225.53125 0)"/>
      <use xlink:href="#DejaVuSans-29" transform="translate(288.90625 0)"/>
      <use xlink:href="#DejaVuSans-4c" transform="translate(339.140625 0)"/>
      <use xlink:href="#DejaVuSans-51" transform="translate(366.921875 0)"/>
      <use xlink:href="#DejaVuSans-47" transform="translate(430.296875 0)"/>
     </g>
    </g>
   </g>
  </g>
 </g>
 <defs>
  <clipPath id="p4747e88168">
   <rect x="43.040703" y="21.406313" width="448.36" height="246.76"/>
  </clipPath>
 </defs>
</svg>
