<svg xmlns="http://www.w3.org/2000/svg" viewBox="0 0 64 64" fill="none" role="img" aria-label="QECTOR">
  <defs>
    <linearGradient id="g" x1="8" y1="6" x2="58" y2="60" gradientUnits="userSpaceOnUse">
      <stop stop-color="#9BF4FF"/>
      <stop offset="0.44" stop-color="#00D5FF"/>
      <stop offset="1" stop-color="#2F7BFF"/>
    </linearGradient>
    <radialGradient id="r" cx="0" cy="0" r="1" gradientUnits="userSpaceOnUse" gradientTransform="translate(22 15) rotate(47) scale(58)">
      <stop stop-color="#00D5FF" stop-opacity="0.42"/>
      <stop offset="1" stop-color="#00D5FF" stop-opacity="0"/>
    </radialGradient>
    <filter id="glow" x="-30%" y="-30%" width="160%" height="160%">
      <feGaussianBlur stdDeviation="2.4" result="blur"/>
      <feMerge>
        <feMergeNode in="blur"/>
        <feMergeNode in="SourceGraphic"/>
      </feMerge>
    </filter>
  </defs>
  <rect x="3" y="3" width="58" height="58" rx="17" fill="#07101F"/>
  <rect x="3" y="3" width="58" height="58" rx="17" fill="url(#r)"/>
  <rect x="3.75" y="3.75" width="56.5" height="56.5" rx="16.25" stroke="url(#g)" stroke-opacity="0.54" stroke-width="1.5"/>
  <path d="M32 12.5C21.23 12.5 12.5 21.23 12.5 32S21.23 51.5 32 51.5c4.4 0 8.45-1.46 11.72-3.92" stroke="url(#g)" stroke-width="4" stroke-linecap="round" filter="url(#glow)"/>
  <path d="M42.5 42.5 52 52" stroke="url(#g)" stroke-width="4.4" stroke-linecap="round" filter="url(#glow)"/>
  <path d="M21.5 32h21M32 21.5v21" stroke="#9BF4FF" stroke-opacity="0.54" stroke-width="1.6" stroke-linecap="round"/>
  <circle cx="32" cy="21.5" r="2.25" fill="#9BF4FF"/>
  <circle cx="42.5" cy="32" r="2.25" fill="#00D5FF"/>
  <circle cx="32" cy="42.5" r="2.25" fill="#2F7BFF"/>
  <circle cx="21.5" cy="32" r="2.25" fill="#00D5FF"/>
</svg>
