<?xml version="1.0" encoding="utf-8" standalone="no"?>
<!DOCTYPE svg PUBLIC "-//W3C//DTD SVG 1.1//EN"
  "http://www.w3.org/Graphics/SVG/1.1/DTD/svg11.dtd">
<svg xmlns:xlink="http://www.w3.org/1999/xlink" width="498.273516pt" height="304.367016pt" viewBox="0 0 498.273516 304.367016" xmlns="http://www.w3.org/2000/svg" version="1.1">
 <metadata>
  <rdf:RDF xmlns:dc="http://purl.org/dc/elements/1.1/" xmlns:cc="http://creativecommons.org/ns#" xmlns:rdf="http://www.w3.org/1999/02/22-rdf-syntax-ns#">
   <cc:Work>
    <dc:type rdf:resource="http://purl.org/dc/dcmitype/StillImage"/>
    <dc:date>2026-07-22T16:07:54.392107</dc:date>
    <dc:format>image/svg+xml</dc:format>
    <dc:creator>
     <cc:Agent>
      <dc:title>Matplotlib v3.11.1, https://matplotlib.org/</dc:title>
     </cc:Agent>
    </dc:creator>
   </cc:Work>
  </rdf:RDF>
 </metadata>
 <defs>
  <style type="text/css">*{stroke-linejoin: round; stroke-linecap: butt}</style>
 </defs>
 <g id="figure_1">
  <g id="patch_1">
   <path d="M 0 304.367016 
L 498.273516 304.367016 
L 498.273516 0 
L 0 0 
z
" style="fill: #ffffff"/>
  </g>
  <g id="axes_1">
   <g id="patch_2">
    <path d="M 41.513516 268.166312 
L 491.073516 268.166312 
L 491.073516 21.406312 
L 41.513516 21.406312 
z
" style="fill: #ffffff"/>
   </g>
   <g id="matplotlib.axis_1">
    <g id="xtick_1">
     <g id="line2d_1">
      <path d="M 87.491243 268.166312 
L 87.491243 21.406312 
" clip-path="url(#p1014aa69ee)" style="fill: none; stroke: #b0b0b0; stroke-opacity: 0.3; stroke-width: 0.8; stroke-linecap: square"/>
     </g>
     <g id="line2d_2">
      <defs>
       <path id="m8238f2181e" d="M 0 0 
L 0 3.5 
" style="stroke: #000000; stroke-width: 0.8"/>
      </defs>
      <g>
       <use xlink:href="#m8238f2181e" x="87.491243" y="268.166312" style="stroke: #000000; stroke-width: 0.8"/>
      </g>
     </g>
     <g id="text_1">
      <!-- 4 -->
      <g transform="translate(84.628118 282.004203) scale(0.09 -0.09)">
       <defs>
        <path id="DejaVuSans-17" d="M 2419 4116 
L 825 1625 
L 2419 1625 
L 2419 4116 
z
M 2253 4666 
L 3047 4666 
L 3047 1625 
L 3713 1625 
L 3713 1100 
L 3047 1100 
L 3047 0 
L 2419 0 
L 2419 1100 
L 313 1100 
L 313 1709 
L 2253 4666 
z
" transform="scale(0.015625)"/>
       </defs>
       <use xlink:href="#DejaVuSans-17"/>
      </g>
     </g>
    </g>
    <g id="xtick_2">
     <g id="line2d_3">
      <path d="M 138.577607 268.166312 
L 138.577607 21.406312 
" clip-path="url(#p1014aa69ee)" style="fill: none; stroke: #b0b0b0; stroke-opacity: 0.3; stroke-width: 0.8; stroke-linecap: square"/>
     </g>
     <g id="line2d_4">
      <g>
       <use xlink:href="#m8238f2181e" x="138.577607" y="268.166312" style="stroke: #000000; stroke-width: 0.8"/>
      </g>
     </g>
     <g id="text_2">
      <!-- 6 -->
      <g transform="translate(135.714482 282.004203) scale(0.09 -0.09)">
       <defs>
        <path id="DejaVuSans-19" d="M 2113 2584 
Q 1688 2584 1439 2293 
Q 1191 2003 1191 1497 
Q 1191 994 1439 701 
Q 1688 409 2113 409 
Q 2538 409 2786 701 
Q 3034 994 3034 1497 
Q 3034 2003 2786 2293 
Q 2538 2584 2113 2584 
z
M 3366 4563 
L 3366 3988 
Q 3128 4100 2886 4159 
Q 2644 4219 2406 4219 
Q 1781 4219 1451 3797 
Q 1122 3375 1075 2522 
Q 1259 2794 1537 2939 
Q 1816 3084 2150 3084 
Q 2853 3084 3261 2657 
Q 3669 2231 3669 1497 
Q 3669 778 3244 343 
Q 2819 -91 2113 -91 
Q 1303 -91 875 529 
Q 447 1150 447 2328 
Q 447 3434 972 4092 
Q 1497 4750 2381 4750 
Q 2619 4750 2861 4703 
Q 3103 4656 3366 4563 
z
" transform="scale(0.015625)"/>
       </defs>
       <use xlink:href="#DejaVuSans-19"/>
      </g>
     </g>
    </g>
    <g id="xtick_3">
     <g id="line2d_5">
      <path d="M 189.66397 268.166312 
L 189.66397 21.406312 
" clip-path="url(#p1014aa69ee)" style="fill: none; stroke: #b0b0b0; stroke-opacity: 0.3; stroke-width: 0.8; stroke-linecap: square"/>
     </g>
     <g id="line2d_6">
      <g>
       <use xlink:href="#m8238f2181e" x="189.66397" y="268.166312" style="stroke: #000000; stroke-width: 0.8"/>
      </g>
     </g>
     <g id="text_3">
      <!-- 8 -->
      <g transform="translate(186.800845 282.004203) scale(0.09 -0.09)">
       <defs>
        <path id="DejaVuSans-1b" d="M 2034 2216 
Q 1584 2216 1326 1975 
Q 1069 1734 1069 1313 
Q 1069 891 1326 650 
Q 1584 409 2034 409 
Q 2484 409 2743 651 
Q 3003 894 3003 1313 
Q 3003 1734 2745 1975 
Q 2488 2216 2034 2216 
z
M 1403 2484 
Q 997 2584 770 2862 
Q 544 3141 544 3541 
Q 544 4100 942 4425 
Q 1341 4750 2034 4750 
Q 2731 4750 3128 4425 
Q 3525 4100 3525 3541 
Q 3525 3141 3298 2862 
Q 3072 2584 2669 2484 
Q 3125 2378 3379 2068 
Q 3634 1759 3634 1313 
Q 3634 634 3220 271 
Q 2806 -91 2034 -91 
Q 1263 -91 848 271 
Q 434 634 434 1313 
Q 434 1759 690 2068 
Q 947 2378 1403 2484 
z
M 1172 3481 
Q 1172 3119 1398 2916 
Q 1625 2713 2034 2713 
Q 2441 2713 2670 2916 
Q 2900 3119 2900 3481 
Q 2900 3844 2670 4047 
Q 2441 4250 2034 4250 
Q 1625 4250 1398 4047 
Q 1172 3844 1172 3481 
z
" transform="scale(0.015625)"/>
       </defs>
       <use xlink:href="#DejaVuSans-1b"/>
      </g>
     </g>
    </g>
    <g id="xtick_4">
     <g id="line2d_7">
      <path d="M 240.750334 268.166312 
L 240.750334 21.406312 
" clip-path="url(#p1014aa69ee)" style="fill: none; stroke: #b0b0b0; stroke-opacity: 0.3; stroke-width: 0.8; stroke-linecap: square"/>
     </g>
     <g id="line2d_8">
      <g>
       <use xlink:href="#m8238f2181e" x="240.750334" y="268.166312" style="stroke: #000000; stroke-width: 0.8"/>
      </g>
     </g>
     <g id="text_4">
      <!-- 10 -->
      <g transform="translate(235.024084 282.004203) scale(0.09 -0.09)">
       <defs>
        <path id="DejaVuSans-14" d="M 794 531 
L 1825 531 
L 1825 4091 
L 703 3866 
L 703 4441 
L 1819 4666 
L 2450 4666 
L 2450 531 
L 3481 531 
L 3481 0 
L 794 0 
L 794 531 
z
" transform="scale(0.015625)"/>
        <path id="DejaVuSans-13" d="M 2034 4250 
Q 1547 4250 1301 3770 
Q 1056 3291 1056 2328 
Q 1056 1369 1301 889 
Q 1547 409 2034 409 
Q 2525 409 2770 889 
Q 3016 1369 3016 2328 
Q 3016 3291 2770 3770 
Q 2525 4250 2034 4250 
z
M 2034 4750 
Q 2819 4750 3233 4129 
Q 3647 3509 3647 2328 
Q 3647 1150 3233 529 
Q 2819 -91 2034 -91 
Q 1250 -91 836 529 
Q 422 1150 422 2328 
Q 422 3509 836 4129 
Q 1250 4750 2034 4750 
z
" transform="scale(0.015625)"/>
       </defs>
       <use xlink:href="#DejaVuSans-14"/>
       <use xlink:href="#DejaVuSans-13" transform="translate(63.625 0)"/>
      </g>
     </g>
    </g>
    <g id="xtick_5">
     <g id="line2d_9">
      <path d="M 291.836697 268.166312 
L 291.836697 21.406312 
" clip-path="url(#p1014aa69ee)" style="fill: none; stroke: #b0b0b0; stroke-opacity: 0.3; stroke-width: 0.8; stroke-linecap: square"/>
     </g>
     <g id="line2d_10">
      <g>
       <use xlink:href="#m8238f2181e" x="291.836697" y="268.166312" style="stroke: #000000; stroke-width: 0.8"/>
      </g>
     </g>
     <g id="text_5">
      <!-- 12 -->
      <g transform="translate(286.110447 282.004203) scale(0.09 -0.09)">
       <defs>
        <path id="DejaVuSans-15" d="M 1228 531 
L 3431 531 
L 3431 0 
L 469 0 
L 469 531 
Q 828 903 1448 1529 
Q 2069 2156 2228 2338 
Q 2531 2678 2651 2914 
Q 2772 3150 2772 3378 
Q 2772 3750 2511 3984 
Q 2250 4219 1831 4219 
Q 1534 4219 1204 4116 
Q 875 4013 500 3803 
L 500 4441 
Q 881 4594 1212 4672 
Q 1544 4750 1819 4750 
Q 2544 4750 2975 4387 
Q 3406 4025 3406 3419 
Q 3406 3131 3298 2873 
Q 3191 2616 2906 2266 
Q 2828 2175 2409 1742 
Q 1991 1309 1228 531 
z
" transform="scale(0.015625)"/>
       </defs>
       <use xlink:href="#DejaVuSans-14"/>
       <use xlink:href="#DejaVuSans-15" transform="translate(63.625 0)"/>
      </g>
     </g>
    </g>
    <g id="xtick_6">
     <g id="line2d_11">
      <path d="M 342.923061 268.166312 
L 342.923061 21.406312 
" clip-path="url(#p1014aa69ee)" style="fill: none; stroke: #b0b0b0; stroke-opacity: 0.3; stroke-width: 0.8; stroke-linecap: square"/>
     </g>
     <g id="line2d_12">
      <g>
       <use xlink:href="#m8238f2181e" x="342.923061" y="268.166312" style="stroke: #000000; stroke-width: 0.8"/>
      </g>
     </g>
     <g id="text_6">
      <!-- 14 -->
      <g transform="translate(337.196811 282.004203) scale(0.09 -0.09)">
       <use xlink:href="#DejaVuSans-14"/>
       <use xlink:href="#DejaVuSans-17" transform="translate(63.625 0)"/>
      </g>
     </g>
    </g>
    <g id="xtick_7">
     <g id="line2d_13">
      <path d="M 394.009425 268.166312 
L 394.009425 21.406312 
" clip-path="url(#p1014aa69ee)" style="fill: none; stroke: #b0b0b0; stroke-opacity: 0.3; stroke-width: 0.8; stroke-linecap: square"/>
     </g>
     <g id="line2d_14">
      <g>
       <use xlink:href="#m8238f2181e" x="394.009425" y="268.166312" style="stroke: #000000; stroke-width: 0.8"/>
      </g>
     </g>
     <g id="text_7">
      <!-- 16 -->
      <g transform="translate(388.283175 282.004203) scale(0.09 -0.09)">
       <use xlink:href="#DejaVuSans-14"/>
       <use xlink:href="#DejaVuSans-19" transform="translate(63.625 0)"/>
      </g>
     </g>
    </g>
    <g id="xtick_8">
     <g id="line2d_15">
      <path d="M 445.095788 268.166312 
L 445.095788 21.406312 
" clip-path="url(#p1014aa69ee)" style="fill: none; stroke: #b0b0b0; stroke-opacity: 0.3; stroke-width: 0.8; stroke-linecap: square"/>
     </g>
     <g id="line2d_16">
      <g>
       <use xlink:href="#m8238f2181e" x="445.095788" y="268.166312" style="stroke: #000000; stroke-width: 0.8"/>
      </g>
     </g>
     <g id="text_8">
      <!-- 18 -->
      <g transform="translate(439.369538 282.004203) scale(0.09 -0.09)">
       <use xlink:href="#DejaVuSans-14"/>
       <use xlink:href="#DejaVuSans-1b" transform="translate(63.625 0)"/>
      </g>
     </g>
    </g>
    <g id="text_9">
     <!-- code distance d -->
     <g transform="translate(230.654922 295.004906) scale(0.09 -0.09)">
      <defs>
       <path id="DejaVuSans-46" d="M 3122 3366 
L 3122 2828 
Q 2878 2963 2633 3030 
Q 2388 3097 2138 3097 
Q 1578 3097 1268 2742 
Q 959 2388 959 1747 
Q 959 1106 1268 751 
Q 1578 397 2138 397 
Q 2388 397 2633 464 
Q 2878 531 3122 666 
L 3122 134 
Q 2881 22 2623 -34 
Q 2366 -91 2075 -91 
Q 1284 -91 818 406 
Q 353 903 353 1747 
Q 353 2603 823 3093 
Q 1294 3584 2113 3584 
Q 2378 3584 2631 3529 
Q 2884 3475 3122 3366 
z
" transform="scale(0.015625)"/>
       <path id="DejaVuSans-52" d="M 1959 3097 
Q 1497 3097 1228 2736 
Q 959 2375 959 1747 
Q 959 1119 1226 758 
Q 1494 397 1959 397 
Q 2419 397 2687 759 
Q 2956 1122 2956 1747 
Q 2956 2369 2687 2733 
Q 2419 3097 1959 3097 
z
M 1959 3584 
Q 2709 3584 3137 3096 
Q 3566 2609 3566 1747 
Q 3566 888 3137 398 
Q 2709 -91 1959 -91 
Q 1206 -91 779 398 
Q 353 888 353 1747 
Q 353 2609 779 3096 
Q 1206 3584 1959 3584 
z
" transform="scale(0.015625)"/>
       <path id="DejaVuSans-47" d="M 2906 2969 
L 2906 4863 
L 3481 4863 
L 3481 0 
L 2906 0 
L 2906 525 
Q 2725 213 2448 61 
Q 2172 -91 1784 -91 
Q 1150 -91 751 415 
Q 353 922 353 1747 
Q 353 2572 751 3078 
Q 1150 3584 1784 3584 
Q 2172 3584 2448 3432 
Q 2725 3281 2906 2969 
z
M 947 1747 
Q 947 1113 1208 752 
Q 1469 391 1925 391 
Q 2381 391 2643 752 
Q 2906 1113 2906 1747 
Q 2906 2381 2643 2742 
Q 2381 3103 1925 3103 
Q 1469 3103 1208 2742 
Q 947 2381 947 1747 
z
" transform="scale(0.015625)"/>
       <path id="DejaVuSans-48" d="M 3597 1894 
L 3597 1613 
L 953 1613 
Q 991 1019 1311 708 
Q 1631 397 2203 397 
Q 2534 397 2845 478 
Q 3156 559 3463 722 
L 3463 178 
Q 3153 47 2828 -22 
Q 2503 -91 2169 -91 
Q 1331 -91 842 396 
Q 353 884 353 1716 
Q 353 2575 817 3079 
Q 1281 3584 2069 3584 
Q 2775 3584 3186 3129 
Q 3597 2675 3597 1894 
z
M 3022 2063 
Q 3016 2534 2758 2815 
Q 2500 3097 2075 3097 
Q 1594 3097 1305 2825 
Q 1016 2553 972 2059 
L 3022 2063 
z
" transform="scale(0.015625)"/>
       <path id="DejaVuSans-3" transform="scale(0.015625)"/>
       <path id="DejaVuSans-4c" d="M 603 3500 
L 1178 3500 
L 1178 0 
L 603 0 
L 603 3500 
z
M 603 4863 
L 1178 4863 
L 1178 4134 
L 603 4134 
L 603 4863 
z
" transform="scale(0.015625)"/>
       <path id="DejaVuSans-56" d="M 2834 3397 
L 2834 2853 
Q 2591 2978 2328 3040 
Q 2066 3103 1784 3103 
Q 1356 3103 1142 2972 
Q 928 2841 928 2578 
Q 928 2378 1081 2264 
Q 1234 2150 1697 2047 
L 1894 2003 
Q 2506 1872 2764 1633 
Q 3022 1394 3022 966 
Q 3022 478 2636 193 
Q 2250 -91 1575 -91 
Q 1294 -91 989 -36 
Q 684 19 347 128 
L 347 722 
Q 666 556 975 473 
Q 1284 391 1588 391 
Q 1994 391 2212 530 
Q 2431 669 2431 922 
Q 2431 1156 2273 1281 
Q 2116 1406 1581 1522 
L 1381 1569 
Q 847 1681 609 1914 
Q 372 2147 372 2553 
Q 372 3047 722 3315 
Q 1072 3584 1716 3584 
Q 2034 3584 2315 3537 
Q 2597 3491 2834 3397 
z
" transform="scale(0.015625)"/>
       <path id="DejaVuSans-57" d="M 1172 4494 
L 1172 3500 
L 2356 3500 
L 2356 3053 
L 1172 3053 
L 1172 1153 
Q 1172 725 1289 603 
Q 1406 481 1766 481 
L 2356 481 
L 2356 0 
L 1766 0 
Q 1100 0 847 248 
Q 594 497 594 1153 
L 594 3053 
L 172 3053 
L 172 3500 
L 594 3500 
L 594 4494 
L 1172 4494 
z
" transform="scale(0.015625)"/>
       <path id="DejaVuSans-44" d="M 2194 1759 
Q 1497 1759 1228 1600 
Q 959 1441 959 1056 
Q 959 750 1161 570 
Q 1363 391 1709 391 
Q 2188 391 2477 730 
Q 2766 1069 2766 1631 
L 2766 1759 
L 2194 1759 
z
M 3341 1997 
L 3341 0 
L 2766 0 
L 2766 531 
Q 2569 213 2275 61 
Q 1981 -91 1556 -91 
Q 1019 -91 701 211 
Q 384 513 384 1019 
Q 384 1609 779 1909 
Q 1175 2209 1959 2209 
L 2766 2209 
L 2766 2266 
Q 2766 2663 2505 2880 
Q 2244 3097 1772 3097 
Q 1472 3097 1187 3025 
Q 903 2953 641 2809 
L 641 3341 
Q 956 3463 1253 3523 
Q 1550 3584 1831 3584 
Q 2591 3584 2966 3190 
Q 3341 2797 3341 1997 
z
" transform="scale(0.015625)"/>
       <path id="DejaVuSans-51" d="M 3513 2113 
L 3513 0 
L 2938 0 
L 2938 2094 
Q 2938 2591 2744 2837 
Q 2550 3084 2163 3084 
Q 1697 3084 1428 2787 
Q 1159 2491 1159 1978 
L 1159 0 
L 581 0 
L 581 3500 
L 1159 3500 
L 1159 2956 
Q 1366 3272 1645 3428 
Q 1925 3584 2291 3584 
Q 2894 3584 3203 3211 
Q 3513 2838 3513 2113 
z
" transform="scale(0.015625)"/>
      </defs>
      <use xlink:href="#DejaVuSans-46"/>
      <use xlink:href="#DejaVuSans-52" transform="translate(54.984375 0)"/>
      <use xlink:href="#DejaVuSans-47" transform="translate(116.171875 0)"/>
      <use xlink:href="#DejaVuSans-48" transform="translate(179.65625 0)"/>
      <use xlink:href="#DejaVuSans-3" transform="translate(241.1875 0)"/>
      <use xlink:href="#DejaVuSans-47" transform="translate(272.96875 0)"/>
      <use xlink:href="#DejaVuSans-4c" transform="translate(336.453125 0)"/>
      <use xlink:href="#DejaVuSans-56" transform="translate(364.234375 0)"/>
      <use xlink:href="#DejaVuSans-57" transform="translate(416.328125 0)"/>
      <use xlink:href="#DejaVuSans-44" transform="translate(455.53125 0)"/>
      <use xlink:href="#DejaVuSans-51" transform="translate(516.8125 0)"/>
      <use xlink:href="#DejaVuSans-46" transform="translate(580.1875 0)"/>
      <use xlink:href="#DejaVuSans-48" transform="translate(635.171875 0)"/>
      <use xlink:href="#DejaVuSans-3" transform="translate(696.703125 0)"/>
      <use xlink:href="#DejaVuSans-47" transform="translate(728.484375 0)"/>
     </g>
    </g>
   </g>
   <g id="matplotlib.axis_2">
    <g id="ytick_1">
     <g id="line2d_17">
      <path d="M 41.513516 268.166312 
L 491.073516 268.166312 
" clip-path="url(#p1014aa69ee)" style="fill: none; stroke: #b0b0b0; stroke-opacity: 0.3; stroke-width: 0.8; stroke-linecap: square"/>
     </g>
     <g id="line2d_18">
      <defs>
       <path id="mba7912799b" d="M 0 0 
L -3.5 0 
" style="stroke: #000000; stroke-width: 0.8"/>
      </defs>
      <g>
       <use xlink:href="#mba7912799b" x="41.513516" y="268.166312" style="stroke: #000000; stroke-width: 0.8"/>
      </g>
     </g>
     <g id="text_10">
      <!-- 0.0 -->
      <g transform="translate(20.200703 271.585258) scale(0.09 -0.09)">
       <defs>
        <path id="DejaVuSans-11" d="M 684 794 
L 1344 794 
L 1344 0 
L 684 0 
L 684 794 
z
" transform="scale(0.015625)"/>
       </defs>
       <use xlink:href="#DejaVuSans-13"/>
       <use xlink:href="#DejaVuSans-11" transform="translate(63.625 0)"/>
       <use xlink:href="#DejaVuSans-13" transform="translate(95.40625 0)"/>
      </g>
     </g>
    </g>
    <g id="ytick_2">
     <g id="line2d_19">
      <path d="M 41.513516 221.164408 
L 491.073516 221.164408 
" clip-path="url(#p1014aa69ee)" style="fill: none; stroke: #b0b0b0; stroke-opacity: 0.3; stroke-width: 0.8; stroke-linecap: square"/>
     </g>
     <g id="line2d_20">
      <g>
       <use xlink:href="#mba7912799b" x="41.513516" y="221.164408" style="stroke: #000000; stroke-width: 0.8"/>
      </g>
     </g>
     <g id="text_11">
      <!-- 0.2 -->
      <g transform="translate(20.200703 224.583353) scale(0.09 -0.09)">
       <use xlink:href="#DejaVuSans-13"/>
       <use xlink:href="#DejaVuSans-11" transform="translate(63.625 0)"/>
       <use xlink:href="#DejaVuSans-15" transform="translate(95.40625 0)"/>
      </g>
     </g>
    </g>
    <g id="ytick_3">
     <g id="line2d_21">
      <path d="M 41.513516 174.162503 
L 491.073516 174.162503 
" clip-path="url(#p1014aa69ee)" style="fill: none; stroke: #b0b0b0; stroke-opacity: 0.3; stroke-width: 0.8; stroke-linecap: square"/>
     </g>
     <g id="line2d_22">
      <g>
       <use xlink:href="#mba7912799b" x="41.513516" y="174.162503" style="stroke: #000000; stroke-width: 0.8"/>
      </g>
     </g>
     <g id="text_12">
      <!-- 0.4 -->
      <g transform="translate(20.200703 177.581448) scale(0.09 -0.09)">
       <use xlink:href="#DejaVuSans-13"/>
       <use xlink:href="#DejaVuSans-11" transform="translate(63.625 0)"/>
       <use xlink:href="#DejaVuSans-17" transform="translate(95.40625 0)"/>
      </g>
     </g>
    </g>
    <g id="ytick_4">
     <g id="line2d_23">
      <path d="M 41.513516 127.160598 
L 491.073516 127.160598 
" clip-path="url(#p1014aa69ee)" style="fill: none; stroke: #b0b0b0; stroke-opacity: 0.3; stroke-width: 0.8; stroke-linecap: square"/>
     </g>
     <g id="line2d_24">
      <g>
       <use xlink:href="#mba7912799b" x="41.513516" y="127.160598" style="stroke: #000000; stroke-width: 0.8"/>
      </g>
     </g>
     <g id="text_13">
      <!-- 0.6 -->
      <g transform="translate(20.200703 130.579544) scale(0.09 -0.09)">
       <use xlink:href="#DejaVuSans-13"/>
       <use xlink:href="#DejaVuSans-11" transform="translate(63.625 0)"/>
       <use xlink:href="#DejaVuSans-19" transform="translate(95.40625 0)"/>
      </g>
     </g>
    </g>
    <g id="ytick_5">
     <g id="line2d_25">
      <path d="M 41.513516 80.158693 
L 491.073516 80.158693 
" clip-path="url(#p1014aa69ee)" style="fill: none; stroke: #b0b0b0; stroke-opacity: 0.3; stroke-width: 0.8; stroke-linecap: square"/>
     </g>
     <g id="line2d_26">
      <g>
       <use xlink:href="#mba7912799b" x="41.513516" y="80.158693" style="stroke: #000000; stroke-width: 0.8"/>
      </g>
     </g>
     <g id="text_14">
      <!-- 0.8 -->
      <g transform="translate(20.200703 83.577639) scale(0.09 -0.09)">
       <use xlink:href="#DejaVuSans-13"/>
       <use xlink:href="#DejaVuSans-11" transform="translate(63.625 0)"/>
       <use xlink:href="#DejaVuSans-1b" transform="translate(95.40625 0)"/>
      </g>
     </g>
    </g>
    <g id="ytick_6">
     <g id="line2d_27">
      <path d="M 41.513516 33.156789 
L 491.073516 33.156789 
" clip-path="url(#p1014aa69ee)" style="fill: none; stroke: #b0b0b0; stroke-opacity: 0.3; stroke-width: 0.8; stroke-linecap: square"/>
     </g>
     <g id="line2d_28">
      <g>
       <use xlink:href="#mba7912799b" x="41.513516" y="33.156789" style="stroke: #000000; stroke-width: 0.8"/>
      </g>
     </g>
     <g id="text_15">
      <!-- 1.0 -->
      <g transform="translate(20.200703 36.575734) scale(0.09 -0.09)">
       <use xlink:href="#DejaVuSans-14"/>
       <use xlink:href="#DejaVuSans-11" transform="translate(63.625 0)"/>
       <use xlink:href="#DejaVuSans-13" transform="translate(95.40625 0)"/>
      </g>
     </g>
    </g>
    <g id="text_16">
     <!-- fraction of shots with identical correction -->
     <g transform="translate(14.038594 237.001156) rotate(-90) scale(0.09 -0.09)">
      <defs>
       <path id="DejaVuSans-49" d="M 2375 4863 
L 2375 4384 
L 1825 4384 
Q 1516 4384 1395 4259 
Q 1275 4134 1275 3809 
L 1275 3500 
L 2222 3500 
L 2222 3053 
L 1275 3053 
L 1275 0 
L 697 0 
L 697 3053 
L 147 3053 
L 147 3500 
L 697 3500 
L 697 3744 
Q 697 4328 969 4595 
Q 1241 4863 1831 4863 
L 2375 4863 
z
" transform="scale(0.015625)"/>
       <path id="DejaVuSans-55" d="M 2631 2963 
Q 2534 3019 2420 3045 
Q 2306 3072 2169 3072 
Q 1681 3072 1420 2755 
Q 1159 2438 1159 1844 
L 1159 0 
L 581 0 
L 581 3500 
L 1159 3500 
L 1159 2956 
Q 1341 3275 1631 3429 
Q 1922 3584 2338 3584 
Q 2397 3584 2469 3576 
Q 2541 3569 2628 3553 
L 2631 2963 
z
" transform="scale(0.015625)"/>
       <path id="DejaVuSans-4b" d="M 3513 2113 
L 3513 0 
L 2938 0 
L 2938 2094 
Q 2938 2591 2744 2837 
Q 2550 3084 2163 3084 
Q 1697 3084 1428 2787 
Q 1159 2491 1159 1978 
L 1159 0 
L 581 0 
L 581 4863 
L 1159 4863 
L 1159 2956 
Q 1366 3272 1645 3428 
Q 1925 3584 2291 3584 
Q 2894 3584 3203 3211 
Q 3513 2838 3513 2113 
z
" transform="scale(0.015625)"/>
       <path id="DejaVuSans-5a" d="M 269 3500 
L 844 3500 
L 1563 769 
L 2278 3500 
L 2956 3500 
L 3675 769 
L 4391 3500 
L 4966 3500 
L 4050 0 
L 3372 0 
L 2619 2869 
L 1863 0 
L 1184 0 
L 269 3500 
z
" transform="scale(0.015625)"/>
       <path id="DejaVuSans-4f" d="M 603 4863 
L 1178 4863 
L 1178 0 
L 603 0 
L 603 4863 
z
" transform="scale(0.015625)"/>
      </defs>
      <use xlink:href="#DejaVuSans-49"/>
      <use xlink:href="#DejaVuSans-55" transform="translate(35.203125 0)"/>
      <use xlink:href="#DejaVuSans-44" transform="translate(76.3125 0)"/>
      <use xlink:href="#DejaVuSans-46" transform="translate(137.59375 0)"/>
      <use xlink:href="#DejaVuSans-57" transform="translate(192.578125 0)"/>
      <use xlink:href="#DejaVuSans-4c" transform="translate(231.78125 0)"/>
      <use xlink:href="#DejaVuSans-52" transform="translate(259.5625 0)"/>
      <use xlink:href="#DejaVuSans-51" transform="translate(320.75 0)"/>
      <use xlink:href="#DejaVuSans-3" transform="translate(384.125 0)"/>
      <use xlink:href="#DejaVuSans-52" transform="translate(415.90625 0)"/>
      <use xlink:href="#DejaVuSans-49" transform="translate(477.09375 0)"/>
      <use xlink:href="#DejaVuSans-3" transform="translate(512.296875 0)"/>
      <use xlink:href="#DejaVuSans-56" transform="translate(544.078125 0)"/>
      <use xlink:href="#DejaVuSans-4b" transform="translate(596.171875 0)"/>
      <use xlink:href="#DejaVuSans-52" transform="translate(659.546875 0)"/>
      <use xlink:href="#DejaVuSans-57" transform="translate(720.734375 0)"/>
      <use xlink:href="#DejaVuSans-56" transform="translate(759.9375 0)"/>
      <use xlink:href="#DejaVuSans-3" transform="translate(812.03125 0)"/>
      <use xlink:href="#DejaVuSans-5a" transform="translate(843.8125 0)"/>
      <use xlink:href="#DejaVuSans-4c" transform="translate(925.59375 0)"/>
      <use xlink:href="#DejaVuSans-57" transform="translate(953.375 0)"/>
      <use xlink:href="#DejaVuSans-4b" transform="translate(992.578125 0)"/>
      <use xlink:href="#DejaVuSans-3" transform="translate(1055.953125 0)"/>
      <use xlink:href="#DejaVuSans-4c" transform="translate(1087.734375 0)"/>
      <use xlink:href="#DejaVuSans-47" transform="translate(1115.515625 0)"/>
      <use xlink:href="#DejaVuSans-48" transform="translate(1179 0)"/>
      <use xlink:href="#DejaVuSans-51" transform="translate(1240.53125 0)"/>
      <use xlink:href="#DejaVuSans-57" transform="translate(1303.90625 0)"/>
      <use xlink:href="#DejaVuSans-4c" transform="translate(1343.109375 0)"/>
      <use xlink:href="#DejaVuSans-46" transform="translate(1370.890625 0)"/>
      <use xlink:href="#DejaVuSans-44" transform="translate(1425.875 0)"/>
      <use xlink:href="#DejaVuSans-4f" transform="translate(1487.15625 0)"/>
      <use xlink:href="#DejaVuSans-3" transform="translate(1514.9375 0)"/>
      <use xlink:href="#DejaVuSans-46" transform="translate(1546.71875 0)"/>
      <use xlink:href="#DejaVuSans-52" transform="translate(1601.703125 0)"/>
      <use xlink:href="#DejaVuSans-55" transform="translate(1662.890625 0)"/>
      <use xlink:href="#DejaVuSans-55" transform="translate(1702.25 0)"/>
      <use xlink:href="#DejaVuSans-48" transform="translate(1741.15625 0)"/>
      <use xlink:href="#DejaVuSans-46" transform="translate(1802.6875 0)"/>
      <use xlink:href="#DejaVuSans-57" transform="translate(1857.671875 0)"/>
      <use xlink:href="#DejaVuSans-4c" transform="translate(1896.875 0)"/>
      <use xlink:href="#DejaVuSans-52" transform="translate(1924.65625 0)"/>
      <use xlink:href="#DejaVuSans-51" transform="translate(1985.84375 0)"/>
     </g>
    </g>
   </g>
   <g id="line2d_29">
    <path d="M 61.948061 38.750015 
L 113.034425 62.403724 
L 164.120788 69.94753 
L 215.207152 90.839876 
L 266.293516 113.189282 
L 317.379879 136.043958 
L 368.466243 157.476827 
L 419.552607 179.320962 
L 470.63897 197.299191 
" clip-path="url(#p1014aa69ee)" style="fill: none; stroke: #1f77b4; stroke-width: 1.5; stroke-linecap: square"/>
    <defs>
     <path id="ma29b14800a" d="M 0 2 
C 0.530406 2 1.03916 1.789267 1.414214 1.414214 
C 1.789267 1.03916 2 0.530406 2 0 
C 2 -0.530406 1.789267 -1.03916 1.414214 -1.414214 
C 1.03916 -1.789267 0.530406 -2 0 -2 
C -0.530406 -2 -1.03916 -1.789267 -1.414214 -1.414214 
C -1.789267 -1.03916 -2 -0.530406 -2 0 
C -2 0.530406 -1.789267 1.03916 -1.414214 1.414214 
C -1.03916 1.789267 -0.530406 2 0 2 
z
" style="stroke: #1f77b4"/>
    </defs>
    <g clip-path="url(#p1014aa69ee)">
     <use xlink:href="#ma29b14800a" x="61.948061" y="38.750015" style="fill: #1f77b4; stroke: #1f77b4"/>
     <use xlink:href="#ma29b14800a" x="113.034425" y="62.403724" style="fill: #1f77b4; stroke: #1f77b4"/>
     <use xlink:href="#ma29b14800a" x="164.120788" y="69.94753" style="fill: #1f77b4; stroke: #1f77b4"/>
     <use xlink:href="#ma29b14800a" x="215.207152" y="90.839876" style="fill: #1f77b4; stroke: #1f77b4"/>
     <use xlink:href="#ma29b14800a" x="266.293516" y="113.189282" style="fill: #1f77b4; stroke: #1f77b4"/>
     <use xlink:href="#ma29b14800a" x="317.379879" y="136.043958" style="fill: #1f77b4; stroke: #1f77b4"/>
     <use xlink:href="#ma29b14800a" x="368.466243" y="157.476827" style="fill: #1f77b4; stroke: #1f77b4"/>
     <use xlink:href="#ma29b14800a" x="419.552607" y="179.320962" style="fill: #1f77b4; stroke: #1f77b4"/>
     <use xlink:href="#ma29b14800a" x="470.63897" y="197.299191" style="fill: #1f77b4; stroke: #1f77b4"/>
    </g>
   </g>
   <g id="line2d_30">
    <path d="M 61.948061 33.156789 
L 113.034425 33.156789 
L 164.120788 33.156789 
L 215.207152 33.156789 
L 266.293516 33.156789 
L 317.379879 33.156789 
L 368.466243 33.156789 
L 419.552607 33.156789 
L 470.63897 33.156789 
" clip-path="url(#p1014aa69ee)" style="fill: none; stroke: #ff7f0e; stroke-width: 1.5; stroke-linecap: square"/>
    <defs>
     <path id="m3e9c0b9202" d="M 0 2 
C 0.530406 2 1.03916 1.789267 1.414214 1.414214 
C 1.789267 1.03916 2 0.530406 2 0 
C 2 -0.530406 1.789267 -1.03916 1.414214 -1.414214 
C 1.03916 -1.789267 0.530406 -2 0 -2 
C -0.530406 -2 -1.03916 -1.789267 -1.414214 -1.414214 
C -1.789267 -1.03916 -2 -0.530406 -2 0 
C -2 0.530406 -1.789267 1.03916 -1.414214 1.414214 
C -1.03916 1.789267 -0.530406 2 0 2 
z
" style="stroke: #ff7f0e"/>
    </defs>
    <g clip-path="url(#p1014aa69ee)">
     <use xlink:href="#m3e9c0b9202" x="61.948061" y="33.156789" style="fill: #ff7f0e; stroke: #ff7f0e"/>
     <use xlink:href="#m3e9c0b9202" x="113.034425" y="33.156789" style="fill: #ff7f0e; stroke: #ff7f0e"/>
     <use xlink:href="#m3e9c0b9202" x="164.120788" y="33.156789" style="fill: #ff7f0e; stroke: #ff7f0e"/>
     <use xlink:href="#m3e9c0b9202" x="215.207152" y="33.156789" style="fill: #ff7f0e; stroke: #ff7f0e"/>
     <use xlink:href="#m3e9c0b9202" x="266.293516" y="33.156789" style="fill: #ff7f0e; stroke: #ff7f0e"/>
     <use xlink:href="#m3e9c0b9202" x="317.379879" y="33.156789" style="fill: #ff7f0e; stroke: #ff7f0e"/>
     <use xlink:href="#m3e9c0b9202" x="368.466243" y="33.156789" style="fill: #ff7f0e; stroke: #ff7f0e"/>
     <use xlink:href="#m3e9c0b9202" x="419.552607" y="33.156789" style="fill: #ff7f0e; stroke: #ff7f0e"/>
     <use xlink:href="#m3e9c0b9202" x="470.63897" y="33.156789" style="fill: #ff7f0e; stroke: #ff7f0e"/>
    </g>
   </g>
   <g id="line2d_31">
    <path d="M 61.948061 33.156789 
L 113.034425 33.156789 
L 164.120788 33.156789 
L 215.207152 33.156789 
L 266.293516 33.156789 
L 317.379879 33.156789 
L 368.466243 33.156789 
L 419.552607 33.156789 
L 470.63897 33.156789 
" clip-path="url(#p1014aa69ee)" style="fill: none; stroke: #2ca02c; stroke-width: 1.5; stroke-linecap: square"/>
    <defs>
     <path id="m8ba56fdeb3" d="M 0 2 
C 0.530406 2 1.03916 1.789267 1.414214 1.414214 
C 1.789267 1.03916 2 0.530406 2 0 
C 2 -0.530406 1.789267 -1.03916 1.414214 -1.414214 
C 1.03916 -1.789267 0.530406 -2 0 -2 
C -0.530406 -2 -1.03916 -1.789267 -1.414214 -1.414214 
C -1.789267 -1.03916 -2 -0.530406 -2 0 
C -2 0.530406 -1.789267 1.03916 -1.414214 1.414214 
C -1.03916 1.789267 -0.530406 2 0 2 
z
" style="stroke: #2ca02c"/>
    </defs>
    <g clip-path="url(#p1014aa69ee)">
     <use xlink:href="#m8ba56fdeb3" x="61.948061" y="33.156789" style="fill: #2ca02c; stroke: #2ca02c"/>
     <use xlink:href="#m8ba56fdeb3" x="113.034425" y="33.156789" style="fill: #2ca02c; stroke: #2ca02c"/>
     <use xlink:href="#m8ba56fdeb3" x="164.120788" y="33.156789" style="fill: #2ca02c; stroke: #2ca02c"/>
     <use xlink:href="#m8ba56fdeb3" x="215.207152" y="33.156789" style="fill: #2ca02c; stroke: #2ca02c"/>
     <use xlink:href="#m8ba56fdeb3" x="266.293516" y="33.156789" style="fill: #2ca02c; stroke: #2ca02c"/>
     <use xlink:href="#m8ba56fdeb3" x="317.379879" y="33.156789" style="fill: #2ca02c; stroke: #2ca02c"/>
     <use xlink:href="#m8ba56fdeb3" x="368.466243" y="33.156789" style="fill: #2ca02c; stroke: #2ca02c"/>
     <use xlink:href="#m8ba56fdeb3" x="419.552607" y="33.156789" style="fill: #2ca02c; stroke: #2ca02c"/>
     <use xlink:href="#m8ba56fdeb3" x="470.63897" y="33.156789" style="fill: #2ca02c; stroke: #2ca02c"/>
    </g>
   </g>
   <g id="line2d_32">
    <path d="M 61.948061 33.156789 
L 113.034425 33.156789 
L 164.120788 33.156789 
L 215.207152 33.156789 
L 266.293516 33.156789 
L 317.379879 33.156789 
L 368.466243 33.156789 
L 419.552607 33.156789 
L 470.63897 33.156789 
" clip-path="url(#p1014aa69ee)" style="fill: none; stroke: #d62728; stroke-width: 1.5; stroke-linecap: square"/>
    <defs>
     <path id="m8ae1cf8b00" d="M 0 2 
C 0.530406 2 1.03916 1.789267 1.414214 1.414214 
C 1.789267 1.03916 2 0.530406 2 0 
C 2 -0.530406 1.789267 -1.03916 1.414214 -1.414214 
C 1.03916 -1.789267 0.530406 -2 0 -2 
C -0.530406 -2 -1.03916 -1.789267 -1.414214 -1.414214 
C -1.789267 -1.03916 -2 -0.530406 -2 0 
C -2 0.530406 -1.789267 1.03916 -1.414214 1.414214 
C -1.03916 1.789267 -0.530406 2 0 2 
z
" style="stroke: #d62728"/>
    </defs>
    <g clip-path="url(#p1014aa69ee)">
     <use xlink:href="#m8ae1cf8b00" x="61.948061" y="33.156789" style="fill: #d62728; stroke: #d62728"/>
     <use xlink:href="#m8ae1cf8b00" x="113.034425" y="33.156789" style="fill: #d62728; stroke: #d62728"/>
     <use xlink:href="#m8ae1cf8b00" x="164.120788" y="33.156789" style="fill: #d62728; stroke: #d62728"/>
     <use xlink:href="#m8ae1cf8b00" x="215.207152" y="33.156789" style="fill: #d62728; stroke: #d62728"/>
     <use xlink:href="#m8ae1cf8b00" x="266.293516" y="33.156789" style="fill: #d62728; stroke: #d62728"/>
     <use xlink:href="#m8ae1cf8b00" x="317.379879" y="33.156789" style="fill: #d62728; stroke: #d62728"/>
     <use xlink:href="#m8ae1cf8b00" x="368.466243" y="33.156789" style="fill: #d62728; stroke: #d62728"/>
     <use xlink:href="#m8ae1cf8b00" x="419.552607" y="33.156789" style="fill: #d62728; stroke: #d62728"/>
     <use xlink:href="#m8ae1cf8b00" x="470.63897" y="33.156789" style="fill: #d62728; stroke: #d62728"/>
    </g>
   </g>
   <g id="line2d_33">
    <path d="M 41.513516 33.156789 
L 491.073516 33.156789 
" clip-path="url(#p1014aa69ee)" style="fill: none; stroke-dasharray: 2.96,1.28; stroke-dashoffset: 0; stroke: #000000; stroke-width: 0.8"/>
   </g>
   <g id="patch_3">
    <path d="M 41.513516 268.166312 
L 41.513516 21.406312 
" style="fill: none; stroke: #000000; stroke-width: 0.8; stroke-linejoin: miter; stroke-linecap: square"/>
   </g>
   <g id="patch_4">
    <path d="M 491.073516 268.166312 
L 491.073516 21.406312 
" style="fill: none; stroke: #000000; stroke-width: 0.8; stroke-linejoin: miter; stroke-linecap: square"/>
   </g>
   <g id="patch_5">
    <path d="M 41.513516 268.166312 
L 491.073516 268.166312 
" style="fill: none; stroke: #000000; stroke-width: 0.8; stroke-linejoin: miter; stroke-linecap: square"/>
   </g>
   <g id="patch_6">
    <path d="M 41.513516 21.406312 
L 491.073516 21.406312 
" style="fill: none; stroke: #000000; stroke-width: 0.8; stroke-linejoin: miter; stroke-linecap: square"/>
   </g>
   <g id="text_17">
    <!-- CUDA vs CPU bit-exactness (row-exact) — 'CUDA bit-identical to CPU' claim -->
    <g transform="translate(62.826578 15.406313) scale(0.108 -0.108)">
     <defs>
      <path id="DejaVuSans-26" d="M 4122 4306 
L 4122 3641 
Q 3803 3938 3442 4084 
Q 3081 4231 2675 4231 
Q 1875 4231 1450 3742 
Q 1025 3253 1025 2328 
Q 1025 1406 1450 917 
Q 1875 428 2675 428 
Q 3081 428 3442 575 
Q 3803 722 4122 1019 
L 4122 359 
Q 3791 134 3420 21 
Q 3050 -91 2638 -91 
Q 1578 -91 968 557 
Q 359 1206 359 2328 
Q 359 3453 968 4101 
Q 1578 4750 2638 4750 
Q 3056 4750 3426 4639 
Q 3797 4528 4122 4306 
z
" transform="scale(0.015625)"/>
      <path id="DejaVuSans-38" d="M 556 4666 
L 1191 4666 
L 1191 1831 
Q 1191 1081 1462 751 
Q 1734 422 2344 422 
Q 2950 422 3222 751 
Q 3494 1081 3494 1831 
L 3494 4666 
L 4128 4666 
L 4128 1753 
Q 4128 841 3676 375 
Q 3225 -91 2344 -91 
Q 1459 -91 1007 375 
Q 556 841 556 1753 
L 556 4666 
z
" transform="scale(0.015625)"/>
      <path id="DejaVuSans-27" d="M 1259 4147 
L 1259 519 
L 2022 519 
Q 2988 519 3436 956 
Q 3884 1394 3884 2338 
Q 3884 3275 3436 3711 
Q 2988 4147 2022 4147 
L 1259 4147 
z
M 628 4666 
L 1925 4666 
Q 3281 4666 3915 4102 
Q 4550 3538 4550 2338 
Q 4550 1131 3912 565 
Q 3275 0 1925 0 
L 628 0 
L 628 4666 
z
" transform="scale(0.015625)"/>
      <path id="DejaVuSans-24" d="M 2188 4044 
L 1331 1722 
L 3047 1722 
L 2188 4044 
z
M 1831 4666 
L 2547 4666 
L 4325 0 
L 3669 0 
L 3244 1197 
L 1141 1197 
L 716 0 
L 50 0 
L 1831 4666 
z
" transform="scale(0.015625)"/>
      <path id="DejaVuSans-59" d="M 191 3500 
L 800 3500 
L 1894 563 
L 2988 3500 
L 3597 3500 
L 2284 0 
L 1503 0 
L 191 3500 
z
" transform="scale(0.015625)"/>
      <path id="DejaVuSans-33" d="M 1259 4147 
L 1259 2394 
L 2053 2394 
Q 2494 2394 2734 2622 
Q 2975 2850 2975 3272 
Q 2975 3691 2734 3919 
Q 2494 4147 2053 4147 
L 1259 4147 
z
M 628 4666 
L 2053 4666 
Q 2838 4666 3239 4311 
Q 3641 3956 3641 3272 
Q 3641 2581 3239 2228 
Q 2838 1875 2053 1875 
L 1259 1875 
L 1259 0 
L 628 0 
L 628 4666 
z
" transform="scale(0.015625)"/>
      <path id="DejaVuSans-45" d="M 3116 1747 
Q 3116 2381 2855 2742 
Q 2594 3103 2138 3103 
Q 1681 3103 1420 2742 
Q 1159 2381 1159 1747 
Q 1159 1113 1420 752 
Q 1681 391 2138 391 
Q 2594 391 2855 752 
Q 3116 1113 3116 1747 
z
M 1159 2969 
Q 1341 3281 1617 3432 
Q 1894 3584 2278 3584 
Q 2916 3584 3314 3078 
Q 3713 2572 3713 1747 
Q 3713 922 3314 415 
Q 2916 -91 2278 -91 
Q 1894 -91 1617 61 
Q 1341 213 1159 525 
L 1159 0 
L 581 0 
L 581 4863 
L 1159 4863 
L 1159 2969 
z
" transform="scale(0.015625)"/>
      <path id="DejaVuSans-10" d="M 313 2009 
L 1997 2009 
L 1997 1497 
L 313 1497 
L 313 2009 
z
" transform="scale(0.015625)"/>
      <path id="DejaVuSans-5b" d="M 3513 3500 
L 2247 1797 
L 3578 0 
L 2900 0 
L 1881 1375 
L 863 0 
L 184 0 
L 1544 1831 
L 300 3500 
L 978 3500 
L 1906 2253 
L 2834 3500 
L 3513 3500 
z
" transform="scale(0.015625)"/>
      <path id="DejaVuSans-b" d="M 1984 4856 
Q 1566 4138 1362 3434 
Q 1159 2731 1159 2009 
Q 1159 1288 1364 580 
Q 1569 -128 1984 -844 
L 1484 -844 
Q 1016 -109 783 600 
Q 550 1309 550 2009 
Q 550 2706 781 3412 
Q 1013 4119 1484 4856 
L 1984 4856 
z
" transform="scale(0.015625)"/>
      <path id="DejaVuSans-c" d="M 513 4856 
L 1013 4856 
Q 1481 4119 1714 3412 
Q 1947 2706 1947 2009 
Q 1947 1309 1714 600 
Q 1481 -109 1013 -844 
L 513 -844 
Q 928 -128 1133 580 
Q 1338 1288 1338 2009 
Q 1338 2731 1133 3434 
Q 928 4138 513 4856 
z
" transform="scale(0.015625)"/>
      <path id="DejaVuSans-af6" d="M 313 1978 
L 6088 1978 
L 6088 1528 
L 313 1528 
L 313 1978 
z
" transform="scale(0.015625)"/>
      <path id="DejaVuSans-a" d="M 1147 4666 
L 1147 2931 
L 616 2931 
L 616 4666 
L 1147 4666 
z
" transform="scale(0.015625)"/>
      <path id="DejaVuSans-50" d="M 3328 2828 
Q 3544 3216 3844 3400 
Q 4144 3584 4550 3584 
Q 5097 3584 5394 3201 
Q 5691 2819 5691 2113 
L 5691 0 
L 5113 0 
L 5113 2094 
Q 5113 2597 4934 2840 
Q 4756 3084 4391 3084 
Q 3944 3084 3684 2787 
Q 3425 2491 3425 1978 
L 3425 0 
L 2847 0 
L 2847 2094 
Q 2847 2600 2669 2842 
Q 2491 3084 2119 3084 
Q 1678 3084 1418 2786 
Q 1159 2488 1159 1978 
L 1159 0 
L 581 0 
L 581 3500 
L 1159 3500 
L 1159 2956 
Q 1356 3278 1631 3431 
Q 1906 3584 2284 3584 
Q 2666 3584 2933 3390 
Q 3200 3197 3328 2828 
z
" transform="scale(0.015625)"/>
     </defs>
     <use xlink:href="#DejaVuSans-26"/>
     <use xlink:href="#DejaVuSans-38" transform="translate(69.828125 0)"/>
     <use xlink:href="#DejaVuSans-27" transform="translate(143.015625 0)"/>
     <use xlink:href="#DejaVuSans-24" transform="translate(218.265625 0)"/>
     <use xlink:href="#DejaVuSans-3" transform="translate(286.671875 0)"/>
     <use xlink:href="#DejaVuSans-59" transform="translate(318.453125 0)"/>
     <use xlink:href="#DejaVuSans-56" transform="translate(377.640625 0)"/>
     <use xlink:href="#DejaVuSans-3" transform="translate(429.734375 0)"/>
     <use xlink:href="#DejaVuSans-26" transform="translate(461.515625 0)"/>
     <use xlink:href="#DejaVuSans-33" transform="translate(531.34375 0)"/>
     <use xlink:href="#DejaVuSans-38" transform="translate(591.640625 0)"/>
     <use xlink:href="#DejaVuSans-3" transform="translate(664.828125 0)"/>
     <use xlink:href="#DejaVuSans-45" transform="translate(696.609375 0)"/>
     <use xlink:href="#DejaVuSans-4c" transform="translate(760.09375 0)"/>
     <use xlink:href="#DejaVuSans-57" transform="translate(787.875 0)"/>
     <use xlink:href="#DejaVuSans-10" transform="translate(827.078125 0)"/>
     <use xlink:href="#DejaVuSans-48" transform="translate(863.15625 0)"/>
     <use xlink:href="#DejaVuSans-5b" transform="translate(922.9375 0)"/>
     <use xlink:href="#DejaVuSans-44" transform="translate(982.125 0)"/>
     <use xlink:href="#DejaVuSans-46" transform="translate(1043.40625 0)"/>
     <use xlink:href="#DejaVuSans-57" transform="translate(1098.390625 0)"/>
     <use xlink:href="#DejaVuSans-51" transform="translate(1137.59375 0)"/>
     <use xlink:href="#DejaVuSans-48" transform="translate(1200.96875 0)"/>
     <use xlink:href="#DejaVuSans-56" transform="translate(1262.5 0)"/>
     <use xlink:href="#DejaVuSans-56" transform="translate(1314.59375 0)"/>
     <use xlink:href="#DejaVuSans-3" transform="translate(1366.6875 0)"/>
     <use xlink:href="#DejaVuSans-b" transform="translate(1398.46875 0)"/>
     <use xlink:href="#DejaVuSans-55" transform="translate(1437.484375 0)"/>
     <use xlink:href="#DejaVuSans-52" transform="translate(1476.390625 0)"/>
     <use xlink:href="#DejaVuSans-5a" transform="translate(1537.578125 0)"/>
     <use xlink:href="#DejaVuSans-10" transform="translate(1619.359375 0)"/>
     <use xlink:href="#DejaVuSans-48" transform="translate(1655.4375 0)"/>
     <use xlink:href="#DejaVuSans-5b" transform="translate(1715.21875 0)"/>
     <use xlink:href="#DejaVuSans-44" transform="translate(1774.40625 0)"/>
     <use xlink:href="#DejaVuSans-46" transform="translate(1835.6875 0)"/>
     <use xlink:href="#DejaVuSans-57" transform="translate(1890.671875 0)"/>
     <use xlink:href="#DejaVuSans-c" transform="translate(1929.875 0)"/>
     <use xlink:href="#DejaVuSans-3" transform="translate(1968.890625 0)"/>
     <use xlink:href="#DejaVuSans-af6" transform="translate(2000.671875 0)"/>
     <use xlink:href="#DejaVuSans-3" transform="translate(2100.671875 0)"/>
     <use xlink:href="#DejaVuSans-a" transform="translate(2132.453125 0)"/>
     <use xlink:href="#DejaVuSans-26" transform="translate(2159.9375 0)"/>
     <use xlink:href="#DejaVuSans-38" transform="translate(2229.765625 0)"/>
     <use xlink:href="#DejaVuSans-27" transform="translate(2302.953125 0)"/>
     <use xlink:href="#DejaVuSans-24" transform="translate(2378.203125 0)"/>
     <use xlink:href="#DejaVuSans-3" transform="translate(2446.609375 0)"/>
     <use xlink:href="#DejaVuSans-45" transform="translate(2478.390625 0)"/>
     <use xlink:href="#DejaVuSans-4c" transform="translate(2541.875 0)"/>
     <use xlink:href="#DejaVuSans-57" transform="translate(2569.65625 0)"/>
     <use xlink:href="#DejaVuSans-10" transform="translate(2608.859375 0)"/>
     <use xlink:href="#DejaVuSans-4c" transform="translate(2644.9375 0)"/>
     <use xlink:href="#DejaVuSans-47" transform="translate(2672.71875 0)"/>
     <use xlink:href="#DejaVuSans-48" transform="translate(2736.203125 0)"/>
     <use xlink:href="#DejaVuSans-51" transform="translate(2797.734375 0)"/>
     <use xlink:href="#DejaVuSans-57" transform="translate(2861.109375 0)"/>
     <use xlink:href="#DejaVuSans-4c" transform="translate(2900.3125 0)"/>
     <use xlink:href="#DejaVuSans-46" transform="translate(2928.09375 0)"/>
     <use xlink:href="#DejaVuSans-44" transform="translate(2983.078125 0)"/>
     <use xlink:href="#DejaVuSans-4f" transform="translate(3044.359375 0)"/>
     <use xlink:href="#DejaVuSans-3" transform="translate(3072.140625 0)"/>
     <use xlink:href="#DejaVuSans-57" transform="translate(3103.921875 0)"/>
     <use xlink:href="#DejaVuSans-52" transform="translate(3143.125 0)"/>
     <use xlink:href="#DejaVuSans-3" transform="translate(3204.3125 0)"/>
     <use xlink:href="#DejaVuSans-26" transform="translate(3236.09375 0)"/>
     <use xlink:href="#DejaVuSans-33" transform="translate(3305.921875 0)"/>
     <use xlink:href="#DejaVuSans-38" transform="translate(3366.21875 0)"/>
     <use xlink:href="#DejaVuSans-a" transform="translate(3439.40625 0)"/>
     <use xlink:href="#DejaVuSans-3" transform="translate(3466.890625 0)"/>
     <use xlink:href="#DejaVuSans-46" transform="translate(3498.671875 0)"/>
     <use xlink:href="#DejaVuSans-4f" transform="translate(3553.65625 0)"/>
     <use xlink:href="#DejaVuSans-44" transform="translate(3581.4375 0)"/>
     <use xlink:href="#DejaVuSans-4c" transform="translate(3642.71875 0)"/>
     <use xlink:href="#DejaVuSans-50" transform="translate(3670.5 0)"/>
    </g>
   </g>
   <g id="legend_1">
    <g id="patch_7">
     <path d="M 46.413516 264.666313 
L 164.931172 264.666313 
Q 166.331172 264.666313 166.331172 263.266312 
L 166.331172 221.964125 
Q 166.331172 220.564125 164.931172 220.564125 
L 46.413516 220.564125 
Q 45.013516 220.564125 45.013516 221.964125 
L 45.013516 263.266312 
Q 45.013516 264.666313 46.413516 264.666313 
z
" style="fill: #ffffff; opacity: 0.8; stroke: #cccccc; stroke-linejoin: miter"/>
    </g>
    <g id="line2d_34">
     <path d="M 47.813516 226.233031 
L 54.813516 226.233031 
L 61.813516 226.233031 
" style="fill: none; stroke: #1f77b4; stroke-width: 1.5; stroke-linecap: square"/>
     <g>
      <use xlink:href="#ma29b14800a" x="54.813516" y="226.233031" style="fill: #1f77b4; stroke: #1f77b4"/>
     </g>
    </g>
    <g id="text_18">
     <!-- CUDA vs Blossom -->
     <g transform="translate(67.413516 228.683031) scale(0.07 -0.07)">
      <defs>
       <path id="DejaVuSans-25" d="M 1259 2228 
L 1259 519 
L 2272 519 
Q 2781 519 3026 730 
Q 3272 941 3272 1375 
Q 3272 1813 3026 2020 
Q 2781 2228 2272 2228 
L 1259 2228 
z
M 1259 4147 
L 1259 2741 
L 2194 2741 
Q 2656 2741 2882 2914 
Q 3109 3088 3109 3444 
Q 3109 3797 2882 3972 
Q 2656 4147 2194 4147 
L 1259 4147 
z
M 628 4666 
L 2241 4666 
Q 2963 4666 3353 4366 
Q 3744 4066 3744 3513 
Q 3744 3084 3544 2831 
Q 3344 2578 2956 2516 
Q 3422 2416 3680 2098 
Q 3938 1781 3938 1306 
Q 3938 681 3513 340 
Q 3088 0 2303 0 
L 628 0 
L 628 4666 
z
" transform="scale(0.015625)"/>
      </defs>
      <use xlink:href="#DejaVuSans-26"/>
      <use xlink:href="#DejaVuSans-38" transform="translate(69.828125 0)"/>
      <use xlink:href="#DejaVuSans-27" transform="translate(143.015625 0)"/>
      <use xlink:href="#DejaVuSans-24" transform="translate(218.265625 0)"/>
      <use xlink:href="#DejaVuSans-3" transform="translate(286.671875 0)"/>
      <use xlink:href="#DejaVuSans-59" transform="translate(318.453125 0)"/>
      <use xlink:href="#DejaVuSans-56" transform="translate(377.640625 0)"/>
      <use xlink:href="#DejaVuSans-3" transform="translate(429.734375 0)"/>
      <use xlink:href="#DejaVuSans-25" transform="translate(461.515625 0)"/>
      <use xlink:href="#DejaVuSans-4f" transform="translate(530.125 0)"/>
      <use xlink:href="#DejaVuSans-52" transform="translate(557.90625 0)"/>
      <use xlink:href="#DejaVuSans-56" transform="translate(619.09375 0)"/>
      <use xlink:href="#DejaVuSans-56" transform="translate(671.1875 0)"/>
      <use xlink:href="#DejaVuSans-52" transform="translate(723.28125 0)"/>
      <use xlink:href="#DejaVuSans-50" transform="translate(784.46875 0)"/>
     </g>
    </g>
    <g id="line2d_35">
     <path d="M 47.813516 236.733578 
L 54.813516 236.733578 
L 61.813516 236.733578 
" style="fill: none; stroke: #ff7f0e; stroke-width: 1.5; stroke-linecap: square"/>
     <g>
      <use xlink:href="#m3e9c0b9202" x="54.813516" y="236.733578" style="fill: #ff7f0e; stroke: #ff7f0e"/>
     </g>
    </g>
    <g id="text_19">
     <!-- CUDA vs CPUBatchDecoder -->
     <g transform="translate(67.413516 239.183578) scale(0.07 -0.07)">
      <use xlink:href="#DejaVuSans-26"/>
      <use xlink:href="#DejaVuSans-38" transform="translate(69.828125 0)"/>
      <use xlink:href="#DejaVuSans-27" transform="translate(143.015625 0)"/>
      <use xlink:href="#DejaVuSans-24" transform="translate(218.265625 0)"/>
      <use xlink:href="#DejaVuSans-3" transform="translate(286.671875 0)"/>
      <use xlink:href="#DejaVuSans-59" transform="translate(318.453125 0)"/>
      <use xlink:href="#DejaVuSans-56" transform="translate(377.640625 0)"/>
      <use xlink:href="#DejaVuSans-3" transform="translate(429.734375 0)"/>
      <use xlink:href="#DejaVuSans-26" transform="translate(461.515625 0)"/>
      <use xlink:href="#DejaVuSans-33" transform="translate(531.34375 0)"/>
      <use xlink:href="#DejaVuSans-38" transform="translate(591.640625 0)"/>
      <use xlink:href="#DejaVuSans-25" transform="translate(664.828125 0)"/>
      <use xlink:href="#DejaVuSans-44" transform="translate(733.4375 0)"/>
      <use xlink:href="#DejaVuSans-57" transform="translate(794.71875 0)"/>
      <use xlink:href="#DejaVuSans-46" transform="translate(833.921875 0)"/>
      <use xlink:href="#DejaVuSans-4b" transform="translate(888.90625 0)"/>
      <use xlink:href="#DejaVuSans-27" transform="translate(952.28125 0)"/>
      <use xlink:href="#DejaVuSans-48" transform="translate(1029.28125 0)"/>
      <use xlink:href="#DejaVuSans-46" transform="translate(1090.8125 0)"/>
      <use xlink:href="#DejaVuSans-52" transform="translate(1145.796875 0)"/>
      <use xlink:href="#DejaVuSans-47" transform="translate(1206.984375 0)"/>
      <use xlink:href="#DejaVuSans-48" transform="translate(1270.46875 0)"/>
      <use xlink:href="#DejaVuSans-55" transform="translate(1332 0)"/>
     </g>
    </g>
    <g id="line2d_36">
     <path d="M 47.813516 247.234125 
L 54.813516 247.234125 
L 61.813516 247.234125 
" style="fill: none; stroke: #2ca02c; stroke-width: 1.5; stroke-linecap: square"/>
     <g>
      <use xlink:href="#m8ba56fdeb3" x="54.813516" y="247.234125" style="fill: #2ca02c; stroke: #2ca02c"/>
     </g>
    </g>
    <g id="text_20">
     <!-- CUDA vs FastUnionFind -->
     <g transform="translate(67.413516 249.684125) scale(0.07 -0.07)">
      <defs>
       <path id="DejaVuSans-29" d="M 628 4666 
L 3309 4666 
L 3309 4134 
L 1259 4134 
L 1259 2759 
L 3109 2759 
L 3109 2228 
L 1259 2228 
L 1259 0 
L 628 0 
L 628 4666 
z
" transform="scale(0.015625)"/>
      </defs>
      <use xlink:href="#DejaVuSans-26"/>
      <use xlink:href="#DejaVuSans-38" transform="translate(69.828125 0)"/>
      <use xlink:href="#DejaVuSans-27" transform="translate(143.015625 0)"/>
      <use xlink:href="#DejaVuSans-24" transform="translate(218.265625 0)"/>
      <use xlink:href="#DejaVuSans-3" transform="translate(286.671875 0)"/>
      <use xlink:href="#DejaVuSans-59" transform="translate(318.453125 0)"/>
      <use xlink:href="#DejaVuSans-56" transform="translate(377.640625 0)"/>
      <use xlink:href="#DejaVuSans-3" transform="translate(429.734375 0)"/>
      <use xlink:href="#DejaVuSans-29" transform="translate(461.515625 0)"/>
      <use xlink:href="#DejaVuSans-44" transform="translate(509.859375 0)"/>
      <use xlink:href="#DejaVuSans-56" transform="translate(571.140625 0)"/>
      <use xlink:href="#DejaVuSans-57" transform="translate(623.234375 0)"/>
      <use xlink:href="#DejaVuSans-38" transform="translate(662.4375 0)"/>
      <use xlink:href="#DejaVuSans-51" transform="translate(735.625 0)"/>
      <use xlink:href="#DejaVuSans-4c" transform="translate(799 0)"/>
      <use xlink:href="#DejaVuSans-52" transform="translate(826.78125 0)"/>
      <use xlink:href="#DejaVuSans-51" transform="translate(887.96875 0)"/>
      <use xlink:href="#DejaVuSans-29" transform="translate(951.34375 0)"/>
      <use xlink:href="#DejaVuSans-4c" transform="translate(1001.578125 0)"/>
      <use xlink:href="#DejaVuSans-51" transform="translate(1029.359375 0)"/>
      <use xlink:href="#DejaVuSans-47" transform="translate(1092.734375 0)"/>
     </g>
    </g>
    <g id="line2d_37">
     <path d="M 47.813516 257.734672 
L 54.813516 257.734672 
L 61.813516 257.734672 
" style="fill: none; stroke: #d62728; stroke-width: 1.5; stroke-linecap: square"/>
     <g>
      <use xlink:href="#m8ae1cf8b00" x="54.813516" y="257.734672" style="fill: #d62728; stroke: #d62728"/>
     </g>
    </g>
    <g id="text_21">
     <!-- CUDA vs UnionFind -->
     <g transform="translate(67.413516 260.184672) scale(0.07 -0.07)">
      <use xlink:href="#DejaVuSans-26"/>
      <use xlink:href="#DejaVuSans-38" transform="translate(69.828125 0)"/>
      <use xlink:href="#DejaVuSans-27" transform="translate(143.015625 0)"/>
      <use xlink:href="#DejaVuSans-24" transform="translate(218.265625 0)"/>
      <use xlink:href="#DejaVuSans-3" transform="translate(286.671875 0)"/>
      <use xlink:href="#DejaVuSans-59" transform="translate(318.453125 0)"/>
      <use xlink:href="#DejaVuSans-56" transform="translate(377.640625 0)"/>
      <use xlink:href="#DejaVuSans-3" transform="translate(429.734375 0)"/>
      <use xlink:href="#DejaVuSans-38" transform="translate(461.515625 0)"/>
      <use xlink:href="#DejaVuSans-51" transform="translate(534.703125 0)"/>
      <use xlink:href="#DejaVuSans-4c" transform="translate(598.078125 0)"/>
      <use xlink:href="#DejaVuSans-52" transform="translate(625.859375 0)"/>
      <use xlink:href="#DejaVuSans-51" transform="translate(687.046875 0)"/>
      <use xlink:href="#DejaVuSans-29" transform="translate(750.421875 0)"/>
      <use xlink:href="#DejaVuSans-4c" transform="translate(800.65625 0)"/>
      <use xlink:href="#DejaVuSans-51" transform="translate(828.4375 0)"/>
      <use xlink:href="#DejaVuSans-47" transform="translate(891.8125 0)"/>
     </g>
    </g>
   </g>
  </g>
 </g>
 <defs>
  <clipPath id="p1014aa69ee">
   <rect x="41.513516" y="21.406313" width="449.56" height="246.76"/>
  </clipPath>
 </defs>
</svg>
