<?xml version="1.0" encoding="utf-8" standalone="no"?>
<!DOCTYPE svg PUBLIC "-//W3C//DTD SVG 1.1//EN"
  "http://www.w3.org/Graphics/SVG/1.1/DTD/svg11.dtd">
<svg xmlns:xlink="http://www.w3.org/1999/xlink" width="498.686953pt" height="304.427016pt" viewBox="0 0 498.686953 304.427016" xmlns="http://www.w3.org/2000/svg" version="1.1">
 <metadata>
  <rdf:RDF xmlns:dc="http://purl.org/dc/elements/1.1/" xmlns:cc="http://creativecommons.org/ns#" xmlns:rdf="http://www.w3.org/1999/02/22-rdf-syntax-ns#">
   <cc:Work>
    <dc:type rdf:resource="http://purl.org/dc/dcmitype/StillImage"/>
    <dc:date>2026-07-22T16:07:53.775679</dc:date>
    <dc:format>image/svg+xml</dc:format>
    <dc:creator>
     <cc:Agent>
      <dc:title>Matplotlib v3.11.1, https://matplotlib.org/</dc:title>
     </cc:Agent>
    </dc:creator>
   </cc:Work>
  </rdf:RDF>
 </metadata>
 <defs>
  <style type="text/css">*{stroke-linejoin: round; stroke-linecap: butt}</style>
 </defs>
 <g id="figure_1">
  <g id="patch_1">
   <path d="M 0 304.427016 
L 498.686953 304.427016 
L 498.686953 0 
L 0 0 
z
" style="fill: #ffffff"/>
  </g>
  <g id="axes_1">
   <g id="patch_2">
    <path d="M 32.926953 266.604203 
L 491.486953 266.604203 
L 491.486953 21.406313 
L 32.926953 21.406313 
z
" style="fill: #ffffff"/>
   </g>
   <g id="matplotlib.axis_1">
    <g id="xtick_1">
     <g id="line2d_1">
      <path d="M 53.770589 266.604203 
L 53.770589 21.406313 
" clip-path="url(#p28bca59e53)" style="fill: none; stroke: #b0b0b0; stroke-opacity: 0.3; stroke-width: 0.8; stroke-linecap: square"/>
     </g>
     <g id="line2d_2">
      <defs>
       <path id="m6c8775efc3" d="M 0 0 
L 0 3.5 
" style="stroke: #000000; stroke-width: 0.8"/>
      </defs>
      <g>
       <use xlink:href="#m6c8775efc3" x="53.770589" y="266.604203" style="stroke: #000000; stroke-width: 0.8"/>
      </g>
     </g>
     <g id="text_1">
      <!-- $\mathdefault{10^{3}}$ -->
      <g transform="translate(45.850589 282.064203) scale(0.09 -0.09)">
       <defs>
        <path id="DejaVuSans-14" d="M 794 531 
L 1825 531 
L 1825 4091 
L 703 3866 
L 703 4441 
L 1819 4666 
L 2450 4666 
L 2450 531 
L 3481 531 
L 3481 0 
L 794 0 
L 794 531 
z
" transform="scale(0.015625)"/>
        <path id="DejaVuSans-13" d="M 2034 4250 
Q 1547 4250 1301 3770 
Q 1056 3291 1056 2328 
Q 1056 1369 1301 889 
Q 1547 409 2034 409 
Q 2525 409 2770 889 
Q 3016 1369 3016 2328 
Q 3016 3291 2770 3770 
Q 2525 4250 2034 4250 
z
M 2034 4750 
Q 2819 4750 3233 4129 
Q 3647 3509 3647 2328 
Q 3647 1150 3233 529 
Q 2819 -91 2034 -91 
Q 1250 -91 836 529 
Q 422 1150 422 2328 
Q 422 3509 836 4129 
Q 1250 4750 2034 4750 
z
" transform="scale(0.015625)"/>
        <path id="DejaVuSans-16" d="M 2597 2516 
Q 3050 2419 3304 2112 
Q 3559 1806 3559 1356 
Q 3559 666 3084 287 
Q 2609 -91 1734 -91 
Q 1441 -91 1130 -33 
Q 819 25 488 141 
L 488 750 
Q 750 597 1062 519 
Q 1375 441 1716 441 
Q 2309 441 2620 675 
Q 2931 909 2931 1356 
Q 2931 1769 2642 2001 
Q 2353 2234 1838 2234 
L 1294 2234 
L 1294 2753 
L 1863 2753 
Q 2328 2753 2575 2939 
Q 2822 3125 2822 3475 
Q 2822 3834 2567 4026 
Q 2313 4219 1838 4219 
Q 1578 4219 1281 4162 
Q 984 4106 628 3988 
L 628 4550 
Q 988 4650 1302 4700 
Q 1616 4750 1894 4750 
Q 2613 4750 3031 4423 
Q 3450 4097 3450 3541 
Q 3450 3153 3228 2886 
Q 3006 2619 2597 2516 
z
" transform="scale(0.015625)"/>
       </defs>
       <use xlink:href="#DejaVuSans-14" transform="translate(0 0.746875)"/>
       <use xlink:href="#DejaVuSans-13" transform="translate(63.623047 0.746875)"/>
       <use xlink:href="#DejaVuSans-16" transform="translate(128.203125 42.046875) scale(0.7)"/>
      </g>
     </g>
    </g>
    <g id="xtick_2">
     <g id="line2d_3">
      <path d="M 234.93847 266.604203 
L 234.93847 21.406313 
" clip-path="url(#p28bca59e53)" style="fill: none; stroke: #b0b0b0; stroke-opacity: 0.3; stroke-width: 0.8; stroke-linecap: square"/>
     </g>
     <g id="line2d_4">
      <g>
       <use xlink:href="#m6c8775efc3" x="234.93847" y="266.604203" style="stroke: #000000; stroke-width: 0.8"/>
      </g>
     </g>
     <g id="text_2">
      <!-- $\mathdefault{10^{4}}$ -->
      <g transform="translate(227.01847 281.974203) scale(0.09 -0.09)">
       <defs>
        <path id="DejaVuSans-17" d="M 2419 4116 
L 825 1625 
L 2419 1625 
L 2419 4116 
z
M 2253 4666 
L 3047 4666 
L 3047 1625 
L 3713 1625 
L 3713 1100 
L 3047 1100 
L 3047 0 
L 2419 0 
L 2419 1100 
L 313 1100 
L 313 1709 
L 2253 4666 
z
" transform="scale(0.015625)"/>
       </defs>
       <use xlink:href="#DejaVuSans-14" transform="translate(0 0.665625)"/>
       <use xlink:href="#DejaVuSans-13" transform="translate(63.623047 0.665625)"/>
       <use xlink:href="#DejaVuSans-17" transform="translate(128.203125 41.965625) scale(0.7)"/>
      </g>
     </g>
    </g>
    <g id="xtick_3">
     <g id="line2d_5">
      <path d="M 416.10635 266.604203 
L 416.10635 21.406313 
" clip-path="url(#p28bca59e53)" style="fill: none; stroke: #b0b0b0; stroke-opacity: 0.3; stroke-width: 0.8; stroke-linecap: square"/>
     </g>
     <g id="line2d_6">
      <g>
       <use xlink:href="#m6c8775efc3" x="416.10635" y="266.604203" style="stroke: #000000; stroke-width: 0.8"/>
      </g>
     </g>
     <g id="text_3">
      <!-- $\mathdefault{10^{5}}$ -->
      <g transform="translate(408.18635 281.974203) scale(0.09 -0.09)">
       <defs>
        <path id="DejaVuSans-18" d="M 691 4666 
L 3169 4666 
L 3169 4134 
L 1269 4134 
L 1269 2991 
Q 1406 3038 1543 3061 
Q 1681 3084 1819 3084 
Q 2600 3084 3056 2656 
Q 3513 2228 3513 1497 
Q 3513 744 3044 326 
Q 2575 -91 1722 -91 
Q 1428 -91 1123 -41 
Q 819 9 494 109 
L 494 744 
Q 775 591 1075 516 
Q 1375 441 1709 441 
Q 2250 441 2565 725 
Q 2881 1009 2881 1497 
Q 2881 1984 2565 2268 
Q 2250 2553 1709 2553 
Q 1456 2553 1204 2497 
Q 953 2441 691 2322 
L 691 4666 
z
" transform="scale(0.015625)"/>
       </defs>
       <use xlink:href="#DejaVuSans-14" transform="translate(0 0.665625)"/>
       <use xlink:href="#DejaVuSans-13" transform="translate(63.623047 0.665625)"/>
       <use xlink:href="#DejaVuSans-18" transform="translate(128.203125 41.965625) scale(0.7)"/>
      </g>
     </g>
    </g>
    <g id="xtick_4">
     <g id="line2d_7">
      <defs>
       <path id="mc56bbb6254" d="M 0 0 
L 0 2 
" style="stroke: #000000; stroke-width: 0.6"/>
      </defs>
      <g>
       <use xlink:href="#mc56bbb6254" x="36.213608" y="266.604203" style="stroke: #000000; stroke-width: 0.6"/>
      </g>
     </g>
    </g>
    <g id="xtick_5">
     <g id="line2d_8">
      <g>
       <use xlink:href="#mc56bbb6254" x="45.480802" y="266.604203" style="stroke: #000000; stroke-width: 0.6"/>
      </g>
     </g>
    </g>
    <g id="xtick_6">
     <g id="line2d_9">
      <g>
       <use xlink:href="#mc56bbb6254" x="108.307556" y="266.604203" style="stroke: #000000; stroke-width: 0.6"/>
      </g>
     </g>
    </g>
    <g id="xtick_7">
     <g id="line2d_10">
      <g>
       <use xlink:href="#mc56bbb6254" x="140.209636" y="266.604203" style="stroke: #000000; stroke-width: 0.6"/>
      </g>
     </g>
    </g>
    <g id="xtick_8">
     <g id="line2d_11">
      <g>
       <use xlink:href="#mc56bbb6254" x="162.844522" y="266.604203" style="stroke: #000000; stroke-width: 0.6"/>
      </g>
     </g>
    </g>
    <g id="xtick_9">
     <g id="line2d_12">
      <g>
       <use xlink:href="#mc56bbb6254" x="180.401504" y="266.604203" style="stroke: #000000; stroke-width: 0.6"/>
      </g>
     </g>
    </g>
    <g id="xtick_10">
     <g id="line2d_13">
      <g>
       <use xlink:href="#mc56bbb6254" x="194.746602" y="266.604203" style="stroke: #000000; stroke-width: 0.6"/>
      </g>
     </g>
    </g>
    <g id="xtick_11">
     <g id="line2d_14">
      <g>
       <use xlink:href="#mc56bbb6254" x="206.87521" y="266.604203" style="stroke: #000000; stroke-width: 0.6"/>
      </g>
     </g>
    </g>
    <g id="xtick_12">
     <g id="line2d_15">
      <g>
       <use xlink:href="#mc56bbb6254" x="217.381488" y="266.604203" style="stroke: #000000; stroke-width: 0.6"/>
      </g>
     </g>
    </g>
    <g id="xtick_13">
     <g id="line2d_16">
      <g>
       <use xlink:href="#mc56bbb6254" x="226.648682" y="266.604203" style="stroke: #000000; stroke-width: 0.6"/>
      </g>
     </g>
    </g>
    <g id="xtick_14">
     <g id="line2d_17">
      <g>
       <use xlink:href="#mc56bbb6254" x="289.475436" y="266.604203" style="stroke: #000000; stroke-width: 0.6"/>
      </g>
     </g>
    </g>
    <g id="xtick_15">
     <g id="line2d_18">
      <g>
       <use xlink:href="#mc56bbb6254" x="321.377516" y="266.604203" style="stroke: #000000; stroke-width: 0.6"/>
      </g>
     </g>
    </g>
    <g id="xtick_16">
     <g id="line2d_19">
      <g>
       <use xlink:href="#mc56bbb6254" x="344.012403" y="266.604203" style="stroke: #000000; stroke-width: 0.6"/>
      </g>
     </g>
    </g>
    <g id="xtick_17">
     <g id="line2d_20">
      <g>
       <use xlink:href="#mc56bbb6254" x="361.569384" y="266.604203" style="stroke: #000000; stroke-width: 0.6"/>
      </g>
     </g>
    </g>
    <g id="xtick_18">
     <g id="line2d_21">
      <g>
       <use xlink:href="#mc56bbb6254" x="375.914483" y="266.604203" style="stroke: #000000; stroke-width: 0.6"/>
      </g>
     </g>
    </g>
    <g id="xtick_19">
     <g id="line2d_22">
      <g>
       <use xlink:href="#mc56bbb6254" x="388.043091" y="266.604203" style="stroke: #000000; stroke-width: 0.6"/>
      </g>
     </g>
    </g>
    <g id="xtick_20">
     <g id="line2d_23">
      <g>
       <use xlink:href="#mc56bbb6254" x="398.549369" y="266.604203" style="stroke: #000000; stroke-width: 0.6"/>
      </g>
     </g>
    </g>
    <g id="xtick_21">
     <g id="line2d_24">
      <g>
       <use xlink:href="#mc56bbb6254" x="407.816563" y="266.604203" style="stroke: #000000; stroke-width: 0.6"/>
      </g>
     </g>
    </g>
    <g id="xtick_22">
     <g id="line2d_25">
      <g>
       <use xlink:href="#mc56bbb6254" x="470.643317" y="266.604203" style="stroke: #000000; stroke-width: 0.6"/>
      </g>
     </g>
    </g>
    <g id="text_4">
     <!-- shots -->
     <g transform="translate(250.149062 295.064906) scale(0.09 -0.09)">
      <defs>
       <path id="DejaVuSans-56" d="M 2834 3397 
L 2834 2853 
Q 2591 2978 2328 3040 
Q 2066 3103 1784 3103 
Q 1356 3103 1142 2972 
Q 928 2841 928 2578 
Q 928 2378 1081 2264 
Q 1234 2150 1697 2047 
L 1894 2003 
Q 2506 1872 2764 1633 
Q 3022 1394 3022 966 
Q 3022 478 2636 193 
Q 2250 -91 1575 -91 
Q 1294 -91 989 -36 
Q 684 19 347 128 
L 347 722 
Q 666 556 975 473 
Q 1284 391 1588 391 
Q 1994 391 2212 530 
Q 2431 669 2431 922 
Q 2431 1156 2273 1281 
Q 2116 1406 1581 1522 
L 1381 1569 
Q 847 1681 609 1914 
Q 372 2147 372 2553 
Q 372 3047 722 3315 
Q 1072 3584 1716 3584 
Q 2034 3584 2315 3537 
Q 2597 3491 2834 3397 
z
" transform="scale(0.015625)"/>
       <path id="DejaVuSans-4b" d="M 3513 2113 
L 3513 0 
L 2938 0 
L 2938 2094 
Q 2938 2591 2744 2837 
Q 2550 3084 2163 3084 
Q 1697 3084 1428 2787 
Q 1159 2491 1159 1978 
L 1159 0 
L 581 0 
L 581 4863 
L 1159 4863 
L 1159 2956 
Q 1366 3272 1645 3428 
Q 1925 3584 2291 3584 
Q 2894 3584 3203 3211 
Q 3513 2838 3513 2113 
z
" transform="scale(0.015625)"/>
       <path id="DejaVuSans-52" d="M 1959 3097 
Q 1497 3097 1228 2736 
Q 959 2375 959 1747 
Q 959 1119 1226 758 
Q 1494 397 1959 397 
Q 2419 397 2687 759 
Q 2956 1122 2956 1747 
Q 2956 2369 2687 2733 
Q 2419 3097 1959 3097 
z
M 1959 3584 
Q 2709 3584 3137 3096 
Q 3566 2609 3566 1747 
Q 3566 888 3137 398 
Q 2709 -91 1959 -91 
Q 1206 -91 779 398 
Q 353 888 353 1747 
Q 353 2609 779 3096 
Q 1206 3584 1959 3584 
z
" transform="scale(0.015625)"/>
       <path id="DejaVuSans-57" d="M 1172 4494 
L 1172 3500 
L 2356 3500 
L 2356 3053 
L 1172 3053 
L 1172 1153 
Q 1172 725 1289 603 
Q 1406 481 1766 481 
L 2356 481 
L 2356 0 
L 1766 0 
Q 1100 0 847 248 
Q 594 497 594 1153 
L 594 3053 
L 172 3053 
L 172 3500 
L 594 3500 
L 594 4494 
L 1172 4494 
z
" transform="scale(0.015625)"/>
      </defs>
      <use xlink:href="#DejaVuSans-56"/>
      <use xlink:href="#DejaVuSans-4b" transform="translate(52.09375 0)"/>
      <use xlink:href="#DejaVuSans-52" transform="translate(115.46875 0)"/>
      <use xlink:href="#DejaVuSans-57" transform="translate(176.65625 0)"/>
      <use xlink:href="#DejaVuSans-56" transform="translate(215.859375 0)"/>
     </g>
    </g>
   </g>
   <g id="matplotlib.axis_2">
    <g id="ytick_1">
     <g id="line2d_26">
      <path d="M 32.926953 264.014989 
L 491.486953 264.014989 
" clip-path="url(#p28bca59e53)" style="fill: none; stroke: #b0b0b0; stroke-opacity: 0.3; stroke-width: 0.8; stroke-linecap: square"/>
     </g>
     <g id="line2d_27">
      <defs>
       <path id="m99da631370" d="M 0 0 
L -3.5 0 
" style="stroke: #000000; stroke-width: 0.8"/>
      </defs>
      <g>
       <use xlink:href="#m99da631370" x="32.926953" y="264.014989" style="stroke: #000000; stroke-width: 0.8"/>
      </g>
     </g>
     <g id="text_5">
      <!-- 0 -->
      <g transform="translate(20.200703 267.433934) scale(0.09 -0.09)">
       <use xlink:href="#DejaVuSans-13"/>
      </g>
     </g>
    </g>
    <g id="ytick_2">
     <g id="line2d_28">
      <path d="M 32.926953 236.006835 
L 491.486953 236.006835 
" clip-path="url(#p28bca59e53)" style="fill: none; stroke: #b0b0b0; stroke-opacity: 0.3; stroke-width: 0.8; stroke-linecap: square"/>
     </g>
     <g id="line2d_29">
      <g>
       <use xlink:href="#m99da631370" x="32.926953" y="236.006835" style="stroke: #000000; stroke-width: 0.8"/>
      </g>
     </g>
     <g id="text_6">
      <!-- 1 -->
      <g transform="translate(20.200703 239.42578) scale(0.09 -0.09)">
       <use xlink:href="#DejaVuSans-14"/>
      </g>
     </g>
    </g>
    <g id="ytick_3">
     <g id="line2d_30">
      <path d="M 32.926953 207.998681 
L 491.486953 207.998681 
" clip-path="url(#p28bca59e53)" style="fill: none; stroke: #b0b0b0; stroke-opacity: 0.3; stroke-width: 0.8; stroke-linecap: square"/>
     </g>
     <g id="line2d_31">
      <g>
       <use xlink:href="#m99da631370" x="32.926953" y="207.998681" style="stroke: #000000; stroke-width: 0.8"/>
      </g>
     </g>
     <g id="text_7">
      <!-- 2 -->
      <g transform="translate(20.200703 211.417627) scale(0.09 -0.09)">
       <defs>
        <path id="DejaVuSans-15" d="M 1228 531 
L 3431 531 
L 3431 0 
L 469 0 
L 469 531 
Q 828 903 1448 1529 
Q 2069 2156 2228 2338 
Q 2531 2678 2651 2914 
Q 2772 3150 2772 3378 
Q 2772 3750 2511 3984 
Q 2250 4219 1831 4219 
Q 1534 4219 1204 4116 
Q 875 4013 500 3803 
L 500 4441 
Q 881 4594 1212 4672 
Q 1544 4750 1819 4750 
Q 2544 4750 2975 4387 
Q 3406 4025 3406 3419 
Q 3406 3131 3298 2873 
Q 3191 2616 2906 2266 
Q 2828 2175 2409 1742 
Q 1991 1309 1228 531 
z
" transform="scale(0.015625)"/>
       </defs>
       <use xlink:href="#DejaVuSans-15"/>
      </g>
     </g>
    </g>
    <g id="ytick_4">
     <g id="line2d_32">
      <path d="M 32.926953 179.990527 
L 491.486953 179.990527 
" clip-path="url(#p28bca59e53)" style="fill: none; stroke: #b0b0b0; stroke-opacity: 0.3; stroke-width: 0.8; stroke-linecap: square"/>
     </g>
     <g id="line2d_33">
      <g>
       <use xlink:href="#m99da631370" x="32.926953" y="179.990527" style="stroke: #000000; stroke-width: 0.8"/>
      </g>
     </g>
     <g id="text_8">
      <!-- 3 -->
      <g transform="translate(20.200703 183.409473) scale(0.09 -0.09)">
       <use xlink:href="#DejaVuSans-16"/>
      </g>
     </g>
    </g>
    <g id="ytick_5">
     <g id="line2d_34">
      <path d="M 32.926953 151.982373 
L 491.486953 151.982373 
" clip-path="url(#p28bca59e53)" style="fill: none; stroke: #b0b0b0; stroke-opacity: 0.3; stroke-width: 0.8; stroke-linecap: square"/>
     </g>
     <g id="line2d_35">
      <g>
       <use xlink:href="#m99da631370" x="32.926953" y="151.982373" style="stroke: #000000; stroke-width: 0.8"/>
      </g>
     </g>
     <g id="text_9">
      <!-- 4 -->
      <g transform="translate(20.200703 155.401319) scale(0.09 -0.09)">
       <use xlink:href="#DejaVuSans-17"/>
      </g>
     </g>
    </g>
    <g id="ytick_6">
     <g id="line2d_36">
      <path d="M 32.926953 123.97422 
L 491.486953 123.97422 
" clip-path="url(#p28bca59e53)" style="fill: none; stroke: #b0b0b0; stroke-opacity: 0.3; stroke-width: 0.8; stroke-linecap: square"/>
     </g>
     <g id="line2d_37">
      <g>
       <use xlink:href="#m99da631370" x="32.926953" y="123.97422" style="stroke: #000000; stroke-width: 0.8"/>
      </g>
     </g>
     <g id="text_10">
      <!-- 5 -->
      <g transform="translate(20.200703 127.393165) scale(0.09 -0.09)">
       <use xlink:href="#DejaVuSans-18"/>
      </g>
     </g>
    </g>
    <g id="ytick_7">
     <g id="line2d_38">
      <path d="M 32.926953 95.966066 
L 491.486953 95.966066 
" clip-path="url(#p28bca59e53)" style="fill: none; stroke: #b0b0b0; stroke-opacity: 0.3; stroke-width: 0.8; stroke-linecap: square"/>
     </g>
     <g id="line2d_39">
      <g>
       <use xlink:href="#m99da631370" x="32.926953" y="95.966066" style="stroke: #000000; stroke-width: 0.8"/>
      </g>
     </g>
     <g id="text_11">
      <!-- 6 -->
      <g transform="translate(20.200703 99.385011) scale(0.09 -0.09)">
       <defs>
        <path id="DejaVuSans-19" d="M 2113 2584 
Q 1688 2584 1439 2293 
Q 1191 2003 1191 1497 
Q 1191 994 1439 701 
Q 1688 409 2113 409 
Q 2538 409 2786 701 
Q 3034 994 3034 1497 
Q 3034 2003 2786 2293 
Q 2538 2584 2113 2584 
z
M 3366 4563 
L 3366 3988 
Q 3128 4100 2886 4159 
Q 2644 4219 2406 4219 
Q 1781 4219 1451 3797 
Q 1122 3375 1075 2522 
Q 1259 2794 1537 2939 
Q 1816 3084 2150 3084 
Q 2853 3084 3261 2657 
Q 3669 2231 3669 1497 
Q 3669 778 3244 343 
Q 2819 -91 2113 -91 
Q 1303 -91 875 529 
Q 447 1150 447 2328 
Q 447 3434 972 4092 
Q 1497 4750 2381 4750 
Q 2619 4750 2861 4703 
Q 3103 4656 3366 4563 
z
" transform="scale(0.015625)"/>
       </defs>
       <use xlink:href="#DejaVuSans-19"/>
      </g>
     </g>
    </g>
    <g id="ytick_8">
     <g id="line2d_40">
      <path d="M 32.926953 67.957912 
L 491.486953 67.957912 
" clip-path="url(#p28bca59e53)" style="fill: none; stroke: #b0b0b0; stroke-opacity: 0.3; stroke-width: 0.8; stroke-linecap: square"/>
     </g>
     <g id="line2d_41">
      <g>
       <use xlink:href="#m99da631370" x="32.926953" y="67.957912" style="stroke: #000000; stroke-width: 0.8"/>
      </g>
     </g>
     <g id="text_12">
      <!-- 7 -->
      <g transform="translate(20.200703 71.376857) scale(0.09 -0.09)">
       <defs>
        <path id="DejaVuSans-1a" d="M 525 4666 
L 3525 4666 
L 3525 4397 
L 1831 0 
L 1172 0 
L 2766 4134 
L 525 4134 
L 525 4666 
z
" transform="scale(0.015625)"/>
       </defs>
       <use xlink:href="#DejaVuSans-1a"/>
      </g>
     </g>
    </g>
    <g id="ytick_9">
     <g id="line2d_42">
      <path d="M 32.926953 39.949758 
L 491.486953 39.949758 
" clip-path="url(#p28bca59e53)" style="fill: none; stroke: #b0b0b0; stroke-opacity: 0.3; stroke-width: 0.8; stroke-linecap: square"/>
     </g>
     <g id="line2d_43">
      <g>
       <use xlink:href="#m99da631370" x="32.926953" y="39.949758" style="stroke: #000000; stroke-width: 0.8"/>
      </g>
     </g>
     <g id="text_13">
      <!-- 8 -->
      <g transform="translate(20.200703 43.368703) scale(0.09 -0.09)">
       <defs>
        <path id="DejaVuSans-1b" d="M 2034 2216 
Q 1584 2216 1326 1975 
Q 1069 1734 1069 1313 
Q 1069 891 1326 650 
Q 1584 409 2034 409 
Q 2484 409 2743 651 
Q 3003 894 3003 1313 
Q 3003 1734 2745 1975 
Q 2488 2216 2034 2216 
z
M 1403 2484 
Q 997 2584 770 2862 
Q 544 3141 544 3541 
Q 544 4100 942 4425 
Q 1341 4750 2034 4750 
Q 2731 4750 3128 4425 
Q 3525 4100 3525 3541 
Q 3525 3141 3298 2862 
Q 3072 2584 2669 2484 
Q 3125 2378 3379 2068 
Q 3634 1759 3634 1313 
Q 3634 634 3220 271 
Q 2806 -91 2034 -91 
Q 1263 -91 848 271 
Q 434 634 434 1313 
Q 434 1759 690 2068 
Q 947 2378 1403 2484 
z
M 1172 3481 
Q 1172 3119 1398 2916 
Q 1625 2713 2034 2713 
Q 2441 2713 2670 2916 
Q 2900 3119 2900 3481 
Q 2900 3844 2670 4047 
Q 2441 4250 2034 4250 
Q 1625 4250 1398 4047 
Q 1172 3844 1172 3481 
z
" transform="scale(0.015625)"/>
       </defs>
       <use xlink:href="#DejaVuSans-1b"/>
      </g>
     </g>
    </g>
    <g id="text_14">
     <!-- CUDA speedup  (× best CPU decoder) -->
     <g transform="translate(14.038594 229.28518) rotate(-90) scale(0.09 -0.09)">
      <defs>
       <path id="DejaVuSans-26" d="M 4122 4306 
L 4122 3641 
Q 3803 3938 3442 4084 
Q 3081 4231 2675 4231 
Q 1875 4231 1450 3742 
Q 1025 3253 1025 2328 
Q 1025 1406 1450 917 
Q 1875 428 2675 428 
Q 3081 428 3442 575 
Q 3803 722 4122 1019 
L 4122 359 
Q 3791 134 3420 21 
Q 3050 -91 2638 -91 
Q 1578 -91 968 557 
Q 359 1206 359 2328 
Q 359 3453 968 4101 
Q 1578 4750 2638 4750 
Q 3056 4750 3426 4639 
Q 3797 4528 4122 4306 
z
" transform="scale(0.015625)"/>
       <path id="DejaVuSans-38" d="M 556 4666 
L 1191 4666 
L 1191 1831 
Q 1191 1081 1462 751 
Q 1734 422 2344 422 
Q 2950 422 3222 751 
Q 3494 1081 3494 1831 
L 3494 4666 
L 4128 4666 
L 4128 1753 
Q 4128 841 3676 375 
Q 3225 -91 2344 -91 
Q 1459 -91 1007 375 
Q 556 841 556 1753 
L 556 4666 
z
" transform="scale(0.015625)"/>
       <path id="DejaVuSans-27" d="M 1259 4147 
L 1259 519 
L 2022 519 
Q 2988 519 3436 956 
Q 3884 1394 3884 2338 
Q 3884 3275 3436 3711 
Q 2988 4147 2022 4147 
L 1259 4147 
z
M 628 4666 
L 1925 4666 
Q 3281 4666 3915 4102 
Q 4550 3538 4550 2338 
Q 4550 1131 3912 565 
Q 3275 0 1925 0 
L 628 0 
L 628 4666 
z
" transform="scale(0.015625)"/>
       <path id="DejaVuSans-24" d="M 2188 4044 
L 1331 1722 
L 3047 1722 
L 2188 4044 
z
M 1831 4666 
L 2547 4666 
L 4325 0 
L 3669 0 
L 3244 1197 
L 1141 1197 
L 716 0 
L 50 0 
L 1831 4666 
z
" transform="scale(0.015625)"/>
       <path id="DejaVuSans-3" transform="scale(0.015625)"/>
       <path id="DejaVuSans-53" d="M 1159 525 
L 1159 -1331 
L 581 -1331 
L 581 3500 
L 1159 3500 
L 1159 2969 
Q 1341 3281 1617 3432 
Q 1894 3584 2278 3584 
Q 2916 3584 3314 3078 
Q 3713 2572 3713 1747 
Q 3713 922 3314 415 
Q 2916 -91 2278 -91 
Q 1894 -91 1617 61 
Q 1341 213 1159 525 
z
M 3116 1747 
Q 3116 2381 2855 2742 
Q 2594 3103 2138 3103 
Q 1681 3103 1420 2742 
Q 1159 2381 1159 1747 
Q 1159 1113 1420 752 
Q 1681 391 2138 391 
Q 2594 391 2855 752 
Q 3116 1113 3116 1747 
z
" transform="scale(0.015625)"/>
       <path id="DejaVuSans-48" d="M 3597 1894 
L 3597 1613 
L 953 1613 
Q 991 1019 1311 708 
Q 1631 397 2203 397 
Q 2534 397 2845 478 
Q 3156 559 3463 722 
L 3463 178 
Q 3153 47 2828 -22 
Q 2503 -91 2169 -91 
Q 1331 -91 842 396 
Q 353 884 353 1716 
Q 353 2575 817 3079 
Q 1281 3584 2069 3584 
Q 2775 3584 3186 3129 
Q 3597 2675 3597 1894 
z
M 3022 2063 
Q 3016 2534 2758 2815 
Q 2500 3097 2075 3097 
Q 1594 3097 1305 2825 
Q 1016 2553 972 2059 
L 3022 2063 
z
" transform="scale(0.015625)"/>
       <path id="DejaVuSans-47" d="M 2906 2969 
L 2906 4863 
L 3481 4863 
L 3481 0 
L 2906 0 
L 2906 525 
Q 2725 213 2448 61 
Q 2172 -91 1784 -91 
Q 1150 -91 751 415 
Q 353 922 353 1747 
Q 353 2572 751 3078 
Q 1150 3584 1784 3584 
Q 2172 3584 2448 3432 
Q 2725 3281 2906 2969 
z
M 947 1747 
Q 947 1113 1208 752 
Q 1469 391 1925 391 
Q 2381 391 2643 752 
Q 2906 1113 2906 1747 
Q 2906 2381 2643 2742 
Q 2381 3103 1925 3103 
Q 1469 3103 1208 2742 
Q 947 2381 947 1747 
z
" transform="scale(0.015625)"/>
       <path id="DejaVuSans-58" d="M 544 1381 
L 544 3500 
L 1119 3500 
L 1119 1403 
Q 1119 906 1312 657 
Q 1506 409 1894 409 
Q 2359 409 2629 706 
Q 2900 1003 2900 1516 
L 2900 3500 
L 3475 3500 
L 3475 0 
L 2900 0 
L 2900 538 
Q 2691 219 2414 64 
Q 2138 -91 1772 -91 
Q 1169 -91 856 284 
Q 544 659 544 1381 
z
M 1991 3584 
L 1991 3584 
z
" transform="scale(0.015625)"/>
       <path id="DejaVuSans-b" d="M 1984 4856 
Q 1566 4138 1362 3434 
Q 1159 2731 1159 2009 
Q 1159 1288 1364 580 
Q 1569 -128 1984 -844 
L 1484 -844 
Q 1016 -109 783 600 
Q 550 1309 550 2009 
Q 550 2706 781 3412 
Q 1013 4119 1484 4856 
L 1984 4856 
z
" transform="scale(0.015625)"/>
       <path id="DejaVuSans-99" d="M 4488 3438 
L 3059 2003 
L 4488 575 
L 4116 197 
L 2681 1631 
L 1247 197 
L 878 575 
L 2303 2003 
L 878 3438 
L 1247 3816 
L 2681 2381 
L 4116 3816 
L 4488 3438 
z
" transform="scale(0.015625)"/>
       <path id="DejaVuSans-45" d="M 3116 1747 
Q 3116 2381 2855 2742 
Q 2594 3103 2138 3103 
Q 1681 3103 1420 2742 
Q 1159 2381 1159 1747 
Q 1159 1113 1420 752 
Q 1681 391 2138 391 
Q 2594 391 2855 752 
Q 3116 1113 3116 1747 
z
M 1159 2969 
Q 1341 3281 1617 3432 
Q 1894 3584 2278 3584 
Q 2916 3584 3314 3078 
Q 3713 2572 3713 1747 
Q 3713 922 3314 415 
Q 2916 -91 2278 -91 
Q 1894 -91 1617 61 
Q 1341 213 1159 525 
L 1159 0 
L 581 0 
L 581 4863 
L 1159 4863 
L 1159 2969 
z
" transform="scale(0.015625)"/>
       <path id="DejaVuSans-33" d="M 1259 4147 
L 1259 2394 
L 2053 2394 
Q 2494 2394 2734 2622 
Q 2975 2850 2975 3272 
Q 2975 3691 2734 3919 
Q 2494 4147 2053 4147 
L 1259 4147 
z
M 628 4666 
L 2053 4666 
Q 2838 4666 3239 4311 
Q 3641 3956 3641 3272 
Q 3641 2581 3239 2228 
Q 2838 1875 2053 1875 
L 1259 1875 
L 1259 0 
L 628 0 
L 628 4666 
z
" transform="scale(0.015625)"/>
       <path id="DejaVuSans-46" d="M 3122 3366 
L 3122 2828 
Q 2878 2963 2633 3030 
Q 2388 3097 2138 3097 
Q 1578 3097 1268 2742 
Q 959 2388 959 1747 
Q 959 1106 1268 751 
Q 1578 397 2138 397 
Q 2388 397 2633 464 
Q 2878 531 3122 666 
L 3122 134 
Q 2881 22 2623 -34 
Q 2366 -91 2075 -91 
Q 1284 -91 818 406 
Q 353 903 353 1747 
Q 353 2603 823 3093 
Q 1294 3584 2113 3584 
Q 2378 3584 2631 3529 
Q 2884 3475 3122 3366 
z
" transform="scale(0.015625)"/>
       <path id="DejaVuSans-55" d="M 2631 2963 
Q 2534 3019 2420 3045 
Q 2306 3072 2169 3072 
Q 1681 3072 1420 2755 
Q 1159 2438 1159 1844 
L 1159 0 
L 581 0 
L 581 3500 
L 1159 3500 
L 1159 2956 
Q 1341 3275 1631 3429 
Q 1922 3584 2338 3584 
Q 2397 3584 2469 3576 
Q 2541 3569 2628 3553 
L 2631 2963 
z
" transform="scale(0.015625)"/>
       <path id="DejaVuSans-c" d="M 513 4856 
L 1013 4856 
Q 1481 4119 1714 3412 
Q 1947 2706 1947 2009 
Q 1947 1309 1714 600 
Q 1481 -109 1013 -844 
L 513 -844 
Q 928 -128 1133 580 
Q 1338 1288 1338 2009 
Q 1338 2731 1133 3434 
Q 928 4138 513 4856 
z
" transform="scale(0.015625)"/>
      </defs>
      <use xlink:href="#DejaVuSans-26"/>
      <use xlink:href="#DejaVuSans-38" transform="translate(69.828125 0)"/>
      <use xlink:href="#DejaVuSans-27" transform="translate(143.015625 0)"/>
      <use xlink:href="#DejaVuSans-24" transform="translate(218.265625 0)"/>
      <use xlink:href="#DejaVuSans-3" transform="translate(286.671875 0)"/>
      <use xlink:href="#DejaVuSans-56" transform="translate(318.453125 0)"/>
      <use xlink:href="#DejaVuSans-53" transform="translate(370.546875 0)"/>
      <use xlink:href="#DejaVuSans-48" transform="translate(434.03125 0)"/>
      <use xlink:href="#DejaVuSans-48" transform="translate(495.5625 0)"/>
      <use xlink:href="#DejaVuSans-47" transform="translate(557.09375 0)"/>
      <use xlink:href="#DejaVuSans-58" transform="translate(620.578125 0)"/>
      <use xlink:href="#DejaVuSans-53" transform="translate(683.953125 0)"/>
      <use xlink:href="#DejaVuSans-3" transform="translate(747.4375 0)"/>
      <use xlink:href="#DejaVuSans-3" transform="translate(779.21875 0)"/>
      <use xlink:href="#DejaVuSans-b" transform="translate(811 0)"/>
      <use xlink:href="#DejaVuSans-99" transform="translate(850.015625 0)"/>
      <use xlink:href="#DejaVuSans-3" transform="translate(933.8125 0)"/>
      <use xlink:href="#DejaVuSans-45" transform="translate(965.59375 0)"/>
      <use xlink:href="#DejaVuSans-48" transform="translate(1029.078125 0)"/>
      <use xlink:href="#DejaVuSans-56" transform="translate(1090.609375 0)"/>
      <use xlink:href="#DejaVuSans-57" transform="translate(1142.703125 0)"/>
      <use xlink:href="#DejaVuSans-3" transform="translate(1181.90625 0)"/>
      <use xlink:href="#DejaVuSans-26" transform="translate(1213.6875 0)"/>
      <use xlink:href="#DejaVuSans-33" transform="translate(1283.515625 0)"/>
      <use xlink:href="#DejaVuSans-38" transform="translate(1343.8125 0)"/>
      <use xlink:href="#DejaVuSans-3" transform="translate(1417 0)"/>
      <use xlink:href="#DejaVuSans-47" transform="translate(1448.78125 0)"/>
      <use xlink:href="#DejaVuSans-48" transform="translate(1512.265625 0)"/>
      <use xlink:href="#DejaVuSans-46" transform="translate(1573.796875 0)"/>
      <use xlink:href="#DejaVuSans-52" transform="translate(1628.78125 0)"/>
      <use xlink:href="#DejaVuSans-47" transform="translate(1689.96875 0)"/>
      <use xlink:href="#DejaVuSans-48" transform="translate(1753.453125 0)"/>
      <use xlink:href="#DejaVuSans-55" transform="translate(1814.984375 0)"/>
      <use xlink:href="#DejaVuSans-c" transform="translate(1856.09375 0)"/>
     </g>
    </g>
   </g>
   <g id="line2d_44">
    <path d="M 53.770589 206.181143 
L 108.307556 201.748686 
L 180.401504 235.114468 
L 234.93847 225.933099 
L 289.475436 181.444957 
L 361.569384 181.917303 
L 416.10635 186.985002 
L 470.643317 214.19373 
" clip-path="url(#p28bca59e53)" style="fill: none; stroke: #1f77b4; stroke-width: 1.5; stroke-linecap: square"/>
    <defs>
     <path id="m80cd98e4b0" d="M 0 1.5 
C 0.397805 1.5 0.77937 1.341951 1.06066 1.06066 
C 1.341951 0.77937 1.5 0.397805 1.5 0 
C 1.5 -0.397805 1.341951 -0.77937 1.06066 -1.06066 
C 0.77937 -1.341951 0.397805 -1.5 0 -1.5 
C -0.397805 -1.5 -0.77937 -1.341951 -1.06066 -1.06066 
C -1.341951 -0.77937 -1.5 -0.397805 -1.5 0 
C -1.5 0.397805 -1.341951 0.77937 -1.06066 1.06066 
C -0.77937 1.341951 -0.397805 1.5 0 1.5 
z
" style="stroke: #1f77b4"/>
    </defs>
    <g clip-path="url(#p28bca59e53)">
     <use xlink:href="#m80cd98e4b0" x="53.770589" y="206.181143" style="fill: #1f77b4; stroke: #1f77b4"/>
     <use xlink:href="#m80cd98e4b0" x="108.307556" y="201.748686" style="fill: #1f77b4; stroke: #1f77b4"/>
     <use xlink:href="#m80cd98e4b0" x="180.401504" y="235.114468" style="fill: #1f77b4; stroke: #1f77b4"/>
     <use xlink:href="#m80cd98e4b0" x="234.93847" y="225.933099" style="fill: #1f77b4; stroke: #1f77b4"/>
     <use xlink:href="#m80cd98e4b0" x="289.475436" y="181.444957" style="fill: #1f77b4; stroke: #1f77b4"/>
     <use xlink:href="#m80cd98e4b0" x="361.569384" y="181.917303" style="fill: #1f77b4; stroke: #1f77b4"/>
     <use xlink:href="#m80cd98e4b0" x="416.10635" y="186.985002" style="fill: #1f77b4; stroke: #1f77b4"/>
     <use xlink:href="#m80cd98e4b0" x="470.643317" y="214.19373" style="fill: #1f77b4; stroke: #1f77b4"/>
    </g>
   </g>
   <g id="line2d_45">
    <path d="M 53.770589 187.946172 
L 108.307556 120.011944 
L 180.401504 166.331396 
L 234.93847 32.551671 
L 289.475436 174.514363 
L 361.569384 219.133609 
L 416.10635 226.38625 
L 470.643317 227.570327 
" clip-path="url(#p28bca59e53)" style="fill: none; stroke: #ff7f0e; stroke-width: 1.5; stroke-linecap: square"/>
    <defs>
     <path id="ma48aaa4348" d="M 0 1.5 
C 0.397805 1.5 0.77937 1.341951 1.06066 1.06066 
C 1.341951 0.77937 1.5 0.397805 1.5 0 
C 1.5 -0.397805 1.341951 -0.77937 1.06066 -1.06066 
C 0.77937 -1.341951 0.397805 -1.5 0 -1.5 
C -0.397805 -1.5 -0.77937 -1.341951 -1.06066 -1.06066 
C -1.341951 -0.77937 -1.5 -0.397805 -1.5 0 
C -1.5 0.397805 -1.341951 0.77937 -1.06066 1.06066 
C -0.77937 1.341951 -0.397805 1.5 0 1.5 
z
" style="stroke: #ff7f0e"/>
    </defs>
    <g clip-path="url(#p28bca59e53)">
     <use xlink:href="#ma48aaa4348" x="53.770589" y="187.946172" style="fill: #ff7f0e; stroke: #ff7f0e"/>
     <use xlink:href="#ma48aaa4348" x="108.307556" y="120.011944" style="fill: #ff7f0e; stroke: #ff7f0e"/>
     <use xlink:href="#ma48aaa4348" x="180.401504" y="166.331396" style="fill: #ff7f0e; stroke: #ff7f0e"/>
     <use xlink:href="#ma48aaa4348" x="234.93847" y="32.551671" style="fill: #ff7f0e; stroke: #ff7f0e"/>
     <use xlink:href="#ma48aaa4348" x="289.475436" y="174.514363" style="fill: #ff7f0e; stroke: #ff7f0e"/>
     <use xlink:href="#ma48aaa4348" x="361.569384" y="219.133609" style="fill: #ff7f0e; stroke: #ff7f0e"/>
     <use xlink:href="#ma48aaa4348" x="416.10635" y="226.38625" style="fill: #ff7f0e; stroke: #ff7f0e"/>
     <use xlink:href="#ma48aaa4348" x="470.643317" y="227.570327" style="fill: #ff7f0e; stroke: #ff7f0e"/>
    </g>
   </g>
   <g id="line2d_46">
    <path d="M 53.770589 155.647406 
L 108.307556 79.807987 
L 180.401504 75.202576 
L 234.93847 159.528701 
L 289.475436 198.619433 
L 361.569384 229.316129 
L 416.10635 231.900389 
L 470.643317 230.658455 
" clip-path="url(#p28bca59e53)" style="fill: none; stroke: #2ca02c; stroke-width: 1.5; stroke-linecap: square"/>
    <defs>
     <path id="mc328af362f" d="M 0 1.5 
C 0.397805 1.5 0.77937 1.341951 1.06066 1.06066 
C 1.341951 0.77937 1.5 0.397805 1.5 0 
C 1.5 -0.397805 1.341951 -0.77937 1.06066 -1.06066 
C 0.77937 -1.341951 0.397805 -1.5 0 -1.5 
C -0.397805 -1.5 -0.77937 -1.341951 -1.06066 -1.06066 
C -1.341951 -0.77937 -1.5 -0.397805 -1.5 0 
C -1.5 0.397805 -1.341951 0.77937 -1.06066 1.06066 
C -0.77937 1.341951 -0.397805 1.5 0 1.5 
z
" style="stroke: #2ca02c"/>
    </defs>
    <g clip-path="url(#p28bca59e53)">
     <use xlink:href="#mc328af362f" x="53.770589" y="155.647406" style="fill: #2ca02c; stroke: #2ca02c"/>
     <use xlink:href="#mc328af362f" x="108.307556" y="79.807987" style="fill: #2ca02c; stroke: #2ca02c"/>
     <use xlink:href="#mc328af362f" x="180.401504" y="75.202576" style="fill: #2ca02c; stroke: #2ca02c"/>
     <use xlink:href="#mc328af362f" x="234.93847" y="159.528701" style="fill: #2ca02c; stroke: #2ca02c"/>
     <use xlink:href="#mc328af362f" x="289.475436" y="198.619433" style="fill: #2ca02c; stroke: #2ca02c"/>
     <use xlink:href="#mc328af362f" x="361.569384" y="229.316129" style="fill: #2ca02c; stroke: #2ca02c"/>
     <use xlink:href="#mc328af362f" x="416.10635" y="231.900389" style="fill: #2ca02c; stroke: #2ca02c"/>
     <use xlink:href="#mc328af362f" x="470.643317" y="230.658455" style="fill: #2ca02c; stroke: #2ca02c"/>
    </g>
   </g>
   <g id="line2d_47">
    <path d="M 53.770589 205.548699 
L 108.307556 100.207226 
L 180.401504 134.363953 
L 234.93847 205.301707 
L 289.475436 227.771042 
L 361.569384 242.489199 
L 416.10635 240.340668 
L 470.643317 242.893339 
" clip-path="url(#p28bca59e53)" style="fill: none; stroke: #d62728; stroke-width: 1.5; stroke-linecap: square"/>
    <defs>
     <path id="m59312ce787" d="M 0 1.5 
C 0.397805 1.5 0.77937 1.341951 1.06066 1.06066 
C 1.341951 0.77937 1.5 0.397805 1.5 0 
C 1.5 -0.397805 1.341951 -0.77937 1.06066 -1.06066 
C 0.77937 -1.341951 0.397805 -1.5 0 -1.5 
C -0.397805 -1.5 -0.77937 -1.341951 -1.06066 -1.06066 
C -1.341951 -0.77937 -1.5 -0.397805 -1.5 0 
C -1.5 0.397805 -1.341951 0.77937 -1.06066 1.06066 
C -0.77937 1.341951 -0.397805 1.5 0 1.5 
z
" style="stroke: #d62728"/>
    </defs>
    <g clip-path="url(#p28bca59e53)">
     <use xlink:href="#m59312ce787" x="53.770589" y="205.548699" style="fill: #d62728; stroke: #d62728"/>
     <use xlink:href="#m59312ce787" x="108.307556" y="100.207226" style="fill: #d62728; stroke: #d62728"/>
     <use xlink:href="#m59312ce787" x="180.401504" y="134.363953" style="fill: #d62728; stroke: #d62728"/>
     <use xlink:href="#m59312ce787" x="234.93847" y="205.301707" style="fill: #d62728; stroke: #d62728"/>
     <use xlink:href="#m59312ce787" x="289.475436" y="227.771042" style="fill: #d62728; stroke: #d62728"/>
     <use xlink:href="#m59312ce787" x="361.569384" y="242.489199" style="fill: #d62728; stroke: #d62728"/>
     <use xlink:href="#m59312ce787" x="416.10635" y="240.340668" style="fill: #d62728; stroke: #d62728"/>
     <use xlink:href="#m59312ce787" x="470.643317" y="242.893339" style="fill: #d62728; stroke: #d62728"/>
    </g>
   </g>
   <g id="line2d_48">
    <path d="M 53.770589 173.001565 
L 108.307556 158.859779 
L 180.401504 200.325272 
L 234.93847 225.163683 
L 289.475436 238.714199 
L 361.569384 245.871832 
L 416.10635 246.368876 
L 470.643317 246.671838 
" clip-path="url(#p28bca59e53)" style="fill: none; stroke: #9467bd; stroke-width: 1.5; stroke-linecap: square"/>
    <defs>
     <path id="me1616bd1be" d="M 0 1.5 
C 0.397805 1.5 0.77937 1.341951 1.06066 1.06066 
C 1.341951 0.77937 1.5 0.397805 1.5 0 
C 1.5 -0.397805 1.341951 -0.77937 1.06066 -1.06066 
C 0.77937 -1.341951 0.397805 -1.5 0 -1.5 
C -0.397805 -1.5 -0.77937 -1.341951 -1.06066 -1.06066 
C -1.341951 -0.77937 -1.5 -0.397805 -1.5 0 
C -1.5 0.397805 -1.341951 0.77937 -1.06066 1.06066 
C -0.77937 1.341951 -0.397805 1.5 0 1.5 
z
" style="stroke: #9467bd"/>
    </defs>
    <g clip-path="url(#p28bca59e53)">
     <use xlink:href="#me1616bd1be" x="53.770589" y="173.001565" style="fill: #9467bd; stroke: #9467bd"/>
     <use xlink:href="#me1616bd1be" x="108.307556" y="158.859779" style="fill: #9467bd; stroke: #9467bd"/>
     <use xlink:href="#me1616bd1be" x="180.401504" y="200.325272" style="fill: #9467bd; stroke: #9467bd"/>
     <use xlink:href="#me1616bd1be" x="234.93847" y="225.163683" style="fill: #9467bd; stroke: #9467bd"/>
     <use xlink:href="#me1616bd1be" x="289.475436" y="238.714199" style="fill: #9467bd; stroke: #9467bd"/>
     <use xlink:href="#me1616bd1be" x="361.569384" y="245.871832" style="fill: #9467bd; stroke: #9467bd"/>
     <use xlink:href="#me1616bd1be" x="416.10635" y="246.368876" style="fill: #9467bd; stroke: #9467bd"/>
     <use xlink:href="#me1616bd1be" x="470.643317" y="246.671838" style="fill: #9467bd; stroke: #9467bd"/>
    </g>
   </g>
   <g id="line2d_49">
    <path d="M 53.770589 181.477668 
L 108.307556 167.59395 
L 180.401504 204.132308 
L 234.93847 229.946049 
L 289.475436 245.502909 
L 361.569384 255.458844 
L 416.10635 253.826353 
L 470.643317 253.152061 
" clip-path="url(#p28bca59e53)" style="fill: none; stroke: #8c564b; stroke-width: 1.5; stroke-linecap: square"/>
    <defs>
     <path id="m34cddd1eca" d="M 0 1.5 
C 0.397805 1.5 0.77937 1.341951 1.06066 1.06066 
C 1.341951 0.77937 1.5 0.397805 1.5 0 
C 1.5 -0.397805 1.341951 -0.77937 1.06066 -1.06066 
C 0.77937 -1.341951 0.397805 -1.5 0 -1.5 
C -0.397805 -1.5 -0.77937 -1.341951 -1.06066 -1.06066 
C -1.341951 -0.77937 -1.5 -0.397805 -1.5 0 
C -1.5 0.397805 -1.341951 0.77937 -1.06066 1.06066 
C -0.77937 1.341951 -0.397805 1.5 0 1.5 
z
" style="stroke: #8c564b"/>
    </defs>
    <g clip-path="url(#p28bca59e53)">
     <use xlink:href="#m34cddd1eca" x="53.770589" y="181.477668" style="fill: #8c564b; stroke: #8c564b"/>
     <use xlink:href="#m34cddd1eca" x="108.307556" y="167.59395" style="fill: #8c564b; stroke: #8c564b"/>
     <use xlink:href="#m34cddd1eca" x="180.401504" y="204.132308" style="fill: #8c564b; stroke: #8c564b"/>
     <use xlink:href="#m34cddd1eca" x="234.93847" y="229.946049" style="fill: #8c564b; stroke: #8c564b"/>
     <use xlink:href="#m34cddd1eca" x="289.475436" y="245.502909" style="fill: #8c564b; stroke: #8c564b"/>
     <use xlink:href="#m34cddd1eca" x="361.569384" y="255.458844" style="fill: #8c564b; stroke: #8c564b"/>
     <use xlink:href="#m34cddd1eca" x="416.10635" y="253.826353" style="fill: #8c564b; stroke: #8c564b"/>
     <use xlink:href="#m34cddd1eca" x="470.643317" y="253.152061" style="fill: #8c564b; stroke: #8c564b"/>
    </g>
   </g>
   <g id="line2d_50">
    <path d="M 53.770589 196.455772 
L 108.307556 199.008563 
L 180.401504 231.837935 
L 234.93847 239.115876 
L 289.475436 245.884812 
L 361.569384 254.935322 
L 416.10635 254.077376 
L 470.643317 252.692828 
" clip-path="url(#p28bca59e53)" style="fill: none; stroke: #e377c2; stroke-width: 1.5; stroke-linecap: square"/>
    <defs>
     <path id="m59b04aa49b" d="M 0 1.5 
C 0.397805 1.5 0.77937 1.341951 1.06066 1.06066 
C 1.341951 0.77937 1.5 0.397805 1.5 0 
C 1.5 -0.397805 1.341951 -0.77937 1.06066 -1.06066 
C 0.77937 -1.341951 0.397805 -1.5 0 -1.5 
C -0.397805 -1.5 -0.77937 -1.341951 -1.06066 -1.06066 
C -1.341951 -0.77937 -1.5 -0.397805 -1.5 0 
C -1.5 0.397805 -1.341951 0.77937 -1.06066 1.06066 
C -0.77937 1.341951 -0.397805 1.5 0 1.5 
z
" style="stroke: #e377c2"/>
    </defs>
    <g clip-path="url(#p28bca59e53)">
     <use xlink:href="#m59b04aa49b" x="53.770589" y="196.455772" style="fill: #e377c2; stroke: #e377c2"/>
     <use xlink:href="#m59b04aa49b" x="108.307556" y="199.008563" style="fill: #e377c2; stroke: #e377c2"/>
     <use xlink:href="#m59b04aa49b" x="180.401504" y="231.837935" style="fill: #e377c2; stroke: #e377c2"/>
     <use xlink:href="#m59b04aa49b" x="234.93847" y="239.115876" style="fill: #e377c2; stroke: #e377c2"/>
     <use xlink:href="#m59b04aa49b" x="289.475436" y="245.884812" style="fill: #e377c2; stroke: #e377c2"/>
     <use xlink:href="#m59b04aa49b" x="361.569384" y="254.935322" style="fill: #e377c2; stroke: #e377c2"/>
     <use xlink:href="#m59b04aa49b" x="416.10635" y="254.077376" style="fill: #e377c2; stroke: #e377c2"/>
     <use xlink:href="#m59b04aa49b" x="470.643317" y="252.692828" style="fill: #e377c2; stroke: #e377c2"/>
    </g>
   </g>
   <g id="line2d_51">
    <path d="M 53.770589 216.537418 
L 108.307556 217.455746 
L 180.401504 214.290568 
L 234.93847 234.372469 
L 289.475436 239.868048 
L 361.569384 245.791423 
L 416.10635 246.661385 
L 470.643317 247.328796 
" clip-path="url(#p28bca59e53)" style="fill: none; stroke: #7f7f7f; stroke-width: 1.5; stroke-linecap: square"/>
    <defs>
     <path id="mda9de37c0c" d="M 0 1.5 
C 0.397805 1.5 0.77937 1.341951 1.06066 1.06066 
C 1.341951 0.77937 1.5 0.397805 1.5 0 
C 1.5 -0.397805 1.341951 -0.77937 1.06066 -1.06066 
C 0.77937 -1.341951 0.397805 -1.5 0 -1.5 
C -0.397805 -1.5 -0.77937 -1.341951 -1.06066 -1.06066 
C -1.341951 -0.77937 -1.5 -0.397805 -1.5 0 
C -1.5 0.397805 -1.341951 0.77937 -1.06066 1.06066 
C -0.77937 1.341951 -0.397805 1.5 0 1.5 
z
" style="stroke: #7f7f7f"/>
    </defs>
    <g clip-path="url(#p28bca59e53)">
     <use xlink:href="#mda9de37c0c" x="53.770589" y="216.537418" style="fill: #7f7f7f; stroke: #7f7f7f"/>
     <use xlink:href="#mda9de37c0c" x="108.307556" y="217.455746" style="fill: #7f7f7f; stroke: #7f7f7f"/>
     <use xlink:href="#mda9de37c0c" x="180.401504" y="214.290568" style="fill: #7f7f7f; stroke: #7f7f7f"/>
     <use xlink:href="#mda9de37c0c" x="234.93847" y="234.372469" style="fill: #7f7f7f; stroke: #7f7f7f"/>
     <use xlink:href="#mda9de37c0c" x="289.475436" y="239.868048" style="fill: #7f7f7f; stroke: #7f7f7f"/>
     <use xlink:href="#mda9de37c0c" x="361.569384" y="245.791423" style="fill: #7f7f7f; stroke: #7f7f7f"/>
     <use xlink:href="#mda9de37c0c" x="416.10635" y="246.661385" style="fill: #7f7f7f; stroke: #7f7f7f"/>
     <use xlink:href="#mda9de37c0c" x="470.643317" y="247.328796" style="fill: #7f7f7f; stroke: #7f7f7f"/>
    </g>
   </g>
   <g id="line2d_52">
    <path d="M 53.770589 237.26267 
L 108.307556 220.048626 
L 180.401504 227.971328 
L 234.93847 241.327304 
L 289.475436 248.582142 
L 361.569384 251.19224 
L 416.10635 251.20998 
L 470.643317 251.202962 
" clip-path="url(#p28bca59e53)" style="fill: none; stroke: #bcbd22; stroke-width: 1.5; stroke-linecap: square"/>
    <defs>
     <path id="mf6b2a587fa" d="M 0 1.5 
C 0.397805 1.5 0.77937 1.341951 1.06066 1.06066 
C 1.341951 0.77937 1.5 0.397805 1.5 0 
C 1.5 -0.397805 1.341951 -0.77937 1.06066 -1.06066 
C 0.77937 -1.341951 0.397805 -1.5 0 -1.5 
C -0.397805 -1.5 -0.77937 -1.341951 -1.06066 -1.06066 
C -1.341951 -0.77937 -1.5 -0.397805 -1.5 0 
C -1.5 0.397805 -1.341951 0.77937 -1.06066 1.06066 
C -0.77937 1.341951 -0.397805 1.5 0 1.5 
z
" style="stroke: #bcbd22"/>
    </defs>
    <g clip-path="url(#p28bca59e53)">
     <use xlink:href="#mf6b2a587fa" x="53.770589" y="237.26267" style="fill: #bcbd22; stroke: #bcbd22"/>
     <use xlink:href="#mf6b2a587fa" x="108.307556" y="220.048626" style="fill: #bcbd22; stroke: #bcbd22"/>
     <use xlink:href="#mf6b2a587fa" x="180.401504" y="227.971328" style="fill: #bcbd22; stroke: #bcbd22"/>
     <use xlink:href="#mf6b2a587fa" x="234.93847" y="241.327304" style="fill: #bcbd22; stroke: #bcbd22"/>
     <use xlink:href="#mf6b2a587fa" x="289.475436" y="248.582142" style="fill: #bcbd22; stroke: #bcbd22"/>
     <use xlink:href="#mf6b2a587fa" x="361.569384" y="251.19224" style="fill: #bcbd22; stroke: #bcbd22"/>
     <use xlink:href="#mf6b2a587fa" x="416.10635" y="251.20998" style="fill: #bcbd22; stroke: #bcbd22"/>
     <use xlink:href="#mf6b2a587fa" x="470.643317" y="251.202962" style="fill: #bcbd22; stroke: #bcbd22"/>
    </g>
   </g>
   <g id="line2d_53">
    <path d="M 32.926953 236.006835 
L 491.486953 236.006835 
" clip-path="url(#p28bca59e53)" style="fill: none; stroke-dasharray: 2.96,1.28; stroke-dashoffset: 0; stroke: #000000; stroke-width: 0.8"/>
   </g>
   <g id="patch_3">
    <path d="M 32.926953 266.604203 
L 32.926953 21.406313 
" style="fill: none; stroke: #000000; stroke-width: 0.8; stroke-linejoin: miter; stroke-linecap: square"/>
   </g>
   <g id="patch_4">
    <path d="M 491.486953 266.604203 
L 491.486953 21.406313 
" style="fill: none; stroke: #000000; stroke-width: 0.8; stroke-linejoin: miter; stroke-linecap: square"/>
   </g>
   <g id="patch_5">
    <path d="M 32.926953 266.604203 
L 491.486953 266.604203 
" style="fill: none; stroke: #000000; stroke-width: 0.8; stroke-linejoin: miter; stroke-linecap: square"/>
   </g>
   <g id="patch_6">
    <path d="M 32.926953 21.406313 
L 491.486953 21.406313 
" style="fill: none; stroke: #000000; stroke-width: 0.8; stroke-linejoin: miter; stroke-linecap: square"/>
   </g>
   <g id="text_15">
    <!-- GPU (CUDA) vs best CPU decoder — code-capacity -->
    <g transform="translate(125.273078 15.406313) scale(0.108 -0.108)">
     <defs>
      <path id="DejaVuSans-2a" d="M 3809 666 
L 3809 1919 
L 2778 1919 
L 2778 2438 
L 4434 2438 
L 4434 434 
Q 4069 175 3628 42 
Q 3188 -91 2688 -91 
Q 1594 -91 976 548 
Q 359 1188 359 2328 
Q 359 3472 976 4111 
Q 1594 4750 2688 4750 
Q 3144 4750 3555 4637 
Q 3966 4525 4313 4306 
L 4313 3634 
Q 3963 3931 3569 4081 
Q 3175 4231 2741 4231 
Q 1884 4231 1454 3753 
Q 1025 3275 1025 2328 
Q 1025 1384 1454 906 
Q 1884 428 2741 428 
Q 3075 428 3337 486 
Q 3600 544 3809 666 
z
" transform="scale(0.015625)"/>
      <path id="DejaVuSans-59" d="M 191 3500 
L 800 3500 
L 1894 563 
L 2988 3500 
L 3597 3500 
L 2284 0 
L 1503 0 
L 191 3500 
z
" transform="scale(0.015625)"/>
      <path id="DejaVuSans-af6" d="M 313 1978 
L 6088 1978 
L 6088 1528 
L 313 1528 
L 313 1978 
z
" transform="scale(0.015625)"/>
      <path id="DejaVuSans-10" d="M 313 2009 
L 1997 2009 
L 1997 1497 
L 313 1497 
L 313 2009 
z
" transform="scale(0.015625)"/>
      <path id="DejaVuSans-44" d="M 2194 1759 
Q 1497 1759 1228 1600 
Q 959 1441 959 1056 
Q 959 750 1161 570 
Q 1363 391 1709 391 
Q 2188 391 2477 730 
Q 2766 1069 2766 1631 
L 2766 1759 
L 2194 1759 
z
M 3341 1997 
L 3341 0 
L 2766 0 
L 2766 531 
Q 2569 213 2275 61 
Q 1981 -91 1556 -91 
Q 1019 -91 701 211 
Q 384 513 384 1019 
Q 384 1609 779 1909 
Q 1175 2209 1959 2209 
L 2766 2209 
L 2766 2266 
Q 2766 2663 2505 2880 
Q 2244 3097 1772 3097 
Q 1472 3097 1187 3025 
Q 903 2953 641 2809 
L 641 3341 
Q 956 3463 1253 3523 
Q 1550 3584 1831 3584 
Q 2591 3584 2966 3190 
Q 3341 2797 3341 1997 
z
" transform="scale(0.015625)"/>
      <path id="DejaVuSans-4c" d="M 603 3500 
L 1178 3500 
L 1178 0 
L 603 0 
L 603 3500 
z
M 603 4863 
L 1178 4863 
L 1178 4134 
L 603 4134 
L 603 4863 
z
" transform="scale(0.015625)"/>
      <path id="DejaVuSans-5c" d="M 2059 -325 
Q 1816 -950 1584 -1140 
Q 1353 -1331 966 -1331 
L 506 -1331 
L 506 -850 
L 844 -850 
Q 1081 -850 1212 -737 
Q 1344 -625 1503 -206 
L 1606 56 
L 191 3500 
L 800 3500 
L 1894 763 
L 2988 3500 
L 3597 3500 
L 2059 -325 
z
" transform="scale(0.015625)"/>
     </defs>
     <use xlink:href="#DejaVuSans-2a"/>
     <use xlink:href="#DejaVuSans-33" transform="translate(77.484375 0)"/>
     <use xlink:href="#DejaVuSans-38" transform="translate(137.78125 0)"/>
     <use xlink:href="#DejaVuSans-3" transform="translate(210.96875 0)"/>
     <use xlink:href="#DejaVuSans-b" transform="translate(242.75 0)"/>
     <use xlink:href="#DejaVuSans-26" transform="translate(281.765625 0)"/>
     <use xlink:href="#DejaVuSans-38" transform="translate(351.59375 0)"/>
     <use xlink:href="#DejaVuSans-27" transform="translate(424.78125 0)"/>
     <use xlink:href="#DejaVuSans-24" transform="translate(500.03125 0)"/>
     <use xlink:href="#DejaVuSans-c" transform="translate(568.4375 0)"/>
     <use xlink:href="#DejaVuSans-3" transform="translate(607.453125 0)"/>
     <use xlink:href="#DejaVuSans-59" transform="translate(639.234375 0)"/>
     <use xlink:href="#DejaVuSans-56" transform="translate(698.421875 0)"/>
     <use xlink:href="#DejaVuSans-3" transform="translate(750.515625 0)"/>
     <use xlink:href="#DejaVuSans-45" transform="translate(782.296875 0)"/>
     <use xlink:href="#DejaVuSans-48" transform="translate(845.78125 0)"/>
     <use xlink:href="#DejaVuSans-56" transform="translate(907.3125 0)"/>
     <use xlink:href="#DejaVuSans-57" transform="translate(959.40625 0)"/>
     <use xlink:href="#DejaVuSans-3" transform="translate(998.609375 0)"/>
     <use xlink:href="#DejaVuSans-26" transform="translate(1030.390625 0)"/>
     <use xlink:href="#DejaVuSans-33" transform="translate(1100.21875 0)"/>
     <use xlink:href="#DejaVuSans-38" transform="translate(1160.515625 0)"/>
     <use xlink:href="#DejaVuSans-3" transform="translate(1233.703125 0)"/>
     <use xlink:href="#DejaVuSans-47" transform="translate(1265.484375 0)"/>
     <use xlink:href="#DejaVuSans-48" transform="translate(1328.96875 0)"/>
     <use xlink:href="#DejaVuSans-46" transform="translate(1390.5 0)"/>
     <use xlink:href="#DejaVuSans-52" transform="translate(1445.484375 0)"/>
     <use xlink:href="#DejaVuSans-47" transform="translate(1506.671875 0)"/>
     <use xlink:href="#DejaVuSans-48" transform="translate(1570.15625 0)"/>
     <use xlink:href="#DejaVuSans-55" transform="translate(1631.6875 0)"/>
     <use xlink:href="#DejaVuSans-3" transform="translate(1672.796875 0)"/>
     <use xlink:href="#DejaVuSans-af6" transform="translate(1704.578125 0)"/>
     <use xlink:href="#DejaVuSans-3" transform="translate(1804.578125 0)"/>
     <use xlink:href="#DejaVuSans-46" transform="translate(1836.359375 0)"/>
     <use xlink:href="#DejaVuSans-52" transform="translate(1891.34375 0)"/>
     <use xlink:href="#DejaVuSans-47" transform="translate(1952.53125 0)"/>
     <use xlink:href="#DejaVuSans-48" transform="translate(2016.015625 0)"/>
     <use xlink:href="#DejaVuSans-10" transform="translate(2077.546875 0)"/>
     <use xlink:href="#DejaVuSans-46" transform="translate(2113.625 0)"/>
     <use xlink:href="#DejaVuSans-44" transform="translate(2168.609375 0)"/>
     <use xlink:href="#DejaVuSans-53" transform="translate(2229.890625 0)"/>
     <use xlink:href="#DejaVuSans-44" transform="translate(2293.375 0)"/>
     <use xlink:href="#DejaVuSans-46" transform="translate(2354.65625 0)"/>
     <use xlink:href="#DejaVuSans-4c" transform="translate(2409.640625 0)"/>
     <use xlink:href="#DejaVuSans-57" transform="translate(2437.421875 0)"/>
     <use xlink:href="#DejaVuSans-5c" transform="translate(2476.625 0)"/>
    </g>
   </g>
   <g id="legend_1">
    <g id="patch_7">
     <path d="M 392.152578 79.509047 
L 486.586953 79.509047 
Q 487.986953 79.509047 487.986953 78.109047 
L 487.986953 26.306312 
Q 487.986953 24.906313 486.586953 24.906313 
L 392.152578 24.906313 
Q 390.752578 24.906313 390.752578 26.306312 
L 390.752578 78.109047 
Q 390.752578 79.509047 392.152578 79.509047 
z
" style="fill: #ffffff; opacity: 0.8; stroke: #cccccc; stroke-linejoin: miter"/>
    </g>
    <g id="line2d_54">
     <path d="M 393.552578 30.575219 
L 400.552578 30.575219 
L 407.552578 30.575219 
" style="fill: none; stroke: #1f77b4; stroke-width: 1.5; stroke-linecap: square"/>
     <g>
      <use xlink:href="#m80cd98e4b0" x="400.552578" y="30.575219" style="fill: #1f77b4; stroke: #1f77b4"/>
     </g>
    </g>
    <g id="text_16">
     <!-- d=3 -->
     <g transform="translate(413.152578 33.025219) scale(0.07 -0.07)">
      <defs>
       <path id="DejaVuSans-20" d="M 678 2906 
L 4684 2906 
L 4684 2381 
L 678 2381 
L 678 2906 
z
M 678 1631 
L 4684 1631 
L 4684 1100 
L 678 1100 
L 678 1631 
z
" transform="scale(0.015625)"/>
      </defs>
      <use xlink:href="#DejaVuSans-47"/>
      <use xlink:href="#DejaVuSans-20" transform="translate(63.484375 0)"/>
      <use xlink:href="#DejaVuSans-16" transform="translate(147.28125 0)"/>
     </g>
    </g>
    <g id="line2d_55">
     <path d="M 393.552578 41.075766 
L 400.552578 41.075766 
L 407.552578 41.075766 
" style="fill: none; stroke: #ff7f0e; stroke-width: 1.5; stroke-linecap: square"/>
     <g>
      <use xlink:href="#ma48aaa4348" x="400.552578" y="41.075766" style="fill: #ff7f0e; stroke: #ff7f0e"/>
     </g>
    </g>
    <g id="text_17">
     <!-- d=5 -->
     <g transform="translate(413.152578 43.525766) scale(0.07 -0.07)">
      <use xlink:href="#DejaVuSans-47"/>
      <use xlink:href="#DejaVuSans-20" transform="translate(63.484375 0)"/>
      <use xlink:href="#DejaVuSans-18" transform="translate(147.28125 0)"/>
     </g>
    </g>
    <g id="line2d_56">
     <path d="M 393.552578 51.576313 
L 400.552578 51.576313 
L 407.552578 51.576313 
" style="fill: none; stroke: #2ca02c; stroke-width: 1.5; stroke-linecap: square"/>
     <g>
      <use xlink:href="#mc328af362f" x="400.552578" y="51.576313" style="fill: #2ca02c; stroke: #2ca02c"/>
     </g>
    </g>
    <g id="text_18">
     <!-- d=7 -->
     <g transform="translate(413.152578 54.026313) scale(0.07 -0.07)">
      <use xlink:href="#DejaVuSans-47"/>
      <use xlink:href="#DejaVuSans-20" transform="translate(63.484375 0)"/>
      <use xlink:href="#DejaVuSans-1a" transform="translate(147.28125 0)"/>
     </g>
    </g>
    <g id="line2d_57">
     <path d="M 393.552578 62.076859 
L 400.552578 62.076859 
L 407.552578 62.076859 
" style="fill: none; stroke: #d62728; stroke-width: 1.5; stroke-linecap: square"/>
     <g>
      <use xlink:href="#m59312ce787" x="400.552578" y="62.076859" style="fill: #d62728; stroke: #d62728"/>
     </g>
    </g>
    <g id="text_19">
     <!-- d=9 -->
     <g transform="translate(413.152578 64.526859) scale(0.07 -0.07)">
      <defs>
       <path id="DejaVuSans-1c" d="M 703 97 
L 703 672 
Q 941 559 1184 500 
Q 1428 441 1663 441 
Q 2288 441 2617 861 
Q 2947 1281 2994 2138 
Q 2813 1869 2534 1725 
Q 2256 1581 1919 1581 
Q 1219 1581 811 2004 
Q 403 2428 403 3163 
Q 403 3881 828 4315 
Q 1253 4750 1959 4750 
Q 2769 4750 3195 4129 
Q 3622 3509 3622 2328 
Q 3622 1225 3098 567 
Q 2575 -91 1691 -91 
Q 1453 -91 1209 -44 
Q 966 3 703 97 
z
M 1959 2075 
Q 2384 2075 2632 2365 
Q 2881 2656 2881 3163 
Q 2881 3666 2632 3958 
Q 2384 4250 1959 4250 
Q 1534 4250 1286 3958 
Q 1038 3666 1038 3163 
Q 1038 2656 1286 2365 
Q 1534 2075 1959 2075 
z
" transform="scale(0.015625)"/>
      </defs>
      <use xlink:href="#DejaVuSans-47"/>
      <use xlink:href="#DejaVuSans-20" transform="translate(63.484375 0)"/>
      <use xlink:href="#DejaVuSans-1c" transform="translate(147.28125 0)"/>
     </g>
    </g>
    <g id="line2d_58">
     <path d="M 393.552578 72.577406 
L 400.552578 72.577406 
L 407.552578 72.577406 
" style="fill: none; stroke: #9467bd; stroke-width: 1.5; stroke-linecap: square"/>
     <g>
      <use xlink:href="#me1616bd1be" x="400.552578" y="72.577406" style="fill: #9467bd; stroke: #9467bd"/>
     </g>
    </g>
    <g id="text_20">
     <!-- d=11 -->
     <g transform="translate(413.152578 75.027406) scale(0.07 -0.07)">
      <use xlink:href="#DejaVuSans-47"/>
      <use xlink:href="#DejaVuSans-20" transform="translate(63.484375 0)"/>
      <use xlink:href="#DejaVuSans-14" transform="translate(147.28125 0)"/>
      <use xlink:href="#DejaVuSans-14" transform="translate(210.90625 0)"/>
     </g>
    </g>
    <g id="line2d_59">
     <path d="M 446.369766 30.575219 
L 453.369766 30.575219 
L 460.369766 30.575219 
" style="fill: none; stroke: #8c564b; stroke-width: 1.5; stroke-linecap: square"/>
     <g>
      <use xlink:href="#m34cddd1eca" x="453.369766" y="30.575219" style="fill: #8c564b; stroke: #8c564b"/>
     </g>
    </g>
    <g id="text_21">
     <!-- d=13 -->
     <g transform="translate(465.969766 33.025219) scale(0.07 -0.07)">
      <use xlink:href="#DejaVuSans-47"/>
      <use xlink:href="#DejaVuSans-20" transform="translate(63.484375 0)"/>
      <use xlink:href="#DejaVuSans-14" transform="translate(147.28125 0)"/>
      <use xlink:href="#DejaVuSans-16" transform="translate(210.90625 0)"/>
     </g>
    </g>
    <g id="line2d_60">
     <path d="M 446.369766 41.075766 
L 453.369766 41.075766 
L 460.369766 41.075766 
" style="fill: none; stroke: #e377c2; stroke-width: 1.5; stroke-linecap: square"/>
     <g>
      <use xlink:href="#m59b04aa49b" x="453.369766" y="41.075766" style="fill: #e377c2; stroke: #e377c2"/>
     </g>
    </g>
    <g id="text_22">
     <!-- d=15 -->
     <g transform="translate(465.969766 43.525766) scale(0.07 -0.07)">
      <use xlink:href="#DejaVuSans-47"/>
      <use xlink:href="#DejaVuSans-20" transform="translate(63.484375 0)"/>
      <use xlink:href="#DejaVuSans-14" transform="translate(147.28125 0)"/>
      <use xlink:href="#DejaVuSans-18" transform="translate(210.90625 0)"/>
     </g>
    </g>
    <g id="line2d_61">
     <path d="M 446.369766 51.576313 
L 453.369766 51.576313 
L 460.369766 51.576313 
" style="fill: none; stroke: #7f7f7f; stroke-width: 1.5; stroke-linecap: square"/>
     <g>
      <use xlink:href="#mda9de37c0c" x="453.369766" y="51.576313" style="fill: #7f7f7f; stroke: #7f7f7f"/>
     </g>
    </g>
    <g id="text_23">
     <!-- d=17 -->
     <g transform="translate(465.969766 54.026313) scale(0.07 -0.07)">
      <use xlink:href="#DejaVuSans-47"/>
      <use xlink:href="#DejaVuSans-20" transform="translate(63.484375 0)"/>
      <use xlink:href="#DejaVuSans-14" transform="translate(147.28125 0)"/>
      <use xlink:href="#DejaVuSans-1a" transform="translate(210.90625 0)"/>
     </g>
    </g>
    <g id="line2d_62">
     <path d="M 446.369766 62.076859 
L 453.369766 62.076859 
L 460.369766 62.076859 
" style="fill: none; stroke: #bcbd22; stroke-width: 1.5; stroke-linecap: square"/>
     <g>
      <use xlink:href="#mf6b2a587fa" x="453.369766" y="62.076859" style="fill: #bcbd22; stroke: #bcbd22"/>
     </g>
    </g>
    <g id="text_24">
     <!-- d=19 -->
     <g transform="translate(465.969766 64.526859) scale(0.07 -0.07)">
      <use xlink:href="#DejaVuSans-47"/>
      <use xlink:href="#DejaVuSans-20" transform="translate(63.484375 0)"/>
      <use xlink:href="#DejaVuSans-14" transform="translate(147.28125 0)"/>
      <use xlink:href="#DejaVuSans-1c" transform="translate(210.90625 0)"/>
     </g>
    </g>
   </g>
  </g>
 </g>
 <defs>
  <clipPath id="p28bca59e53">
   <rect x="32.926953" y="21.406313" width="458.56" height="245.197891"/>
  </clipPath>
 </defs>
</svg>
